<?xml version="1.0" standalone="no"?>
<!DOCTYPE svg PUBLIC "-//W3C//DTD SVG 20010904//EN"
 "http://www.w3.org/TR/2001/REC-SVG-20010904/DTD/svg10.dtd">
<svg version="1.0" xmlns="http://www.w3.org/2000/svg"
 width="960.000000pt" height="960.000000pt" viewBox="0 0 960.000000 960.000000"
 preserveAspectRatio="xMidYMid meet">
<metadata>
Created by potrace 1.14, written by Peter Selinger 2001-2017
</metadata>
<g transform="translate(0.000000,960.000000) scale(0.100000,-0.100000)"
fill="#000000" stroke="none">
<path d="M1156 9592 c-10 -2 -68 -33 -128 -68 -61 -35 -115 -64 -119 -64 -5 0
-9 -4 -9 -8 0 -4 -12 -13 -27 -19 -16 -7 -50 -26 -78 -43 -27 -17 -62 -35 -77
-41 -16 -6 -28 -15 -28 -20 0 -5 -6 -9 -13 -9 -7 0 -25 -12 -38 -27 -59 -64
-77 -116 -97 -268 -9 -63 -7 -390 3 -515 4 -52 8 -105 9 -117 0 -13 3 -23 6
-23 3 0 6 -8 7 -19 3 -33 30 -85 67 -128 21 -24 40 -42 44 -41 4 1 78 -33 166
-75 87 -42 162 -77 167 -77 5 0 9 -4 9 -10 0 -5 7 -10 15 -10 8 0 23 -4 33
-10 9 -5 28 -14 42 -20 14 -5 32 -14 40 -20 8 -5 74 -37 145 -71 72 -34 180
-85 240 -114 61 -29 157 -75 215 -103 58 -27 159 -75 225 -107 66 -32 185 -89
265 -127 259 -124 288 -140 332 -180 23 -22 48 -42 53 -46 32 -22 122 -196
130 -252 1 -8 5 -31 9 -50 4 -19 8 -1482 9 -3250 2 -1768 6 -3226 10 -3240 11
-39 27 -82 42 -110 7 -14 13 -27 12 -30 -1 -9 51 -85 79 -116 100 -105 202
-153 341 -159 115 -6 160 7 323 92 69 36 161 84 205 107 44 22 83 45 87 51 4
5 8 6 8 1 0 -5 6 -3 14 3 14 12 246 134 396 209 41 20 77 39 80 42 3 3 37 21
75 41 194 99 241 124 246 132 3 5 9 8 13 8 3 -1 39 16 79 36 39 21 86 44 102
52 17 8 74 36 128 62 53 27 97 45 97 41 0 -4 4 -2 8 4 4 5 27 20 52 31 25 12
108 52 185 89 77 37 142 69 145 69 3 1 95 45 205 99 250 122 301 146 314 146
6 0 11 5 11 10 0 6 4 10 10 10 5 0 76 32 157 71 82 39 186 89 233 111 47 22
92 44 100 49 8 5 24 13 35 18 37 16 231 109 334 160 57 28 109 51 117 51 8 0
14 4 14 9 0 5 10 13 23 17 21 6 165 74 475 225 78 38 147 69 152 69 6 0 10 4
10 9 0 5 12 14 28 20 35 15 104 81 140 134 56 83 87 168 98 268 7 65 7 63 4
69 -6 15 -6 50 0 50 4 0 7 13 6 30 -1 16 -4 30 -7 30 -4 0 -3 16 1 36 5 19 5
48 0 64 -4 16 -7 30 -5 32 8 9 12 79 4 84 -5 3 -4 14 2 26 9 16 8 19 -2 13 -8
-6 -10 -4 -4 5 11 17 13 60 4 60 -4 0 -3 16 1 36 5 19 5 48 0 63 -4 16 -4 34
0 41 4 7 4 25 0 41 -5 15 -6 30 -3 32 8 8 9 108 1 113 -4 3 -3 15 2 28 5 13 7
26 5 28 -2 2 -6 27 -9 57 -6 61 -34 122 -74 157 -32 28 -294 158 -362 179 -3
1 -31 13 -62 27 -103 47 -207 79 -263 79 -29 1 -58 -1 -62 -4 -5 -3 -20 -8
-34 -10 -26 -5 -104 -40 -246 -110 -50 -25 -94 -43 -97 -39 -3 3 -6 0 -6 -6 0
-7 -4 -12 -10 -12 -5 0 -87 -38 -182 -84 -95 -46 -225 -108 -288 -139 -63 -30
-176 -84 -250 -120 -302 -146 -355 -171 -360 -172 -3 -1 -57 -27 -120 -57 -63
-31 -182 -88 -265 -128 -82 -39 -193 -93 -245 -118 -52 -26 -97 -47 -100 -47
-3 -1 -43 -20 -90 -43 -47 -23 -91 -42 -97 -42 -7 0 -13 -4 -13 -9 0 -5 -10
-13 -22 -17 -13 -3 -67 -28 -120 -54 l-98 -48 0 1701 c0 1184 3 1714 11 1742
24 88 83 138 164 138 38 0 87 -19 240 -94 33 -16 65 -29 72 -29 7 0 13 -4 13
-9 0 -5 10 -13 23 -16 12 -4 65 -27 117 -52 52 -25 133 -64 180 -85 47 -22
130 -62 185 -88 55 -26 150 -71 210 -100 61 -28 153 -72 205 -98 52 -25 97
-46 100 -47 6 -2 110 -50 226 -106 49 -24 92 -42 97 -41 4 1 7 -2 7 -8 0 -5 6
-10 13 -10 6 0 46 -16 87 -36 41 -20 127 -61 190 -91 63 -30 149 -71 190 -91
41 -20 77 -37 80 -37 3 -1 50 -23 105 -50 55 -26 136 -64 180 -85 44 -21 130
-61 190 -90 61 -29 151 -71 200 -95 50 -23 134 -64 188 -89 320 -152 329 -155
397 -131 19 7 79 33 133 59 55 25 100 46 102 46 2 0 41 18 88 40 46 22 89 40
96 40 6 0 11 5 11 11 0 5 5 7 10 4 6 -3 10 -1 10 6 0 7 3 10 6 6 9 -8 117 47
146 75 50 48 50 46 50 692 0 688 4 656 -87 686 -22 7 -44 16 -50 20 -5 4 -57
28 -115 53 -58 25 -127 56 -155 68 -27 13 -52 24 -55 24 -3 1 -25 11 -50 22
-25 11 -83 37 -130 58 -47 20 -114 51 -150 67 -72 34 -112 51 -121 52 -3 1
-21 9 -40 18 -19 10 -67 31 -108 49 -40 17 -106 46 -147 65 -41 19 -76 34 -78
34 -2 0 -37 15 -78 34 -104 48 -257 116 -262 116 -2 0 -39 17 -82 37 -43 20
-83 38 -89 39 -5 1 -46 19 -90 39 -44 20 -93 42 -110 50 -16 7 -50 22 -75 33
-25 11 -49 21 -55 22 -5 1 -21 8 -35 15 -48 26 -116 55 -128 55 -7 0 -12 5
-12 10 0 6 -7 10 -15 10 -8 0 -23 4 -33 10 -9 5 -141 64 -292 130 -151 67
-288 127 -305 134 -16 8 -50 23 -75 34 -109 48 -149 66 -208 93 -35 16 -65 29
-67 29 -3 0 -28 11 -57 24 -107 49 -169 76 -463 206 -165 73 -322 142 -350
155 -126 56 -194 85 -204 85 -6 0 -11 4 -11 8 0 4 -17 14 -37 21 -34 12 -239
101 -353 153 -66 30 -114 52 -120 53 -3 1 -36 16 -74 33 -38 18 -74 32 -81 32
-7 0 -18 7 -25 15 -7 8 -16 12 -21 9 -5 -3 -9 0 -9 7 0 7 -3 10 -6 7 -3 -3
-40 10 -82 29 -175 79 -216 96 -224 95 -5 -1 -8 3 -8 10 0 6 -3 9 -6 5 -3 -3
-22 3 -42 13 -21 10 -57 27 -82 38 -154 67 -211 92 -260 115 -30 13 -91 40
-135 60 -44 19 -102 45 -130 57 -27 12 -66 29 -85 37 -41 18 -107 48 -205 93
-38 18 -74 33 -80 34 -5 1 -32 13 -60 25 -27 13 -63 29 -80 36 -16 7 -66 30
-110 50 -44 20 -84 38 -90 39 -5 2 -30 12 -55 23 -25 11 -128 57 -230 102
-205 90 -242 107 -283 128 -15 8 -35 16 -45 18 -9 2 -31 8 -48 13 -30 10 -171
12 -208 4z"/>
<path d="M5121 5129 c-52 -31 -78 -65 -90 -114 -2 -11 -5 -299 -5 -640 -1
-562 1 -623 16 -655 21 -44 53 -75 99 -94 60 -25 49 -29 437 168 67 34 122 60
122 58 0 -3 6 1 14 7 23 19 106 61 106 53 0 -4 4 -2 8 3 4 6 52 33 107 60 55
28 102 53 103 58 2 4 11 7 21 7 9 0 21 4 27 9 15 14 264 141 264 135 0 -3 18
9 40 26 92 73 110 208 39 298 -21 27 -89 77 -89 66 0 -3 -6 -2 -12 4 -7 5 -89
49 -183 97 -93 48 -240 124 -325 168 -657 339 -630 328 -699 286z"/>
</g>
</svg>
