<svg width="10" height="12" viewBox="0 0 10 12" fill="none" xmlns="http://www.w3.org/2000/svg">
<path d="M3.66634 8.66648H6.33301C6.69967 8.66648 6.99967 8.36648 6.99967 7.99982V4.66648H8.05967C8.65301 4.66648 8.95301 3.94648 8.53301 3.52648L5.47301 0.466484C5.21301 0.206484 4.79301 0.206484 4.53301 0.466484L1.47301 3.52648C1.05301 3.94648 1.34634 4.66648 1.93967 4.66648H2.99967V7.99982C2.99967 8.36648 3.29967 8.66648 3.66634 8.66648ZM0.999674 9.99982H8.99967C9.36634 9.99982 9.66634 10.2998 9.66634 10.6665C9.66634 11.0332 9.36634 11.3332 8.99967 11.3332H0.999674C0.633008 11.3332 0.333008 11.0332 0.333008 10.6665C0.333008 10.2998 0.633008 9.99982 0.999674 9.99982Z" fill="white"/>
</svg>
