<svg width="18" height="10" viewBox="0 0 18 10" fill="none" xmlns="http://www.w3.org/2000/svg">
<path d="M17 2H5C4.45 2 4 1.55 4 1C4 0.45 4.45 0 5 0H17C17.55 0 18 0.45 18 1C18 1.55 17.55 2 17 2ZM17 6H5C4.45 6 4 5.55 4 5C4 4.45 4.45 4 5 4H17C17.55 4 18 4.45 18 5C18 5.55 17.55 6 17 6ZM17 10H5C4.45 10 4 9.55 4 9C4 8.45 4.45 8 5 8H17C17.55 8 18 8.45 18 9C18 9.55 17.55 10 17 10ZM2 9C2 9.55229 1.55228 10 1 10C0.447716 10 0 9.55229 0 9C0 8.44771 0.447716 8 1 8C1.55228 8 2 8.44771 2 9ZM1 0C1.55228 0 2 0.447715 2 1C2 1.55228 1.55228 2 1 2C0.447716 2 0 1.55228 0 1C0 0.447715 0.447716 0 1 0ZM2 5C2 5.55228 1.55228 6 1 6C0.447716 6 0 5.55228 0 5C0 4.44772 0.447716 4 1 4C1.55228 4 2 4.44772 2 5Z" fill="#5A5D72"/>
</svg>
