<svg width="320" height="250" viewBox="0 0 320 250" fill="none" xmlns="http://www.w3.org/2000/svg">
<path d="M62.3433 207.712C84.8952 207.712 107.447 207.712 129.999 207.712C152.477 207.712 174.955 207.712 197.409 207.712C210.113 207.712 222.841 207.712 235.545 207.712C236.013 207.712 236.013 206.989 235.545 206.989C212.993 206.989 190.441 206.989 167.889 206.989C145.411 206.989 122.933 206.989 100.48 206.989C87.7758 206.989 75.0472 206.989 62.3433 206.989C61.8755 206.989 61.8755 207.712 62.3433 207.712Z" fill="#9A9AA3"/>
<path d="M240.102 192.72C239.906 199.662 240.62 206.605 242.244 213.38C242.343 213.838 243.057 213.645 242.958 213.187C241.358 206.485 240.644 199.614 240.866 192.72C240.841 192.261 240.102 192.261 240.102 192.72Z" fill="#9A9AA3"/>
<path d="M269.423 193.271C270.113 199.684 269.694 206.169 268.192 212.437C268.094 212.895 268.783 213.088 268.906 212.629C270.433 206.289 270.876 199.756 270.162 193.271C270.113 192.813 269.374 192.813 269.423 193.271Z" fill="#9A9AA3"/>
<path d="M242.537 214.053C251.056 216.175 260.067 215.886 268.413 213.185C268.856 213.041 268.659 212.342 268.216 212.486C259.968 215.138 251.13 215.452 242.734 213.354C242.266 213.258 242.069 213.957 242.537 214.053Z" fill="#9A9AA3"/>
<path d="M240.445 193.055C250.023 195.056 259.945 195.008 269.497 192.935C269.965 192.838 269.768 192.139 269.3 192.236C259.871 194.285 250.072 194.309 240.642 192.356C240.175 192.26 239.978 192.959 240.445 193.055Z" fill="#9A9AA3"/>
<path d="M246.282 193.32C245.002 190.499 246.159 187.052 247.119 184.28C248.104 181.411 249.507 178.687 251.231 176.179C251.034 176.204 250.837 176.228 250.64 176.252C251.206 176.879 251.822 177.312 252.585 177.674C252.88 177.795 253.2 177.602 253.126 177.264C252.831 175.962 252.314 174.685 252.905 173.383C253.323 172.467 253.914 171.551 254.407 170.683C254.234 170.731 254.062 170.779 253.89 170.804C254.407 171.117 254.924 171.406 255.441 171.72C255.785 171.937 256.081 171.527 255.958 171.213C255.441 170.104 255.096 168.995 255.81 167.887C256.229 167.212 256.77 166.609 257.238 165.982C258.272 164.632 259.355 163.282 260.439 161.956C262.507 159.425 264.649 156.966 266.865 154.555C266.668 154.531 266.471 154.507 266.274 154.483C269.425 158.533 271.419 163.378 271.961 168.441C272.232 170.876 272.158 173.383 271.715 175.794C271.493 177.023 271.173 178.229 270.779 179.41C270.705 179.651 270.607 179.892 270.533 180.109C270.262 180.784 269.819 181.073 269.105 181.218C268.613 181.314 268.342 181.242 267.923 181.555C267.726 181.7 267.677 181.941 267.849 182.134C268.391 182.688 268.613 182.785 268.416 183.532C268.293 184.014 267.997 184.521 267.776 185.003C267.332 185.967 266.84 186.907 266.323 187.823C265.264 189.704 264.058 191.488 262.704 193.175C262.408 193.537 262.925 194.043 263.221 193.681C265.831 190.403 267.899 186.811 269.45 182.954C269.499 182.833 269.45 182.688 269.351 182.592C269.031 182.279 268.711 181.941 268.366 181.628C268.342 181.821 268.317 182.013 268.293 182.206C268.859 181.821 269.499 182.086 270.09 181.845C270.558 181.676 270.804 181.338 271.001 180.904C271.542 179.771 271.887 178.47 272.183 177.264C272.798 174.612 272.995 171.888 272.798 169.188C272.379 163.74 270.336 158.461 266.938 154.121C266.815 153.952 266.545 153.856 266.348 154.049C263.615 157.014 260.98 160.076 258.469 163.21C257.337 164.608 256.13 166.006 255.145 167.525C254.259 168.899 254.678 170.201 255.293 171.599C255.465 171.43 255.638 171.262 255.81 171.093C255.293 170.779 254.776 170.49 254.259 170.177C254.087 170.08 253.84 170.129 253.742 170.297C253.126 171.406 252.166 172.636 251.822 173.865C251.526 174.95 252.142 176.372 252.388 177.433C252.56 177.288 252.757 177.168 252.929 177.023C252.216 176.71 251.649 176.3 251.132 175.721C250.96 175.529 250.664 175.601 250.541 175.794C248.621 178.59 247.119 181.652 246.085 184.882C245.199 187.679 244.337 190.861 245.593 193.657C245.839 194.091 246.479 193.73 246.282 193.32Z" fill="#9A9AA3"/>
<path d="M266.323 160.025C265.338 170.945 257.706 179.696 254.53 189.966C254.382 190.424 255.096 190.593 255.244 190.159C258.42 179.817 266.077 171.042 267.062 160.025C267.111 159.542 266.348 159.566 266.323 160.025Z" fill="#9A9AA3"/>
<path d="M257.015 165.836C257.803 169.813 258.714 173.743 259.748 177.648C259.871 178.106 260.585 177.913 260.462 177.455C259.428 173.55 258.517 169.596 257.729 165.643C257.655 165.185 256.941 165.378 257.015 165.836Z" fill="#9A9AA3"/>
<path d="M265.336 168.391C267.478 166.872 269.324 165.064 270.925 162.966C271.22 162.605 270.58 162.243 270.285 162.605C268.783 164.582 267.01 166.317 264.967 167.764C264.597 168.053 264.967 168.68 265.336 168.391Z" fill="#9A9AA3"/>
<path d="M263.047 158.073C263.711 160.146 264.105 162.678 265.73 164.245C266.075 164.582 266.592 164.052 266.247 163.738C264.745 162.268 264.352 159.785 263.736 157.88C263.613 157.446 262.899 157.639 263.047 158.073Z" fill="#9A9AA3"/>
<path d="M244.804 193.129C243.302 191.972 242.391 190.356 241.628 188.669C240.766 186.692 240.028 184.667 239.363 182.618C238.107 178.689 237.196 174.638 236.655 170.564C235.547 162.03 236.433 153.4 235.375 144.842C235.153 144.914 234.907 144.962 234.685 145.035C237.443 151.11 243.893 154.75 249.26 158.366C249.211 158.197 249.162 158.029 249.137 157.86C248.399 158.896 247.66 159.933 246.921 160.97C246.749 161.211 246.971 161.524 247.242 161.524C248.202 161.524 249.039 161.404 249.95 161.09C249.802 161.042 249.679 160.97 249.531 160.921C250.442 162.296 251.353 163.67 252.264 165.044C252.289 164.899 252.313 164.754 252.313 164.61C251.87 165.02 251.501 165.478 251.132 165.984C251.008 166.153 251.132 166.49 251.353 166.514C253.372 166.804 254.086 168.684 254.603 170.371C254.751 170.805 255.465 170.637 255.317 170.179C254.701 168.274 253.815 166.129 251.55 165.815C251.624 165.984 251.698 166.177 251.772 166.346C252.092 165.863 252.412 165.526 252.83 165.14C252.953 165.044 252.978 164.827 252.88 164.706C251.969 163.332 251.058 161.958 250.147 160.584C250.073 160.463 249.901 160.367 249.728 160.415C248.891 160.68 248.079 160.825 247.217 160.801C247.315 160.994 247.438 161.162 247.537 161.355C248.276 160.319 249.014 159.282 249.753 158.245C249.876 158.077 249.777 157.86 249.63 157.739C244.361 154.195 238.034 150.652 235.325 144.673C235.178 144.36 234.587 144.504 234.636 144.866C235.719 153.737 234.759 162.705 236.039 171.553C236.655 175.82 237.664 180.014 239.068 184.089C240.2 187.391 241.382 191.417 244.262 193.659C244.656 193.924 245.173 193.418 244.804 193.129Z" fill="#9A9AA3"/>
<path d="M234.833 145.566C236.827 150.966 238.501 156.655 241.185 161.79C242.514 164.322 243.967 166.805 245.222 169.384C246.576 172.181 247.783 175.025 249.014 177.846C249.186 178.28 249.826 177.894 249.654 177.484C248.497 174.784 247.315 172.084 246.059 169.432C244.828 166.829 243.4 164.346 242.022 161.814C239.264 156.655 237.565 150.87 235.522 145.397C235.374 144.939 234.66 145.132 234.833 145.566Z" fill="#9A9AA3"/>
<path d="M235.769 163.883C238.428 164.196 241.333 164.341 243.352 166.294C243.697 166.631 244.214 166.101 243.869 165.787C241.703 163.714 238.625 163.521 235.769 163.184C235.301 163.111 235.301 163.835 235.769 163.883Z" fill="#9A9AA3"/>
<path d="M242.884 154.121C242.441 155.688 242.146 157.303 242.023 158.942C241.924 160.341 241.752 161.98 242.244 163.33C242.392 163.764 243.106 163.571 242.958 163.137C242.49 161.859 242.663 160.268 242.761 158.918C242.884 157.351 243.18 155.808 243.598 154.29C243.721 153.856 243.007 153.663 242.884 154.121Z" fill="#9A9AA3"/>
<path d="M237.444 177.022C239.364 177.07 241.211 177.094 243.082 177.6C244.928 178.107 246.75 178.637 248.597 179.167C249.065 179.288 249.262 178.589 248.794 178.468C246.824 177.914 244.879 177.311 242.885 176.805C241.088 176.347 239.29 176.371 237.444 176.323C236.976 176.274 236.976 176.998 237.444 177.022Z" fill="#9A9AA3"/>
<path d="M264.377 192.451C266.027 192.234 267.652 192.234 269.301 192.451C269.227 192.283 269.153 192.09 269.08 191.921C268.932 192.138 267.455 192.162 267.159 192.186C266.494 192.283 265.805 192.379 265.14 192.524C265.042 192.548 264.377 192.62 264.352 192.692C264.402 192.572 265.387 192.596 265.534 192.596C266.248 192.596 266.962 192.668 267.676 192.717C267.676 192.476 267.676 192.234 267.676 191.993C267.061 191.969 266.519 192.042 265.904 192.21C265.51 192.307 265.583 192.909 266.002 192.909C266.962 192.909 267.824 192.717 268.759 192.476C269.227 192.355 269.03 191.656 268.563 191.776C267.725 191.993 266.888 192.186 266.002 192.186C266.027 192.427 266.076 192.668 266.101 192.885C266.618 192.741 267.135 192.692 267.676 192.692C268.144 192.692 268.144 191.993 267.676 191.969C266.593 191.921 265.017 191.535 264.032 192.138C263.638 192.379 263.072 193.006 263.589 193.392C263.811 193.56 264.057 193.464 264.328 193.44C265.066 193.295 265.78 193.126 266.519 193.006C267.381 192.861 269.104 193.078 269.695 192.283C269.818 192.114 269.695 191.776 269.473 191.752C267.75 191.511 266.076 191.511 264.352 191.728C263.909 191.776 263.909 192.5 264.377 192.451Z" fill="#9A9AA3"/>
<path d="M240.766 192.912C241.111 192.816 241.455 192.744 241.8 192.72C241.973 192.72 242.12 192.695 242.293 192.72C242.366 192.72 242.711 192.695 242.736 192.72C242.711 192.599 242.662 192.478 242.637 192.358C242.637 192.382 242.613 192.406 242.613 192.406C242.76 192.334 242.908 192.237 243.056 192.165C243.031 192.165 243.007 192.165 243.007 192.165C243.08 192.237 243.179 192.334 243.253 192.406C243.253 192.382 243.253 192.358 243.228 192.358C243.105 191.9 242.416 192.093 242.514 192.551C242.514 192.575 242.514 192.599 242.539 192.599C242.563 192.72 242.687 192.816 242.785 192.84C242.81 192.84 242.834 192.84 242.834 192.84C243.031 192.888 243.204 192.792 243.277 192.599C243.277 192.575 243.302 192.551 243.302 192.551C243.351 192.43 243.302 192.286 243.204 192.189C242.933 191.924 242.342 191.972 241.997 191.972C241.505 191.972 240.988 192.069 240.52 192.189C240.126 192.334 240.323 193.033 240.766 192.912Z" fill="#9A9AA3"/>
<path d="M241.332 197.757C250.319 199.275 259.65 199.999 268.513 197.395C268.956 197.25 268.784 196.575 268.316 196.696C259.6 199.251 250.392 198.552 241.529 197.058C241.061 196.985 240.864 197.684 241.332 197.757Z" fill="#9A9AA3"/>
<path d="M272.28 207.665C288.061 207.665 303.867 207.665 319.649 207.665C320.117 207.665 320.117 206.941 319.649 206.941C303.867 206.941 288.061 206.941 272.28 206.941C271.787 206.941 271.787 207.665 272.28 207.665Z" fill="#9A9AA3"/>
<path d="M260.338 223.166C275.209 223.166 290.104 223.166 304.975 223.166C305.443 223.166 305.443 222.442 304.975 222.442C290.104 222.442 275.209 222.442 260.338 222.442C259.871 222.442 259.871 223.166 260.338 223.166Z" fill="#9A9AA3"/>
<path d="M267.11 223.092C265.337 224.538 263.565 225.961 261.817 227.407C261.447 227.697 261.964 228.203 262.334 227.913C264.106 226.467 265.879 225.045 267.627 223.598C267.996 223.309 267.455 222.779 267.11 223.092Z" fill="#9A9AA3"/>
<path d="M262.039 228.177C262.506 228.177 262.506 227.454 262.039 227.454C261.571 227.454 261.571 228.177 262.039 228.177Z" fill="#9A9AA3"/>
<path d="M269.547 227.454C254.553 227.454 239.56 227.454 224.566 227.454C224.098 227.454 224.098 228.177 224.566 228.177C239.56 228.177 254.553 228.177 269.547 228.177C270.015 228.177 270.015 227.454 269.547 227.454Z" fill="#9A9AA3"/>
<path d="M224.493 234.932C227.152 232.762 229.885 230.689 232.691 228.688C233.061 228.423 232.716 227.796 232.322 228.061C229.466 230.086 226.684 232.208 223.976 234.401C223.607 234.715 224.124 235.221 224.493 234.932Z" fill="#9A9AA3"/>
<path d="M0.351083 221.766C17.733 221.766 35.1149 221.766 52.4968 221.766C57.4208 221.766 62.3449 221.766 67.269 221.766C67.7367 221.766 67.7367 221.043 67.269 221.043C49.887 221.043 32.5051 221.043 15.1232 221.043C10.1992 221.043 5.27513 221.043 0.351083 221.043C-0.116702 221.043 -0.116702 221.766 0.351083 221.766Z" fill="#9A9AA3"/>
<path d="M9.43601 228.058C11.7749 226.105 14.1385 224.152 16.4774 222.2C16.8467 221.886 16.3051 221.38 15.9604 221.693C13.6215 223.646 11.2579 225.599 8.91899 227.551C8.54968 227.841 9.09133 228.371 9.43601 228.058Z" fill="#9A9AA3"/>
<path d="M0.966317 228.76C17.1172 228.76 33.2681 228.76 49.419 228.76C49.8868 228.76 49.8868 228.037 49.419 228.037C33.2681 228.037 17.1172 228.037 0.966317 228.037C0.498532 228.037 0.498532 228.76 0.966317 228.76Z" fill="#9A9AA3"/>
<path d="M43.7792 228.616C41.9327 230.641 40.037 232.618 38.1166 234.595C37.7965 234.932 38.3135 235.439 38.6336 235.101C40.554 233.124 42.4251 231.147 44.2963 229.122C44.6409 228.785 44.0993 228.279 43.7792 228.616Z" fill="#9A9AA3"/>
<path d="M31.1753 235.749C45.3812 235.749 59.5625 235.749 73.7683 235.749C74.2361 235.749 74.2361 235.025 73.7683 235.025C59.5625 235.025 45.3812 235.025 31.1753 235.025C30.7075 235.025 30.7075 235.749 31.1753 235.749Z" fill="#9A9AA3"/>
<path d="M21.106 209.642C27.1133 209.642 33.1207 209.642 39.1526 209.642C39.6204 209.642 39.6204 208.919 39.1526 208.919C33.1453 208.919 27.1379 208.919 21.106 208.919C20.6382 208.919 20.6382 209.642 21.106 209.642Z" fill="#9A9AA3"/>
<path d="M43.7065 212.003C45.553 212.003 47.4241 212.003 49.2706 212.003C49.7384 212.003 49.7384 211.279 49.2706 211.279C47.4241 211.279 45.553 211.279 43.7065 211.279C43.2141 211.279 43.2141 212.003 43.7065 212.003Z" fill="#9A9AA3"/>
<path d="M30.3381 83.1033C30.3381 87.0328 30.3381 90.9864 30.3381 94.9159C30.3381 95.3739 31.0767 95.3739 31.0767 94.9159C31.0767 90.9864 31.0767 87.0328 31.0767 83.1033C31.0767 82.6453 30.3381 82.6453 30.3381 83.1033Z" fill="#9A9AA3"/>
<path d="M17.9556 95.4928C27.8529 95.4928 37.7503 95.4928 47.6476 95.4928C48.1154 95.4928 48.1154 94.7695 47.6476 94.7695C37.7503 94.7695 27.8529 94.7695 17.9556 94.7695C17.4878 94.7695 17.4878 95.4928 17.9556 95.4928Z" fill="#9A9AA3"/>
<path d="M38.6848 95.8304C38.6848 98.8679 38.6848 101.881 38.6848 104.919C38.6848 105.377 39.4234 105.377 39.4234 104.919C39.4234 101.881 39.4234 98.8679 39.4234 95.8304C39.4234 95.3482 38.6848 95.3482 38.6848 95.8304Z" fill="#9A9AA3"/>
<path d="M30.4858 106.175C38.3642 106.175 46.2673 106.175 54.1458 106.175C54.6136 106.175 54.6136 105.452 54.1458 105.452C46.2673 105.452 38.3642 105.452 30.4858 105.452C29.9934 105.452 29.9934 106.175 30.4858 106.175Z" fill="#9A9AA3"/>
<path d="M229.17 74.6404C229.17 75.6047 229.17 76.5449 229.17 77.5092C229.17 77.9672 229.909 77.9672 229.909 77.5092C229.909 76.5449 229.909 75.6047 229.909 74.6404C229.909 74.1824 229.17 74.1824 229.17 74.6404Z" fill="#9A9AA3"/>
<path d="M229.761 75.2164C246.7 75.2164 263.639 75.2164 280.577 75.2164C281.045 75.2164 281.045 74.4932 280.577 74.4932C263.639 74.4932 246.7 74.4932 229.761 74.4932C229.293 74.4932 229.293 75.2164 229.761 75.2164Z" fill="#9A9AA3"/>
<path d="M230.204 77.8726C246.995 77.8726 263.786 77.8726 280.552 77.8726C281.02 77.8726 281.02 77.1494 280.552 77.1494C263.761 77.1494 246.97 77.1494 230.204 77.1494C229.736 77.1494 229.736 77.8726 230.204 77.8726Z" fill="#9A9AA3"/>
<path d="M280.454 74.6404C280.355 75.6288 280.405 76.6172 280.577 77.6056C280.651 78.0636 281.365 77.8708 281.291 77.4128C281.119 76.4967 281.094 75.5565 281.192 74.6404C281.242 74.1824 280.503 74.1824 280.454 74.6404Z" fill="#9A9AA3"/>
<path d="M233.232 74.663C233.232 67.937 233.232 61.2111 233.232 54.4851C233.232 54.0271 232.493 54.0271 232.493 54.4851C232.493 61.2111 232.493 67.937 232.493 74.663C232.493 75.1451 233.232 75.1451 233.232 74.663Z" fill="#9A9AA3"/>
<path d="M233.232 54.6049C235.325 53.7852 237.541 53.9058 239.486 55.0388C239.904 55.2799 240.274 54.6531 239.855 54.412C237.762 53.2067 235.276 53.0138 233.035 53.9058C232.592 54.0745 232.789 54.7736 233.232 54.6049Z" fill="#9A9AA3"/>
<path d="M239.364 54.8738C239.364 61.3346 239.364 67.8195 239.364 74.2802C239.364 74.7383 240.102 74.7383 240.102 74.2802C240.102 67.8195 240.102 61.3346 240.102 54.8738C240.102 54.4158 239.364 54.4158 239.364 54.8738Z" fill="#9A9AA3"/>
<path d="M240.2 60.2726C241.702 59.6699 243.277 59.7664 244.681 60.6101C245.099 60.8512 245.469 60.2244 245.05 59.9833C243.499 59.0673 241.677 58.8985 240.003 59.5735C239.56 59.7423 239.757 60.4414 240.2 60.2726Z" fill="#9A9AA3"/>
<path d="M244.533 60.5838C244.533 65.1159 244.533 69.624 244.533 74.1562C244.533 74.6142 245.272 74.6142 245.272 74.1562C245.272 69.624 245.272 65.1159 245.272 60.5838C245.272 60.1257 244.533 60.1257 244.533 60.5838Z" fill="#9A9AA3"/>
<path d="M233.332 60.1542C235.424 59.6961 237.493 59.8408 239.511 60.5399C239.955 60.6845 240.152 59.9854 239.708 59.8408C237.566 59.0935 235.351 58.997 233.135 59.4551C232.692 59.5515 232.889 60.2506 233.332 60.1542Z" fill="#9A9AA3"/>
<path d="M239.683 68.5184C241.258 68.1085 242.834 68.0603 244.434 68.3978C244.902 68.4943 245.099 67.7951 244.631 67.6987C242.908 67.3371 241.209 67.3612 239.486 67.8193C239.042 67.9398 239.215 68.6389 239.683 68.5184Z" fill="#9A9AA3"/>
<path d="M253.84 74.4229C253.84 73.0729 253.84 71.7228 253.84 70.3728C253.84 69.9148 253.102 69.9148 253.102 70.3728C253.102 71.7228 253.102 73.0729 253.102 74.4229C253.102 74.8809 253.84 74.8809 253.84 74.4229Z" fill="#9A9AA3"/>
<path d="M253.471 70.5904C261.473 70.5904 269.45 70.5904 277.451 70.5904C277.919 70.5904 277.919 69.8672 277.451 69.8672C269.45 69.8672 261.473 69.8672 253.471 69.8672C252.979 69.8672 252.979 70.5904 253.471 70.5904Z" fill="#9A9AA3"/>
<path d="M277.696 70.9762C278.164 70.9762 278.164 70.2529 277.696 70.2529C277.203 70.2529 277.203 70.9762 277.696 70.9762Z" fill="#9A9AA3"/>
<path d="M277.326 70.614C277.326 71.8435 277.326 73.073 277.326 74.3025C277.326 74.7605 278.065 74.7605 278.065 74.3025C278.065 73.073 278.065 71.8435 278.065 70.614C278.065 70.156 277.326 70.156 277.326 70.614Z" fill="#9A9AA3"/>
<path d="M258.493 70.1095C258.493 68.8318 258.493 67.5783 258.493 66.3006C258.493 65.8425 257.754 65.8425 257.754 66.3006C257.754 67.5783 257.754 68.8318 257.754 70.1095C257.754 70.5676 258.493 70.5676 258.493 70.1095Z" fill="#9A9AA3"/>
<path d="M258.124 66.5396C265.977 66.5396 273.831 66.5396 281.71 66.5396C282.178 66.5396 282.178 65.8164 281.71 65.8164C273.856 65.8164 266.002 65.8164 258.124 65.8164C257.656 65.8164 257.656 66.5396 258.124 66.5396Z" fill="#9A9AA3"/>
<path d="M281.463 66.178C281.463 67.2387 281.463 68.2995 281.463 69.3602C281.463 69.8182 282.202 69.8182 282.202 69.3602C282.202 68.2995 282.202 67.2387 282.202 66.178C282.202 65.6959 281.463 65.6959 281.463 66.178Z" fill="#9A9AA3"/>
<path d="M277.178 70.7105C278.606 70.7105 280.034 70.7105 281.462 70.7105C281.93 70.7105 281.93 69.9873 281.462 69.9873C280.034 69.9873 278.606 69.9873 277.178 69.9873C276.686 69.9873 276.686 70.7105 277.178 70.7105Z" fill="#9A9AA3"/>
<path d="M281.412 69.3852C281.363 69.6504 281.363 69.8915 281.437 70.1325C281.486 70.3254 281.708 70.4459 281.88 70.3736C282.077 70.3254 282.2 70.1084 282.126 69.9397C282.102 69.8191 282.077 69.6745 282.102 69.5781C282.126 69.3852 282.053 69.1682 281.856 69.1441C281.683 69.0959 281.437 69.1923 281.412 69.3852Z" fill="#9A9AA3"/>
<path d="M263.737 66.3486C264.057 67.5781 264.131 68.8316 263.959 70.1093C263.909 70.5674 264.648 70.5674 264.697 70.1093C264.87 68.7834 264.771 67.4575 264.451 66.1557C264.328 65.7218 263.614 65.9147 263.737 66.3486Z" fill="#9A9AA3"/>
<path d="M269.3 70.5417C269.472 71.747 269.373 72.9283 269.078 74.0855C268.955 74.5435 269.669 74.7364 269.792 74.2783C270.137 72.9765 270.21 71.6747 270.013 70.3488C269.964 69.8908 269.25 70.0836 269.3 70.5417Z" fill="#9A9AA3"/>
<path d="M264.475 99.8811C264.475 101.786 264.475 103.666 264.475 105.57C264.475 106.029 265.213 106.029 265.213 105.57C265.213 103.666 265.213 101.786 265.213 99.8811C265.213 99.399 264.475 99.399 264.475 99.8811Z" fill="#9A9AA3"/>
<path d="M258.764 105.67C263.688 105.67 268.612 105.67 273.536 105.67C274.004 105.67 274.004 104.946 273.536 104.946C268.612 104.946 263.688 104.946 258.764 104.946C258.296 104.946 258.296 105.67 258.764 105.67Z" fill="#9A9AA3"/>
<path d="M250.367 24.5711C250.367 28.9104 250.367 33.2738 250.367 37.6132C250.367 38.0712 251.106 38.0712 251.106 37.6132C251.106 33.2738 251.106 28.9104 251.106 24.5711C251.106 24.113 250.367 24.113 250.367 24.5711Z" fill="#9A9AA3"/>
<path d="M251.303 24.5455C256.917 24.5455 262.505 24.5455 268.119 24.5455C268.587 24.5455 268.587 23.8223 268.119 23.8223C262.505 23.8223 256.917 23.8223 251.303 23.8223C250.835 23.8223 250.835 24.5455 251.303 24.5455Z" fill="#9A9AA3"/>
<path d="M268.143 24.45C268.143 28.6447 268.143 32.8393 268.143 37.0099C268.143 37.4679 268.881 37.4679 268.881 37.0099C268.881 32.8152 268.881 28.6205 268.881 24.45C268.881 23.9919 268.143 23.9919 268.143 24.45Z" fill="#9A9AA3"/>
<path d="M250.639 38.0201C256.597 38.0201 262.555 38.0201 268.513 38.0201C268.981 38.0201 268.981 37.2969 268.513 37.2969C262.555 37.2969 256.597 37.2969 250.639 37.2969C250.171 37.2969 250.171 38.0201 250.639 38.0201Z" fill="#9A9AA3"/>
<path d="M252.017 26.0633C252.017 29.366 252.017 32.6446 252.017 35.9473C252.017 36.4053 252.755 36.4053 252.755 35.9473C252.755 32.6446 252.755 29.366 252.755 26.0633C252.755 25.6052 252.017 25.6052 252.017 26.0633Z" fill="#9A9AA3"/>
<path d="M252.558 26.3521C257.162 26.3521 261.791 26.3521 266.395 26.3521C266.862 26.3521 266.862 25.6289 266.395 25.6289C261.791 25.6289 257.162 25.6289 252.558 25.6289C252.09 25.6289 252.09 26.3521 252.558 26.3521Z" fill="#9A9AA3"/>
<path d="M266.124 26.0633C266.124 29.1249 266.124 32.1624 266.124 35.2241C266.124 35.6821 266.863 35.6821 266.863 35.2241C266.863 32.1624 266.863 29.1249 266.863 26.0633C266.863 25.6052 266.124 25.6052 266.124 26.0633Z" fill="#9A9AA3"/>
<path d="M252.558 36.3082C257.137 36.3082 261.717 36.3082 266.321 36.3082C266.789 36.3082 266.789 35.585 266.321 35.585C261.741 35.585 257.162 35.585 252.558 35.585C252.09 35.585 252.09 36.3082 252.558 36.3082Z" fill="#9A9AA3"/>
<path d="M261.275 31.972C259.33 30.5255 262.236 27.5121 263.59 29.3202C264.845 30.9595 262.802 32.9363 261.054 32.0202C260.635 31.8032 260.266 32.43 260.684 32.647C261.817 33.2497 263.319 33.0809 264.131 32.0443C264.968 31.0077 264.87 29.3684 263.811 28.5005C262.703 27.6085 261.128 28.2112 260.364 29.2237C259.552 30.3327 259.798 31.7791 260.906 32.5988C261.3 32.8639 261.645 32.2371 261.275 31.972Z" fill="#9A9AA3"/>
<path d="M258.935 35.5389C258.837 33.6344 261.225 32.9112 262.727 32.9112C264.573 32.9112 265.164 34.5264 265.927 35.9005C266.149 36.3104 266.789 35.9488 266.568 35.5389C266.05 34.6228 265.558 33.4175 264.696 32.7425C263.909 32.1398 262.924 32.1639 261.988 32.2603C260.265 32.4532 258.074 33.4898 258.197 35.5389C258.221 35.997 258.96 35.997 258.935 35.5389Z" fill="#9A9AA3"/>
<path d="M252.878 33.8019C253.42 32.8135 255.414 33.1992 256.153 33.5849C256.916 33.9947 257.359 34.6697 257.556 35.4894C257.655 35.9474 258.369 35.7546 258.27 35.2965C257.975 34.0429 257.088 33.0545 255.808 32.6447C254.725 32.3072 252.878 32.2831 252.263 33.4161C252.017 33.8501 252.657 34.2117 252.878 33.8019Z" fill="#9A9AA3"/>
<path d="M254.307 32.0194C253.495 31.9953 253.692 30.814 254.037 30.4042C254.48 29.8738 255.366 29.8015 255.883 30.3078C256.302 30.6935 256.425 31.4167 256.08 31.8748C255.834 32.2123 255.465 32.2846 255.071 32.2846C254.923 32.2846 254.307 32.3087 254.209 32.1882C253.938 31.8024 253.298 32.164 253.569 32.5498C253.864 32.9837 254.48 33.0078 254.972 33.0078C255.563 33.0319 256.129 32.8873 256.548 32.4533C257.336 31.6096 257.065 30.1872 256.129 29.5604C255.12 28.9096 253.717 29.2712 253.2 30.3319C252.756 31.2721 253.076 32.6944 254.307 32.7185C254.8 32.7667 254.8 32.0435 254.307 32.0194Z" fill="#9A9AA3"/>
<path d="M103.63 88.6472C104.787 89.5633 106.215 89.1776 107.298 88.2856C108.825 87.0561 109.588 84.9588 109.883 83.1025C110.647 78.3775 108.702 73.8935 107.938 69.3131C106.56 60.8032 110.351 51.6906 117.393 46.5799C120.815 44.0727 126.453 41.3968 125.123 36.2619C125 35.8039 124.286 35.9967 124.409 36.4548C125.665 41.3486 119.855 43.8316 116.679 46.1941C113.823 48.3397 111.508 51.112 109.859 54.2219C108.234 57.2353 107.249 60.5862 106.978 63.9854C106.658 68.1077 107.766 71.9408 108.677 75.9185C109.219 78.3292 109.563 80.8605 109.096 83.3195C108.874 84.4525 108.48 85.5615 107.865 86.5499C107.175 87.6106 105.526 89.2499 104.147 88.165C103.802 87.8517 103.261 88.3579 103.63 88.6472Z" fill="#9A9AA3"/>
<path d="M124.853 35.9732C122.071 36.0938 119.634 33.9723 119.782 31.1759C119.929 28.2589 123.45 25.5588 126.429 26.3303C129.088 27.0294 131.132 29.8982 130.467 32.5741C129.802 35.25 126.725 35.8286 124.361 36.2143C123.893 36.2866 124.09 36.9857 124.558 36.9134C127.611 36.4313 131.156 35.3705 131.353 31.7544C131.501 28.8133 128.817 25.6312 125.74 25.5106C122.49 25.366 119.215 27.9696 119.043 31.2C118.895 34.3821 121.677 36.8411 124.853 36.7206C125.321 36.6723 125.321 35.9491 124.853 35.9732Z" fill="#9A9AA3"/>
<path d="M121.209 34.095C122.39 31.1781 128.693 30.6959 129.432 34.1674C129.53 34.6254 130.244 34.4325 130.146 33.9745C129.235 29.7316 121.923 30.3584 120.495 33.9022C120.322 34.3361 121.036 34.5049 121.209 34.095Z" fill="#9A9AA3"/>
<path d="M124.903 30.8369C124.386 30.4753 124.189 29.7762 124.533 29.2458C124.927 28.5949 125.764 28.5226 126.404 28.8601C126.897 29.1253 126.995 29.728 126.7 30.186C126.331 30.7405 125.543 30.8128 124.927 30.6681C124.459 30.5717 124.262 31.2708 124.73 31.3673C125.715 31.5842 126.897 31.3673 127.389 30.4271C127.832 29.5833 127.512 28.5708 126.626 28.161C125.641 27.727 124.459 27.9199 123.893 28.8601C123.327 29.7521 123.696 30.861 124.533 31.4396C124.927 31.753 125.296 31.1262 124.903 30.8369Z" fill="#9A9AA3"/>
<path d="M135.341 23.4131C137.926 16.7112 145.361 13.288 152.28 12.8299C156.859 12.5165 161.438 13.2157 165.919 14.0594C170.154 14.8791 174.561 16.1809 178.894 16.0362C182.464 15.9157 186.132 14.4692 187.807 11.2147C188.028 10.8049 187.388 10.4433 187.167 10.8531C185.222 14.6139 180.741 15.5782 176.777 15.2648C172.148 14.9032 167.593 13.5532 163.039 12.8058C155.653 11.6005 147.774 11.4317 141.2 15.5059C138.221 17.3621 135.858 19.9657 134.602 23.2202C134.455 23.6541 135.169 23.847 135.341 23.4131Z" fill="#9A9AA3"/>
<path d="M190.787 10.8033C197.286 10.8033 203.811 10.8033 210.31 10.8033C210.778 10.8033 210.778 10.0801 210.31 10.0801C203.811 10.0801 197.286 10.0801 190.787 10.0801C190.294 10.0801 190.294 10.8033 190.787 10.8033Z" fill="#9A9AA3"/>
<path d="M190.515 10.0342C189.358 8.92523 190.613 7.04485 191.524 6.2011C192.632 5.14037 194.159 4.73055 195.636 5.30912C195.759 5.35734 196.005 5.28502 196.055 5.14037C196.941 3.11535 199.034 1.64481 201.323 1.74123C203.711 1.83766 205.73 3.5975 206.321 5.81538C206.37 6.03234 206.666 6.15288 206.863 6.03234C207.946 5.38145 209.054 6.15288 209.497 7.14128C209.891 8.05736 209.793 9.09398 209.694 10.0824C209.645 10.5404 210.384 10.5404 210.433 10.0824C210.58 8.63594 210.679 6.92432 209.497 5.81538C208.66 5.04394 207.503 4.80287 206.518 5.40555C206.69 5.47788 206.887 5.5502 207.06 5.62252C206.395 3.21178 204.278 1.28319 201.693 1.04212C199.034 0.77694 196.473 2.39213 195.439 4.77876C195.587 4.73055 195.71 4.65823 195.858 4.61001C193.888 3.83858 191.82 4.65823 190.54 6.24931C189.579 7.43057 188.742 9.33505 190.047 10.5645C190.343 10.8779 190.86 10.3717 190.515 10.0342Z" fill="#9A9AA3"/>
<path d="M204.524 13.5755C207.552 13.238 209.325 16.3478 209.793 18.855C210.285 21.4345 209.817 24.014 209.546 26.5935C209.128 30.4748 209.399 35.1516 213.166 37.4177C213.56 37.6587 213.953 37.0319 213.535 36.7909C208.389 33.7051 210.531 26.8345 210.728 22.1095C210.876 18.5175 209.423 12.3219 204.524 12.8523C204.056 12.9005 204.056 13.6237 204.524 13.5755Z" fill="#9A9AA3"/>
<path d="M217.251 33.3464C215.035 38.8188 212.844 44.2912 210.628 49.7395C210.456 50.1734 211.17 50.3662 211.342 49.9323C213.558 44.4599 215.749 38.9876 217.965 33.5393C218.138 33.1054 217.424 32.9366 217.251 33.3464Z" fill="#9A9AA3"/>
<path d="M217.596 33.8052C221.437 33.6124 225.253 33.7088 229.069 34.1427C228.946 33.9981 228.823 33.8293 228.724 33.6847C226.903 39.3981 225.425 45.1839 224.244 51.042C224.145 51.5 224.859 51.6929 224.958 51.2349C226.139 45.3768 227.641 39.591 229.438 33.8776C229.512 33.6365 229.315 33.4436 229.094 33.4195C225.278 32.9856 221.461 32.8892 217.621 33.082C217.128 33.1061 217.128 33.8293 217.596 33.8052Z" fill="#9A9AA3"/>
<path d="M210.802 50.4368C213.067 50.5332 215.308 50.6537 217.573 50.7984C219.764 50.9189 222.103 50.8707 224.171 51.6904C224.614 51.8591 224.811 51.16 224.368 50.9912C222.398 50.1957 220.158 50.2439 218.065 50.1234C215.652 49.9787 213.24 49.8582 210.802 49.7377C210.334 49.6894 210.334 50.4127 210.802 50.4368Z" fill="#9A9AA3"/>
<path d="M217.942 36.2161C220.305 36.2643 222.669 36.433 225.008 36.7464C225.476 36.8188 225.673 36.1196 225.205 36.0473C222.792 35.7098 220.379 35.517 217.942 35.4688C217.449 35.4688 217.449 36.192 217.942 36.2161Z" fill="#9A9AA3"/>
<path d="M217.228 37.8529C218.558 37.8047 219.887 37.8288 221.217 37.9493C221.684 37.9975 221.684 37.2743 221.217 37.2261C219.887 37.1056 218.558 37.0574 217.228 37.1297C216.76 37.1538 216.76 37.877 217.228 37.8529Z" fill="#9A9AA3"/>
<path d="M215.602 41.1085C218.433 40.9397 221.117 40.6986 223.899 41.3736C224.367 41.4942 224.564 40.7951 224.096 40.6745C221.24 39.9995 218.507 40.2165 215.602 40.3852C215.11 40.4094 215.11 41.1326 215.602 41.1085Z" fill="#9A9AA3"/>
<path d="M215.724 43.2278C217.349 43.1073 218.974 43.1073 220.598 43.2519C221.066 43.3001 221.066 42.5769 220.598 42.5287C218.974 42.3841 217.349 42.3841 215.724 42.5046C215.256 42.5528 215.231 43.276 215.724 43.2278Z" fill="#9A9AA3"/>
<path d="M214.444 46.026C216.66 45.8814 218.826 45.9537 221.017 46.243C221.485 46.3153 221.485 45.5921 221.017 45.5198C218.826 45.2305 216.635 45.1581 214.444 45.3028C213.976 45.3269 213.976 46.0501 214.444 46.026Z" fill="#9A9AA3"/>
<path d="M91.9377 13.6735C92.9226 14.9753 94.3505 15.5057 95.8031 16.1566C97.5265 16.928 99.1022 17.9646 100.382 19.3387C103.288 22.4004 104.248 26.5227 104.322 30.5969C104.494 38.2389 101.86 46.2425 105.405 53.4747C105.602 53.8846 106.242 53.523 106.045 53.1131C102.327 45.4952 105.627 36.9612 104.986 28.9576C104.716 25.4861 103.706 22.087 101.417 19.3869C100.333 18.1093 99.0038 17.0003 97.5265 16.1807C95.877 15.2646 93.735 14.8548 92.5779 13.3119C92.3071 12.9503 91.6669 13.3119 91.9377 13.6735Z" fill="#9A9AA3"/>
<path d="M83.5179 3.47655C82.8778 2.681 82.927 2.12653 83.6656 1.81314C83.9857 1.64439 84.3057 1.52385 84.675 1.45153C85.1428 1.3551 85.6599 1.33099 86.1523 1.3551C87.6295 1.42742 89.1313 1.81314 89.0574 3.57298C88.9836 5.64621 88.5897 7.69533 88.0726 9.69624C87.531 11.7454 86.8662 13.7463 86.1523 15.7472C86.0045 16.1811 85.8814 16.6874 85.6599 17.0972C85.2167 17.8445 84.5273 17.8204 83.7887 17.8204C82.8778 17.8204 81.7206 17.941 80.8343 17.6999C79.8495 17.4347 79.6279 16.4704 80.5881 15.8436C81.0312 15.5543 81.6467 15.5061 82.1638 15.5061C82.8285 15.5061 83.4194 15.6508 83.9857 15.2168C85.069 14.3972 85.2413 12.1793 85.4875 10.998C85.8568 9.28642 86.4723 7.18908 86.3492 5.45335C86.2507 4.12745 84.9212 4.07923 83.9611 3.52476C83.5425 3.28369 83.1732 3.91048 83.5917 4.15155C84.355 4.58548 85.4629 4.6337 85.6106 5.6221C85.783 6.77925 85.2905 8.34623 85.069 9.50339C84.8474 10.6123 84.6012 11.7213 84.3057 12.8061C84.0842 13.6257 83.9857 14.6141 82.8778 14.8311C82.4346 14.9275 81.893 14.7829 81.4252 14.8552C80.2434 15.024 79.0862 15.8436 79.2586 17.1454C79.4802 18.7847 81.4744 18.4954 82.7054 18.5436C84.2319 18.5919 85.7583 18.8088 86.4477 17.2177C87.3094 15.2409 87.9249 13.0713 88.5158 11.0221C89.1313 8.9007 89.5991 6.70693 89.7714 4.51316C89.9192 2.80154 89.993 1.42742 88.048 0.969382C86.3492 0.559557 84.0103 0.366698 82.6808 1.71671C81.7945 2.60868 82.0161 4.36852 83.5425 4.24798C83.9857 4.15155 83.9857 3.42833 83.5179 3.47655Z" fill="#9A9AA3"/>
<path d="M80.537 6.05635C80.5124 6.03225 80.4878 6.00814 80.4631 5.98403C80.3647 5.8876 80.2169 5.86349 80.0938 5.8876C79.3799 6.12867 79.109 7.26172 78.9121 7.88851C78.5674 9.04567 78.4935 10.2269 78.6659 11.4323C78.7151 11.8903 79.4537 11.8903 79.4045 11.4323C79.306 10.5885 79.2814 9.76889 79.4291 8.92513C79.503 8.4912 80.2662 6.80368 79.9954 6.56261C80.34 6.90011 80.8571 6.39386 80.537 6.05635Z" fill="#9A9AA3"/>
<path d="M78.0505 3.4037C75.7855 6.22426 74.3329 9.6234 75.2931 13.2395C75.4162 13.6975 76.1302 13.5047 76.0071 13.0466C75.1207 9.71983 76.4995 6.51355 78.5676 3.90995C78.863 3.54834 78.346 3.04209 78.0505 3.4037Z" fill="#9A9AA3"/>
<path d="M74.9477 0.149784C71.1808 4.99536 69.4082 11.1186 70.0483 17.1937C70.0975 17.6517 70.8361 17.6517 70.7869 17.1937C70.1714 11.2392 71.8702 5.28465 75.5878 0.511394C75.8587 0.149784 75.2185 -0.211826 74.9477 0.149784Z" fill="#9A9AA3"/>
<path d="M69.705 24.7884C67.8093 25.6804 66.0366 26.9099 64.6332 28.4527C63.2053 30.0438 62.7621 31.7554 62.5405 33.8287C62.0481 38.5778 60.2508 43.785 55.376 45.7859C54.9329 45.9547 55.1298 46.6538 55.573 46.485C59.463 44.894 61.728 41.2779 62.6882 37.3725C63.2545 35.034 62.9837 32.2617 64.2393 30.1644C65.5196 28.0188 67.8339 26.4518 70.0743 25.3911C70.5175 25.2224 70.1482 24.5956 69.705 24.7884Z" fill="#9A9AA3"/>
<path d="M44.9616 58.5895C43.3366 58.6377 41.4901 57.9627 40.8992 56.3234C40.2098 54.3948 41.6871 52.5144 43.2628 51.526C46.3157 49.5975 50.4273 48.8501 53.9726 48.8019C55.7699 48.7778 57.8133 48.8019 59.389 49.7421C61.4079 50.9475 61.7526 53.2136 60.1769 54.9252C57.7887 57.5288 53.6771 57.794 50.378 58.035C49.9102 58.0591 49.9102 58.7824 50.378 58.7583C53.6771 58.5172 57.3702 58.2279 60.0292 56.0582C62.4666 54.0814 62.6389 50.8028 59.783 49.0912C56.8285 47.3314 52.323 47.9099 49.1224 48.5849C46.0448 49.2358 41.8348 50.4171 40.456 53.527C39.0281 56.7091 41.7609 59.3609 45.0108 59.2645C45.454 59.2886 45.454 58.5654 44.9616 58.5895Z" fill="#9A9AA3"/>
<path d="M44.8369 58.877C44.2214 59.8413 43.6305 60.8056 43.015 61.7457C42.8181 62.0591 43.212 62.3966 43.532 62.252C45.0339 61.4565 46.6588 60.9502 48.1853 60.2511C49.0224 59.8895 49.8348 59.4555 50.6227 58.9734C50.8935 58.8046 51.2136 58.7082 51.2874 58.3707C51.3367 58.202 51.2382 57.9609 51.0412 57.9368C51.0166 57.9368 50.992 57.9368 50.9674 57.9127C50.795 57.8886 50.5488 57.9609 50.5242 58.1538C50.5242 58.1779 50.5242 58.1779 50.5242 58.202C50.4257 58.66 51.1397 58.8529 51.2382 58.3948C51.2382 58.3707 51.2382 58.3707 51.2382 58.3466C51.0905 58.4189 50.9427 58.5154 50.795 58.5877C50.8196 58.5877 50.8443 58.5877 50.8689 58.6118C50.795 58.4671 50.6965 58.3225 50.6227 58.1779C50.5488 58.4189 49.1701 58.9734 48.8746 59.1422C48.136 59.5279 47.3728 59.8413 46.585 60.1547C45.4278 60.6127 44.2953 61.0466 43.212 61.6252C43.3843 61.794 43.5567 61.9627 43.729 62.1315C44.3445 61.1672 44.9354 60.2029 45.5509 59.2627C45.7232 58.8529 45.0831 58.4913 44.8369 58.877Z" fill="#9A9AA3"/>
<path d="M45.6513 54.7043C45.6266 54.6561 45.6266 54.5596 45.7005 54.5596C45.8975 54.5596 45.6759 54.8007 45.6513 54.8248C45.5281 54.8971 45.1096 54.9936 45.1342 54.7525C45.1588 54.4632 45.7251 54.1498 45.8236 54.5837C45.8482 54.7043 45.7497 54.8489 45.6266 54.873C45.5528 54.8971 45.5035 54.8971 45.4543 54.8489C45.4297 54.8248 45.3804 54.8007 45.4297 54.8007C45.8975 54.8248 45.8975 54.1016 45.4297 54.0775C44.9373 54.0293 44.568 54.5355 44.6911 54.9936C44.8142 55.4516 45.3558 55.6927 45.799 55.5721C46.2421 55.4516 46.5868 55.0659 46.5868 54.6078C46.5868 54.1498 46.2175 53.7641 45.799 53.6677C44.888 53.4507 43.9278 54.7525 44.7157 55.4034C45.3558 55.9338 46.6361 55.4516 46.5622 54.5596C46.513 54.0775 45.9713 53.6918 45.4789 53.8605C44.9865 54.0293 44.7895 54.632 45.0357 55.0659C45.2327 55.4757 45.8728 55.1141 45.6513 54.7043Z" fill="#9A9AA3"/>
<path d="M51.091 54.0561C51.0664 53.9115 50.9925 53.7186 51.1402 53.5981C51.2141 53.5258 51.3372 53.5258 51.4357 53.5258C51.6819 53.574 51.6326 53.8392 51.4603 53.9597C51.3618 54.032 51.2633 54.032 51.1895 53.9356C51.1156 53.8392 51.1402 53.8151 51.2141 53.7669C51.2633 53.7427 51.1156 53.7669 51.2387 53.7427C51.5341 53.6945 51.0417 54.032 51.1156 53.791C50.9679 54.249 51.6819 54.4178 51.8296 53.9838C51.9527 53.5499 51.5341 53.116 51.091 53.1883C50.574 53.2847 50.4509 53.8874 50.7709 54.249C51.0664 54.5865 51.608 54.5142 51.8296 54.1285C52.0512 53.7427 51.9034 53.2365 51.4603 53.0918C51.0171 52.9472 50.5247 53.2124 50.4262 53.6463C50.3031 54.1285 50.6478 54.6106 51.1402 54.7311C52.0265 54.924 52.7652 53.7427 52.125 53.0918C51.805 52.7785 51.2879 52.7543 50.894 52.9231C50.3524 53.1883 50.3278 53.7427 50.4262 54.249C50.4509 54.707 51.1648 54.5142 51.091 54.0561Z" fill="#9A9AA3"/>
<path d="M56.5574 52.4371C56.6559 52.4371 56.7544 52.4612 56.8775 52.4612V52.4371C56.9021 52.413 56.9021 52.3648 56.9267 52.3407C56.9513 52.2925 57.0252 52.2443 57.0744 52.2202C57.1975 52.1719 57.3206 52.1719 57.3945 52.2925C57.493 52.4853 57.3206 52.847 57.0744 52.7023C56.9267 52.6059 56.9021 52.3648 57.1237 52.413C57.1729 52.413 57.1975 52.4371 57.2222 52.4612C57.2222 52.4612 57.2222 52.5095 57.2222 52.4612C57.2222 52.413 57.2222 52.4853 57.1975 52.4853C57.1237 52.5336 57.0991 52.5818 57.0252 52.5336C56.8529 52.413 56.6067 52.5095 56.5082 52.6541C56.4097 52.847 56.4836 53.0398 56.6313 53.1604C57.3453 53.6666 58.3055 52.6541 57.7392 51.9791C57.2222 51.3764 56.1142 51.7621 56.1635 52.5577C56.1881 52.9675 56.5082 53.3291 56.9021 53.4255C57.296 53.522 57.7146 53.3291 57.9361 52.9916C58.4286 52.2443 57.7392 51.2077 56.8282 51.4969C56.4097 51.6416 56.0404 52.0514 56.0896 52.5095C56.1389 53.0157 56.8775 53.2809 57.1483 52.7746C57.3945 52.3889 56.779 52.0273 56.5574 52.4371Z" fill="#9A9AA3"/>
<path d="M71.4277 31.4179C74.456 29.7786 77.0903 27.6089 79.2815 24.9812C79.577 24.6196 79.06 24.1134 78.7645 24.475C76.6226 27.0545 74.0374 29.1759 71.0584 30.7911C70.6398 31.0081 71.0091 31.6349 71.4277 31.4179Z" fill="#9A9AA3"/>
<path d="M108.259 32.0422C107.717 35.0797 107.496 38.1413 107.644 41.2271C107.668 41.6851 108.407 41.6851 108.382 41.2271C108.234 38.2137 108.431 35.2002 108.973 32.235C109.047 31.777 108.333 31.5841 108.259 32.0422Z" fill="#9A9AA3"/>
<path d="M104.491 102.509C104.491 98.8203 106.264 95.3248 109.292 93.1069C109.661 92.8417 109.292 92.2149 108.923 92.4801C105.673 94.8426 103.777 98.531 103.777 102.509C103.753 102.967 104.491 102.967 104.491 102.509Z" fill="#9A9AA3"/>
<path d="M145.731 199.853C146.125 203.324 146.741 207.133 147.725 211.255C149.055 216.824 150.754 221.694 152.453 225.792C151.985 226.202 150.581 227.287 148.513 227.431C147.208 227.528 146.174 227.214 145.583 226.997C144.697 223.984 143.835 220.85 143.048 217.596C141.423 210.894 140.241 204.505 139.379 198.551C141.521 198.985 143.638 199.419 145.731 199.853Z" fill="#1B1B1F"/>
<path d="M201.004 197.585C200.684 201.033 200.142 204.866 199.231 208.988C197.951 214.822 196.252 219.885 194.529 224.152C194.775 224.369 196.178 225.67 198.345 225.574C200.216 225.502 201.422 224.417 201.718 224.152C202.284 221.235 202.826 218.294 203.367 215.352C204.549 208.916 205.608 202.576 206.617 196.308C204.746 196.717 202.875 197.151 201.004 197.585Z" fill="#1B1B1F"/>
<path d="M156.983 187.969C157.549 191.658 158.214 195.466 158.977 199.372C160.085 205.037 161.341 210.437 162.67 215.548C162.104 215.885 160.971 216.44 159.42 216.536C158.115 216.609 157.081 216.319 156.491 216.102C155.752 212.679 155.038 209.208 154.324 205.736C153.019 199.3 151.813 192.959 150.656 186.691C152.773 187.101 154.866 187.535 156.983 187.969Z" fill="#1B1B1F"/>
<path d="M191.722 187.247C191.057 190.888 190.466 194.697 189.949 198.65C189.235 204.098 188.743 209.306 188.448 214.272C188.866 214.537 189.851 215.091 191.254 215.164C192.756 215.212 193.864 214.633 194.283 214.392C194.036 211.548 193.938 208.39 194.086 205.015C194.381 197.517 195.784 191.056 197.335 185.97C195.464 186.38 193.593 186.813 191.722 187.247Z" fill="#1B1B1F"/>
<path d="M235.473 106.583C239.781 114.104 236.457 122.421 228.382 143.081C224.492 153.014 217.377 171.263 207.332 197.275C197.459 200.795 181.111 205.134 160.898 203.76C149.154 202.964 139.306 200.481 131.846 197.926C130.738 195.973 126.897 188.668 129.778 181.581C131.378 177.651 134.603 174.831 141.448 171.504C148.194 168.225 160.085 163.621 177.369 162.777C170.598 129.774 182.194 102.726 200.241 96.482C212.083 92.4078 229.539 96.2409 235.473 106.583Z" fill="#F9F9F9" stroke="#1B1B1F" stroke-width="2"/>
<path d="M233.895 109.308C226.755 118.155 225.13 130.04 222.398 140.671C219.468 152.05 216.095 163.405 211.048 174.084C208.266 179.942 204.991 185.583 201.076 190.791C200.806 191.176 201.446 191.538 201.717 191.152C208.586 181.991 213.436 171.601 217.178 160.897C220.97 150.001 223.481 138.767 226.435 127.653C228.109 121.337 230.251 115.021 234.437 109.838C234.708 109.452 234.191 108.946 233.895 109.308Z" fill="#1B1B1F"/>
<path d="M131.993 192.695C148.415 198.601 166.314 200.337 183.597 197.709C188.546 196.962 193.445 195.853 198.246 194.407C198.689 194.262 198.517 193.563 198.049 193.707C181.308 198.77 163.335 199.541 146.199 195.974C141.447 194.985 136.745 193.635 132.19 191.996C131.747 191.827 131.55 192.526 131.993 192.695Z" fill="#1B1B1F"/>
<path d="M189.802 173.746C193.938 175.072 197.459 177.748 199.822 181.364C200.069 181.75 200.709 181.388 200.462 181.002C198 177.242 194.332 174.445 189.999 173.047C189.531 172.902 189.334 173.601 189.802 173.746Z" fill="#1B1B1F"/>
<path d="M115.746 204.963C117.716 207.856 119.685 210.773 121.63 213.666C109.025 224.756 107.4 227.914 108.335 228.685C110.206 230.204 123.625 223.454 125.003 222.755C130.001 220.247 133.768 217.813 136.279 216.077C135.393 213.714 134.211 211.063 132.586 208.266C130.444 204.578 128.081 201.468 125.84 198.937C122.467 200.913 119.094 202.938 115.746 204.963Z" fill="#1B1B1F"/>
<path d="M189.41 148.144C190.296 150.024 191.232 152.7 191.38 155.93C191.601 160.8 189.976 164.681 188.745 166.923C188.081 167.767 186.899 169.165 185.151 170.684C185.151 170.684 181.187 174.107 174.884 176.735C168.458 179.435 149.772 182.689 124.388 183.316C125.127 186.402 126.456 190.187 128.82 194.261C130.125 196.503 131.553 198.48 132.956 200.191C132.02 201.397 129.361 204.458 124.068 206.387C118.972 208.243 114.294 208.026 112.447 207.882C109.788 205.495 107.055 202.65 104.519 199.251C97.0596 189.198 95.3115 179.483 94.9915 173.239C96.838 171.938 99.5462 170.154 103.092 168.249C110.478 164.271 117.248 162.102 122.812 160.487C132.39 157.738 141.548 155.834 162.623 152.338C169.222 151.253 178.356 149.759 189.41 148.144Z" fill="#F9F9F9" stroke="#1B1B1F" stroke-width="2"/>
<path opacity="0.19" d="M166.022 152.29C165.308 156.895 163.289 162.873 157.036 166.586C150.954 170.202 145.858 168.731 133.671 171.624C124.906 173.698 113.31 176.446 110.085 182.545C106.712 188.958 113.088 197.998 124.241 205.423C125.177 205.302 126.359 205.061 127.614 204.579C130.84 203.326 132.415 201.276 133.006 200.384C131.578 198.697 130.101 196.744 128.747 194.502C126.186 190.308 124.808 186.402 124.02 183.244C137.068 182.714 148.024 181.605 156.346 180.544C166.367 179.266 173.309 177.989 179.932 174.324C185.472 171.263 187.688 168.249 188.476 167.092C190.864 163.548 191.061 160.318 191.159 158.51C191.405 154.098 189.928 150.506 188.697 148.24C181.139 149.59 173.58 150.94 166.022 152.29Z" fill="#9A9AA3"/>
<path opacity="0.19" d="M188.942 148.748C188.45 153.232 186.702 160.32 179.734 165.912C175.45 169.36 170.846 170.903 152.775 175.676C144.798 177.773 135.147 180.256 124.166 182.956C138.126 182.812 149.476 181.679 157.625 180.594C166.07 179.461 170.206 178.472 174.49 176.664C178.552 174.953 186.751 171.481 190.099 164.177C193.325 157.089 190.075 150.725 188.942 148.748Z" fill="#9A9AA3"/>
<path opacity="0.22" d="M124.24 183.315C124.142 186.498 124.289 190.138 124.905 194.14C125.496 198.093 126.456 201.637 127.49 204.723C128.327 204.241 129.287 203.59 130.223 202.794C131.355 201.83 132.192 200.914 132.808 200.118C131.38 198.286 129.927 196.165 128.573 193.778C126.382 189.921 125.077 186.353 124.24 183.315Z" fill="#9A9AA3"/>
<path d="M123.106 218.808C125.002 222.449 126.873 226.089 128.769 229.753C116.655 243.687 115.08 247.641 115.991 248.605C117.788 250.534 130.689 242.024 132.018 241.156C136.819 237.998 140.463 234.936 142.876 232.767C142.014 229.801 140.882 226.474 139.306 222.931C137.262 218.302 134.973 214.397 132.831 211.19C129.581 213.746 126.331 216.277 123.106 218.808Z" fill="#1B1B1F"/>
<path d="M193.914 147.399C194.776 149.786 195.662 153.113 195.81 157.187C196.032 163.31 194.456 168.18 193.274 171.001C192.634 172.061 191.501 173.821 189.827 175.75C189.827 175.75 186.036 180.065 179.979 183.368C173.799 186.743 155.827 190.865 131.453 191.636C132.167 195.518 133.422 200.267 135.712 205.378C136.968 208.198 138.346 210.681 139.7 212.827C138.814 214.346 136.254 218.179 131.157 220.613C126.258 222.952 121.777 222.687 119.98 222.47C117.419 219.48 114.785 215.888 112.372 211.621C105.183 198.989 103.509 186.767 103.213 178.932C104.986 177.317 107.596 175.051 110.993 172.664C118.108 167.674 124.584 164.925 129.951 162.9C139.134 159.453 147.973 157.066 168.235 152.655C174.489 151.281 183.303 149.424 193.914 147.399Z" fill="#F9F9F9" stroke="#1B1B1F" stroke-width="2"/>
<path opacity="0.19" d="M171.435 152.606C170.746 158.392 168.801 165.89 162.793 170.566C156.958 175.123 152.034 173.266 140.34 176.907C131.92 179.51 120.767 182.982 117.664 190.648C114.415 198.7 120.545 210.078 131.255 219.384C132.166 219.239 133.298 218.926 134.505 218.323C137.607 216.756 139.109 214.177 139.675 213.044C138.296 210.922 136.868 208.463 135.563 205.643C133.101 200.363 131.772 195.469 131.033 191.492C143.59 190.817 154.102 189.443 162.129 188.117C171.78 186.526 178.427 184.91 184.804 180.306C190.122 176.449 192.264 172.664 193.002 171.217C195.292 166.758 195.489 162.707 195.588 160.441C195.809 154.897 194.406 150.389 193.224 147.544C185.961 149.207 178.698 150.895 171.435 152.606Z" fill="#9A9AA3"/>
<path opacity="0.19" d="M193.446 148.148C192.979 153.765 191.304 162.685 184.608 169.725C180.471 174.064 176.064 175.992 158.707 181.995C151.026 184.647 141.768 187.757 131.206 191.156C144.624 190.963 155.556 189.565 163.385 188.191C171.51 186.768 175.498 185.539 179.585 183.273C183.5 181.103 191.354 176.764 194.603 167.555C197.681 158.635 194.554 150.656 193.446 148.148Z" fill="#9A9AA3"/>
<path opacity="0.22" d="M131.281 191.613C131.183 195.615 131.331 200.196 131.921 205.21C132.512 210.2 133.399 214.636 134.408 218.493C135.221 217.866 136.131 217.071 137.042 216.058C138.126 214.853 138.938 213.696 139.529 212.707C138.15 210.393 136.747 207.741 135.467 204.728C133.349 199.906 132.069 195.398 131.281 191.613Z" fill="#9A9AA3"/>
<path d="M121.704 109.929C121.236 109.712 120.3 109.303 120.325 108.845C120.374 108.097 122.91 107.591 124.806 107.615C126.086 107.615 128.45 107.88 131.207 109.761C128.622 110.556 124.806 111.279 121.704 109.929Z" fill="#F9F9F9" stroke="#1B1B1F" stroke-width="2"/>
<path d="M180.915 78.6634C176.237 78.0607 172.027 84.9313 171.634 85.5581C170.206 87.9447 170.033 89.5358 169.048 93.8992C166.66 104.531 165.38 109.931 161.835 113.185C158.634 116.102 154.892 116.801 153.907 116.946C149.697 117.597 145.881 116.054 138.445 112.944C132.167 110.316 131.404 109.352 127.982 108.966C126.234 108.773 121.137 108.219 117.764 111.425C115.598 113.474 114.638 116.753 115.425 117.428C116.435 118.296 120.571 115.234 120.62 115.307C120.645 115.355 119.389 115.933 118.355 117.187C117.838 117.79 116.952 119.091 117.272 119.429C117.838 120.104 121.31 116.006 125.126 116.729C127.736 117.211 128.228 119.525 131.256 119.959C133.029 120.224 134.58 119.694 135.565 119.236C137.288 121.068 140.095 123.672 144.157 125.793C146.57 127.047 155.089 131.362 165.503 128.855C176.558 126.203 182.122 117.741 183.87 115.09C184.855 113.571 192.093 102.24 188.597 89.5358C187.981 87.4867 185.741 79.2902 180.915 78.6634Z" fill="#F9F9F9" stroke="#1B1B1F" stroke-width="2"/>
<path opacity="0.25" d="M180.423 78.7373C178.822 79.557 181.925 85.2463 181.531 93.3946C181.161 101.229 177.739 107.015 176.213 109.667C174.145 113.211 171.412 117.839 165.971 120.853C158.658 124.903 149.598 124.3 143.148 121.552C141.227 120.732 139.282 118.081 135.048 116.465C133.201 115.766 131.748 115.477 130.05 115.139C125.889 114.344 122.196 113.621 118.774 115.308C117.149 116.128 115.795 117.381 115.893 117.55C115.991 117.719 117.887 116.779 119.561 115.887C117.543 118.514 117.222 119.262 117.37 119.406C117.543 119.551 118.158 118.997 119.734 118.129C121.433 117.213 122.664 116.562 124.165 116.682C124.929 116.755 125.52 116.996 125.864 117.14C127.218 117.719 127.538 118.394 128.892 119.069C129.73 119.479 130.419 119.647 130.788 119.72C131.576 119.889 133.201 120.106 135.343 119.358C137.214 121.287 145.807 129.821 158.388 129.652C164.863 129.556 169.614 127.193 171.486 126.253C181.752 121.022 185.839 111.74 186.873 109.185C190.074 101.278 191.206 89.5615 185.347 82.2088C183.943 80.4248 181.531 78.1828 180.423 78.7373Z" fill="#9A9AA3"/>
<path d="M115.867 117.427C116.827 116.029 118.083 114.92 119.585 114.125C119.905 113.956 119.609 113.498 119.314 113.667C117.738 114.51 116.409 115.692 115.399 117.162C115.178 117.451 115.67 117.717 115.867 117.427Z" fill="#1B1B1F"/>
<path d="M116.164 114.318C117.124 112.847 118.675 112.076 120.226 111.328C120.546 111.184 120.275 110.702 119.955 110.87C118.306 111.642 116.681 112.486 115.671 114.052C115.499 114.342 115.967 114.607 116.164 114.318Z" fill="#1B1B1F"/>
<path opacity="0.29" d="M187.488 87.415C187.119 89.8499 186.454 93.3696 185.272 97.516C182.958 105.713 180.865 113.089 175.4 118.947C168.629 126.18 159.446 128.156 154.177 128.759C158.092 129.651 161.169 129.482 163.114 129.217C177.886 127.192 185.863 111.643 188.03 104.845C188.399 103.639 189.187 101.156 189.285 97.7571C189.458 93.2249 188.325 89.5847 187.488 87.415Z" fill="#9A9AA3"/>
<path opacity="0.26" d="M125.616 116.441C127.02 117.116 128.94 117.864 131.304 118.298C133.175 118.635 134.849 118.707 136.179 118.659C132.806 120.419 131.058 120.202 130.073 119.624C129.457 119.262 128.768 118.539 126.872 117.261C126.355 116.899 125.912 116.61 125.616 116.441Z" fill="#9A9AA3"/>
<path d="M75.8352 156.076C75.8352 167.647 75.8352 179.243 75.8352 190.814C75.8352 192.213 78.051 192.213 78.051 190.814C78.051 179.243 78.051 167.647 78.051 156.076C78.051 154.702 75.8352 154.678 75.8352 156.076Z" fill="#171B2C"/>
<path d="M116.115 155.619C116.115 157.475 116.115 159.332 116.115 161.188C116.115 162.586 118.331 162.586 118.331 161.188C118.331 159.332 118.331 157.475 118.331 155.619C118.331 154.221 116.115 154.221 116.115 155.619Z" fill="#171B2C"/>
<path d="M45.2581 154.655C57.1989 143.638 69.1397 132.597 81.1052 121.58C100.432 121.918 119.734 122.255 139.061 122.593C135.91 133.296 132.758 143.976 129.607 154.679C101.491 154.655 73.3744 154.655 45.2581 154.655Z" fill="#F9F9F9" stroke="#1B1B1F" stroke-width="2"/>
<path d="M45.9716 155.909C67.5636 155.909 89.1309 155.909 110.723 155.909C116.779 155.909 122.811 155.909 128.868 155.909C130.296 155.909 130.296 153.739 128.868 153.739C107.276 153.739 85.7087 153.739 64.1167 153.739C58.0602 153.739 52.0282 153.739 45.9716 153.739C44.5436 153.739 44.5436 155.909 45.9716 155.909Z" fill="#171B2C"/>
<path d="M52.2991 155.546C52.2991 179.533 52.2991 203.519 52.2991 227.482C52.2991 234.208 52.2991 240.91 52.2991 247.636C52.2991 249.034 54.5149 249.034 54.5149 247.636C54.5149 223.649 54.5149 199.662 54.5149 175.699C54.5149 168.974 54.5149 162.272 54.5149 155.546C54.5149 154.148 52.2991 154.148 52.2991 155.546Z" fill="#171B2C"/>
<path d="M119.831 155.546C119.831 179.533 119.831 203.519 119.831 227.482C119.831 234.208 119.831 240.91 119.831 247.636C119.831 249.034 122.047 249.034 122.047 247.636C122.047 223.649 122.047 199.662 122.047 175.699C122.047 168.974 122.047 162.272 122.047 155.546C122.047 154.148 119.831 154.148 119.831 155.546Z" fill="#171B2C"/>
<path d="M53.4072 200.319C70.7891 200.319 88.171 200.319 105.553 200.319C110.477 200.319 115.401 200.319 120.325 200.319C121.753 200.319 121.753 198.149 120.325 198.149C102.943 198.149 85.5612 198.149 68.1793 198.149C63.2553 198.149 58.3312 198.149 53.4072 198.149C51.9792 198.149 51.9792 200.319 53.4072 200.319Z" fill="#171B2C"/>
<path d="M138.765 122.594C135.958 133.322 132.733 143.953 129.04 154.416C128.72 155.308 130.148 155.67 130.468 154.802C134.161 144.315 137.386 133.708 140.193 122.98C140.414 122.088 139.011 121.702 138.765 122.594Z" fill="#171B2C"/>
<path d="M20.8837 250C33.9571 250 47.0058 250 60.0792 250C61.5072 250 61.5072 247.83 60.0792 247.83C47.0058 247.83 33.9571 247.83 20.8837 247.83C19.4558 247.83 19.4558 250 20.8837 250Z" fill="#171B2C"/>
<path d="M65.5673 249.515C68.571 249.515 71.5993 249.515 74.603 249.515C76.0309 249.515 76.0309 247.346 74.603 247.346C71.5993 247.346 68.571 247.346 65.5673 247.346C64.1393 247.346 64.1393 249.515 65.5673 249.515Z" fill="#171B2C"/>
<path d="M104.763 249.83C116.531 249.83 128.3 249.83 140.093 249.83C141.521 249.83 141.521 247.66 140.093 247.66C128.324 247.66 116.556 247.66 104.763 247.66C103.335 247.66 103.335 249.83 104.763 249.83Z" fill="#171B2C"/>
<path d="M148.145 249.058C150.238 249.058 152.331 249.058 154.448 249.058C155.876 249.058 155.876 246.889 154.448 246.889C152.356 246.889 150.263 246.889 148.145 246.889C146.717 246.889 146.717 249.058 148.145 249.058Z" fill="#171B2C"/>
<path d="M9.01654 242.357C14.1129 242.357 19.2093 242.357 24.2811 242.357C25.7091 242.357 25.7091 240.188 24.2811 240.188C19.1847 240.188 14.0883 240.188 9.01654 240.188C7.58856 240.188 7.58856 242.357 9.01654 242.357Z" fill="#171B2C"/>
<path d="M116.708 150.095C101.518 149.709 86.3023 149.348 71.1116 148.962C80.1226 140.524 89.109 132.063 98.12 123.625C108.51 124.155 118.924 124.686 129.314 125.216C125.104 133.533 120.918 141.802 116.708 150.095Z" fill="#F9F9F9" stroke="#1B1B1F" stroke-width="2"/>
<path d="M97.6025 123.456C88.7639 131.822 79.9252 140.211 71.0865 148.576C70.6926 135.173 70.2741 121.745 69.8801 108.341C78.8419 102.796 87.8037 97.2517 96.7654 91.707C97.0116 102.29 97.3071 112.873 97.6025 123.456Z" fill="#F9F9F9" stroke="#1B1B1F" stroke-width="2"/>
<path d="M70.6919 109.62C71.4058 121.553 71.8736 133.51 72.1198 145.467C72.1198 145.708 72.4891 145.708 72.4891 145.467C72.2429 133.51 71.7751 121.553 71.0612 109.62C71.0365 109.403 70.6672 109.403 70.6919 109.62Z" fill="#1B1B1F"/>
<path d="M70.8899 109.666C79.1377 104.411 87.3855 99.1555 95.6333 93.9001C95.8302 93.7795 95.6579 93.4661 95.4363 93.5867C87.1885 98.8421 78.9407 104.097 70.6929 109.353C70.496 109.498 70.6683 109.811 70.8899 109.666Z" fill="#1B1B1F"/>
<path d="M95.5349 93.8766C95.5102 103.495 95.8057 113.138 96.4458 122.733C96.4704 122.974 96.8397 122.974 96.8151 122.733C96.1996 113.114 95.8795 103.495 95.9042 93.8766C95.9042 93.6596 95.5349 93.6596 95.5349 93.8766Z" fill="#1B1B1F"/>
<path d="M72.3672 145.973C80.4426 138.331 88.5427 130.689 96.6181 123.071C96.7904 122.903 96.5196 122.661 96.3473 122.806C88.2718 130.448 80.1718 138.09 72.0963 145.708C71.9486 145.877 72.1948 146.142 72.3672 145.973Z" fill="#1B1B1F"/>
<path d="M109.764 141.874C111.265 139.536 112.767 137.173 114.22 134.786C114.343 134.594 114.023 134.401 113.9 134.594C112.447 136.98 110.945 139.343 109.444 141.681C109.296 141.874 109.616 142.067 109.764 141.874Z" fill="#1B1B1F"/>
<path d="M114.122 134.716C116.067 134.788 118.012 134.788 119.957 134.692C120.204 134.692 120.204 134.33 119.957 134.33C118.012 134.402 116.067 134.402 114.122 134.354C113.876 134.354 113.876 134.716 114.122 134.716Z" fill="#1B1B1F"/>
<path d="M119.711 134.594C118.603 136.957 117.471 139.319 116.338 141.682C116.24 141.899 116.56 142.067 116.658 141.875C117.791 139.512 118.923 137.15 120.031 134.787C120.13 134.546 119.81 134.377 119.711 134.594Z" fill="#1B1B1F"/>
<path d="M109.642 142.068C111.808 142.381 114.098 142.236 116.289 142.14C116.536 142.14 116.536 141.778 116.289 141.778C114.147 141.875 111.882 142.019 109.74 141.73C109.494 141.682 109.396 142.043 109.642 142.068Z" fill="#1B1B1F"/>
<path d="M117.718 134.62C116.733 137.031 115.6 139.369 114.32 141.636C114.197 141.828 114.517 142.021 114.64 141.828C115.92 139.514 117.077 137.152 118.087 134.717C118.161 134.5 117.816 134.403 117.718 134.62Z" fill="#1B1B1F"/>
<path d="M82.0433 145.54C87.4598 138.983 93.0732 132.571 98.8589 126.303C99.0067 126.134 98.7605 125.869 98.5881 126.037C92.8024 132.281 87.1889 138.694 81.7725 145.275C81.6248 145.468 81.8956 145.709 82.0433 145.54Z" fill="#1B1B1F"/>
<path d="M88.5927 145.948C93.4429 139.319 98.5639 132.906 103.931 126.686C104.079 126.518 103.833 126.252 103.66 126.421C98.2685 132.665 93.1475 139.102 88.2727 145.755C88.1249 145.948 88.445 146.141 88.5927 145.948Z" fill="#1B1B1F"/>
<path d="M95.6332 146.936C99.8432 140.042 104.447 133.388 109.42 126.999C109.568 126.807 109.248 126.638 109.1 126.807C104.127 133.195 99.5232 139.849 95.3131 146.743C95.19 146.936 95.51 147.129 95.6332 146.936Z" fill="#1B1B1F"/>
<path d="M101.541 147.542C105.677 139.996 110.577 132.884 116.19 126.327C116.338 126.158 116.092 125.893 115.919 126.062C110.281 132.643 105.357 139.779 101.197 147.349C101.098 147.566 101.418 147.758 101.541 147.542Z" fill="#1B1B1F"/>
<path d="M85.1928 141.633C91.4956 140.982 97.7984 141.753 104.077 142.573C104.323 142.597 104.298 142.236 104.077 142.212C97.823 141.392 91.5202 140.596 85.1928 141.271C84.9712 141.295 84.9712 141.657 85.1928 141.633Z" fill="#1B1B1F"/>
<path d="M88.3705 138.114C94.3286 137.897 100.287 138.331 106.146 139.44C106.368 139.488 106.466 139.127 106.245 139.103C100.361 137.994 94.3533 137.56 88.3705 137.777C88.149 137.753 88.149 138.114 88.3705 138.114Z" fill="#1B1B1F"/>
<path d="M91.2259 134.714C96.9624 134.352 102.699 134.859 108.288 136.209C108.509 136.257 108.608 135.919 108.386 135.871C102.773 134.497 97.0117 133.991 91.2259 134.352C90.9797 134.376 90.9797 134.738 91.2259 134.714Z" fill="#1B1B1F"/>
<path d="M94.1811 131.314C99.696 131.338 105.162 131.893 110.554 132.978C110.775 133.026 110.874 132.664 110.652 132.64C105.236 131.555 99.7206 131.001 94.1811 130.977C93.9595 130.953 93.9595 131.314 94.1811 131.314Z" fill="#1B1B1F"/>
<path d="M97.1097 128.157C102.354 128.253 107.573 128.856 112.67 129.989C112.891 130.037 112.99 129.7 112.768 129.652C107.623 128.519 102.378 127.892 97.1097 127.82C96.8635 127.795 96.8635 128.157 97.1097 128.157Z" fill="#1B1B1F"/>
<path d="M113.999 131.823C111.587 135.294 109.199 138.766 106.786 142.237C106.663 142.43 106.983 142.623 107.106 142.43C109.519 138.959 111.907 135.487 114.32 132.016C114.467 131.799 114.147 131.63 113.999 131.823Z" fill="#1B1B1F"/>
<path d="M73.2288 126.566C76.3063 125.288 79.63 126.011 82.8799 125.963C85.6128 125.939 88.2225 125.191 90.5614 123.841C90.7584 123.721 90.586 123.408 90.3645 123.528C87.4839 125.191 84.431 125.722 81.1319 125.577C78.3744 125.457 75.6415 125.191 73.0318 126.276C72.8348 126.349 73.0072 126.662 73.2288 126.566Z" fill="#1B1B1F"/>
<path d="M81.5247 125.07C86.7934 122.153 89.2308 116.006 94.7211 113.426C94.9427 113.33 94.7457 113.017 94.5242 113.113C89.0092 115.717 86.5964 121.84 81.3277 124.757C81.1307 124.877 81.3031 125.191 81.5247 125.07Z" fill="#1B1B1F"/>
<path d="M88.222 107.882C87.3111 107.183 87.4588 106.05 87.9758 105.158C88.222 104.724 88.5913 104.266 89.0099 104.001C89.7731 103.519 90.4871 103.904 91.078 104.411C91.2503 104.555 91.5211 104.314 91.3488 104.145C90.1178 103.133 88.9606 103.229 87.9512 104.531C87.1387 105.592 86.7202 107.183 87.9512 108.147C88.1481 108.292 88.419 108.027 88.222 107.882Z" fill="#1B1B1F"/>
<path d="M164.047 90.261C157.301 97.5897 155.479 105.642 154.494 110.198C152.697 118.635 154.592 122.01 154.715 138.042C154.765 144.864 154.469 150.385 154.248 153.856C155.774 155.013 165.228 161.908 177.859 159.642C187.214 157.979 192.852 152.241 194.625 150.288C195.043 147.998 195.634 144.623 196.324 140.525C199.967 118.418 201.765 107.209 199.5 99.1808C198.146 94.3111 194.797 86.5967 185.294 78.6172C181.305 79.4368 171.728 81.944 164.047 90.261Z" fill="#455FCE"/>
<path opacity="0.19" d="M170.917 85.8249C173.256 92.6714 174.511 98.5295 175.25 102.821C177.195 114.175 180.125 131.195 171.877 147.684C169.242 152.94 166.165 156.797 163.998 159.184C166.854 159.835 172.517 160.727 179.263 159.015C187.289 156.99 192.312 152.434 194.38 150.36C195.98 141.392 197.26 133.702 198.245 127.699C199.944 117.14 200.338 113.934 200.165 109.426C199.968 103.64 199.698 97.5652 196.152 91.008C192.755 84.7401 187.978 80.9794 185.049 79.0508C182.66 79.4606 179.287 80.3285 175.718 82.3535C173.748 83.5106 172.148 84.7401 170.917 85.8249Z" fill="#9A9AA3"/>
<path opacity="0.18" d="M198.884 97.3262C198.44 97.3503 199.376 104.028 197.923 113.237C195.24 130.281 186.623 142.094 183.299 146.288C180.517 149.784 176.159 154.605 169.782 159.354C172.072 159.692 175.125 159.837 178.621 159.186C186.918 157.667 192.187 152.677 194.206 150.531C194.723 147.59 195.56 142.986 196.619 137.296C199.105 123.989 199.598 122.398 199.992 118.251C201.075 106.945 199.401 97.3262 198.884 97.3262Z" fill="#9A9AA3"/>
<path d="M120.672 115.233C120.204 114.92 119.268 114.341 119.367 113.859C119.564 113.088 122.395 112.967 124.439 113.305C125.817 113.522 128.329 114.221 130.963 116.656C128.009 117.066 123.749 117.186 120.672 115.233Z" fill="#F9F9F9" stroke="#1B1B1F" stroke-width="2"/>
<path d="M190.173 92.1395C185.224 90.7172 179.439 97.2503 178.922 97.8771C176.952 100.167 176.484 101.807 174.638 106.242C170.157 117.091 167.818 122.563 163.386 125.408C159.422 127.963 155.261 128.059 154.154 128.059C149.5 128.035 145.66 125.769 138.175 121.237C131.872 117.404 131.232 116.247 127.588 115.283C125.742 114.8 120.325 113.354 116.115 116.175C113.432 117.958 111.782 121.285 112.521 122.129C113.456 123.214 118.479 120.659 118.503 120.755C118.528 120.803 117.051 121.213 115.721 122.37C115.057 122.925 113.875 124.13 114.146 124.564C114.638 125.384 119.119 121.623 123.107 123.021C125.816 123.961 125.963 126.492 129.139 127.481C131.011 128.059 132.783 127.746 133.916 127.433C135.442 129.675 138.027 132.881 142.016 135.798C144.404 137.534 152.824 143.512 164.519 142.62C176.927 141.68 184.461 133.652 186.8 131.169C188.154 129.747 197.978 118.971 196.476 104.941C196.254 102.65 195.294 93.6342 190.173 92.1395Z" fill="#F9F9F9" stroke="#1B1B1F" stroke-width="2"/>
<path opacity="0.25" d="M189.631 92.1383C187.759 92.741 190.098 99.2741 188.203 107.832C186.405 116.053 181.678 121.597 179.536 124.129C176.656 127.528 172.889 131.964 166.463 134.23C157.846 137.267 148.17 135.122 141.695 131.144C139.775 129.939 138.15 126.829 133.841 124.394C131.97 123.333 130.468 122.803 128.671 122.152C124.338 120.609 120.448 119.211 116.484 120.44C114.588 121.019 112.889 122.128 112.988 122.321C113.086 122.538 115.277 121.839 117.247 121.188C114.613 123.623 114.12 124.37 114.243 124.563C114.391 124.756 115.179 124.249 117.025 123.623C119.044 122.923 120.448 122.465 122.073 122.851C122.885 123.044 123.476 123.406 123.845 123.623C125.199 124.442 125.421 125.238 126.75 126.178C127.563 126.756 128.302 127.046 128.695 127.19C129.508 127.504 131.231 128.01 133.669 127.576C135.343 129.939 143.098 140.401 156.713 142.33C163.73 143.318 169.27 141.631 171.461 140.932C183.476 137.123 189.557 128.01 191.132 125.479C196.007 117.668 199.331 105.47 194.308 96.6946C193.127 94.5008 190.911 91.7285 189.631 92.1383Z" fill="#9A9AA3"/>
<path d="M112.964 122.2C114.269 120.874 115.796 119.91 117.568 119.332C117.913 119.211 117.765 118.705 117.421 118.801C115.574 119.428 113.924 120.44 112.57 121.815C112.324 122.08 112.718 122.466 112.964 122.2Z" fill="#1B1B1F"/>
<path d="M113.851 118.973C115.155 117.551 116.977 116.997 118.799 116.49C119.144 116.394 118.996 115.863 118.652 115.96C116.756 116.514 114.835 117.117 113.481 118.588C113.21 118.853 113.604 119.214 113.851 118.973Z" fill="#1B1B1F"/>
<path opacity="0.29" d="M195.714 102.504C194.877 105.011 193.523 108.627 191.528 112.822C187.565 121.091 183.995 128.54 177.027 133.819C168.435 140.328 158.143 140.883 152.358 140.618C156.42 142.233 159.793 142.57 161.935 142.619C178.234 142.956 189.657 127.841 193.203 121.042C193.818 119.837 195.098 117.33 195.837 113.762C196.797 108.965 196.231 104.939 195.714 102.504Z" fill="#9A9AA3"/>
<path opacity="0.26" d="M123.699 122.78C125.078 123.72 127.023 124.829 129.51 125.697C131.479 126.372 133.277 126.71 134.705 126.879C130.741 128.156 128.894 127.65 127.934 126.879C127.343 126.396 126.728 125.504 124.881 123.841C124.413 123.383 123.995 123.021 123.699 122.78Z" fill="#9A9AA3"/>
<path d="M152.01 43.5204C151.74 45.0633 151.469 46.6062 151.247 48.2214C150.287 54.7786 149.893 60.9742 149.868 66.7358C151.223 66.5912 152.552 66.4465 153.906 66.326C153.758 67.6037 153.34 72.2805 156.393 76.9091C159.273 81.2726 163.41 82.8636 164.69 83.2976C164.542 85.6601 164.419 87.9985 164.271 90.361C166.93 88.0467 170.549 85.3226 175.153 82.8877C178.674 81.0315 181.998 79.7538 184.829 78.8859C181.653 75.0287 180.447 71.3885 179.93 69.2912C179.043 65.6751 179.216 62.5652 179.388 59.817C179.56 56.9964 179.979 54.658 180.348 53.0187C181.505 47.8598 178.477 39.6874 172.445 36.7463C166.487 33.8293 157.599 36.2882 152.01 43.5204Z" fill="#F9F9F9" stroke="#171B2C" stroke-width="2"/>
<path d="M153.34 66.4974C154.029 66.401 154.743 66.3286 155.433 66.2563C155.679 66.2322 155.679 65.8706 155.433 65.8947C154.694 65.967 153.98 66.0635 153.241 66.1599C153.02 66.1599 153.118 66.5215 153.34 66.4974Z" fill="#171B2C"/>
<path d="M175.547 47.2589C172.568 48.0062 172.026 50.5375 168.259 55.817C164.443 61.1689 162.03 64.5198 157.722 66.4725C154.94 67.7261 153.561 67.3886 152.33 69.0037C150.212 71.8002 151.64 76.4047 152.896 78.7672C154.349 81.4914 156.565 83.1307 158.386 84.4807C160.134 85.7584 161.735 86.6021 162.867 87.1084C161.661 85.3003 161.587 84.7459 161.735 84.5771C162.129 84.1914 163.803 86.2646 165.772 85.9994C166.339 85.9271 167.348 85.6137 169.589 82.1664C171.115 79.828 172.149 78.2128 172.838 75.8985C174.34 70.9323 172.223 69.5823 172.838 63.0492C172.937 62.0608 173.626 54.3224 176.433 53.8161C177.442 53.6233 178.477 54.4429 178.969 55.0697C180.003 56.3956 179.88 58.517 178.6 60.3492C179.018 60.0599 183.031 57.4081 182.982 53.0929C182.982 52.4179 182.957 49.9348 181.037 48.3196C178.846 46.4875 175.793 47.2107 175.547 47.2589Z" fill="#171B2C" stroke="#171B2C" stroke-width="2"/>
<ellipse cx="155.702" cy="56.4194" rx="1.03405" ry="1.80805" fill="#171B2C"/>
<ellipse cx="147.826" cy="57.268" rx="1.03405" ry="1.80805" fill="#171B2C"/>
<path d="M146.274 54.2987C146.939 53.5513 147.973 53.479 148.712 54.2022C149.056 54.5397 149.573 54.0094 149.229 53.696C148.219 52.7317 146.668 52.7558 145.733 53.7924C145.462 54.154 145.979 54.6603 146.274 54.2987Z" fill="#171B2C"/>
<path d="M154.349 53.0459C155.21 52.3468 156.343 52.4432 157.081 53.2388C157.402 53.5763 157.919 53.07 157.598 52.7325C156.564 51.6477 154.964 51.5995 153.807 52.5397C153.462 52.829 153.979 53.3352 154.349 53.0459Z" fill="#171B2C"/>
<path d="M151.173 46.3918C151.444 44.6561 152.133 41.8114 154.029 38.8703C154.694 37.8337 156.122 35.6399 158.387 34.1453C162.72 31.3247 169.392 31.5417 174.242 35.0131C178.994 38.4123 181.358 44.4873 180.323 50.5142C170.598 49.1642 160.898 47.79 151.173 46.3918Z" fill="#545DB5"/>
<path d="M135.269 46.6105C150.213 48.4909 165.182 50.3712 180.127 52.2275C181.53 52.3963 181.53 50.2266 180.127 50.0578C165.182 48.1775 150.213 46.2971 135.269 44.4408C133.865 44.248 133.865 46.4176 135.269 46.6105Z" fill="#171B2C"/>
<path d="M163.827 32.3855C167.668 33.2052 170.573 36.2427 171.066 39.8829C171.509 43.0651 170.081 46.2955 167.373 48.2723C171.632 48.8268 175.916 49.4053 180.175 49.9598C180.397 48.8509 180.594 47.1633 180.323 45.1865C179.683 40.5579 176.95 37.5927 176.064 36.7007C175.103 35.7365 171.706 32.5061 166.659 32.2168C165.502 32.1686 164.517 32.265 163.827 32.3855Z" fill="#545DB5"/>
</svg>
