<svg width="32" height="32" viewBox="0 0 32 32" fill="none" xmlns="http://www.w3.org/2000/svg">
<path d="M15.3145 12.4941C15.5341 11.8353 16.466 11.8353 16.6856 12.4941L17.9766 16.367C18.552 18.0933 19.9066 19.448 21.633 20.0234L25.5059 21.3144C26.1647 21.534 26.1647 22.4659 25.5059 22.6855L21.633 23.9765C19.9066 24.5519 18.552 25.9066 17.9766 27.6329L16.6856 31.5058C16.466 32.1647 15.5341 32.1647 15.3145 31.5058L14.0235 27.6329C13.448 25.9066 12.0934 24.552 10.3671 23.9765L6.49414 22.6855C5.83529 22.4659 5.83529 21.534 6.49414 21.3144L10.3671 20.0234C12.0934 19.448 13.448 18.0933 14.0235 16.367L15.3145 12.4941Z" fill="#1B1B1F"/>
<path d="M7.58868 2.29648C7.72046 1.90117 8.27961 1.90117 8.41138 2.29648L9.18594 4.6202C9.53121 5.656 10.344 6.4688 11.3798 6.81406L13.7035 7.58864C14.0988 7.72041 14.0988 8.27957 13.7035 8.41134L11.3798 9.18592C10.344 9.53118 9.53121 10.344 9.18594 11.3798L8.41138 13.7035C8.27961 14.0988 7.72046 14.0988 7.58868 13.7035L6.81409 11.3798C6.46882 10.344 5.65603 9.53119 4.62024 9.18592L2.29648 8.41134C1.90117 8.27957 1.90117 7.72041 2.29648 7.58864L4.62024 6.81406C5.65603 6.46879 6.46882 5.65601 6.81409 4.62022L7.58868 2.29648Z" fill="#1B1B1F"/>
<path d="M21.7258 0.197653C21.8136 -0.0658859 22.1864 -0.0658837 22.2743 0.197656L22.7906 1.7468C23.0208 2.43734 23.5627 2.9792 24.2532 3.20938L25.8024 3.72576C26.0659 3.81361 26.0659 4.18638 25.8024 4.27423L24.2532 4.79061C23.5627 5.02079 23.0208 5.56265 22.7906 6.25319L22.2743 7.80234C22.1864 8.06588 21.8136 8.06589 21.7258 7.80235L21.2094 6.25317C20.9792 5.56265 20.4374 5.02079 19.7468 4.79062L18.1977 4.27423C17.9341 4.18638 17.9341 3.81361 18.1977 3.72576L19.7468 3.20937C20.4374 2.9792 20.9792 2.43734 21.2094 1.74682L21.7258 0.197653Z" fill="#1B1B1F"/>
</svg>
