<svg width="95" height="100" viewBox="0 0 95 100" fill="none" xmlns="http://www.w3.org/2000/svg">
<path d="M72.9989 57.2236L78.6745 55.1263L25.5932 33.2638C24.6744 32.8078 23.3834 33.0814 23.3834 33.0814L19.8594 34.9622L72.9989 57.2236Z" fill="url(#paint0_linear_5864_73961)"/>
<path d="M35.2477 51.8079V94.2449C35.2477 96.9464 37.9809 98.7702 40.4117 97.6759L42.9704 96.4335C42.9704 96.4335 43.3309 84.3851 43.3309 81.6837V58.7269C43.3309 56.014 46.0641 54.2017 48.5065 55.2959L73.4886 66.307L73.0234 57.1995L20.7097 34.7784C20.7097 34.7784 19 34.3453 19 37.6509C19 40.7171 18.9884 41.9368 20.0002 42.5637L33.0496 48.377C34.3755 48.9697 35.2477 50.3147 35.2477 51.8079Z" fill="url(#paint1_linear_5864_73961)"/>
<path d="M51.6232 64.4503V72.2014C51.6232 73.1474 52.5187 73.7858 53.3212 73.4096L61.4509 69.5569C62.4162 69.1009 62.4162 67.6077 61.4509 67.1404L53.3212 63.2421C52.5187 62.8545 51.6232 63.4928 51.6232 64.4503Z" fill="url(#paint2_linear_5864_73961)"/>
<path d="M71.5786 72.8272L69.4386 71.9495C67.5429 71.1972 67.287 71.1288 65.5192 71.9495L43.6074 81.7409V87.2692L72.6835 73.5795C72.4393 73.249 72.0788 73.0894 71.5786 72.8272Z" fill="#455FCE"/>
<path d="M72.6864 73.5796L50.8328 83.8383C49.4023 84.4652 47.7507 83.029 47.7507 81.4446V57.4392V57.1884C47.7507 55.9687 48.5416 55.3418 49.6349 55.8206L46.1225 54.2134C44.6454 53.5408 42.959 54.6009 42.959 56.1967V96.4338L50.4374 92.7976C49.065 93.4017 64.9405 86.3004 70.8372 83.6559C72.1514 83.0746 72.9888 81.7524 72.9888 80.2934V77.0106V75.05C73.0121 74.2977 72.8958 73.8645 72.6864 73.5796Z" fill="url(#paint3_linear_5864_73961)"/>
<path d="M78.4768 64.6349L74.4992 66.3333C73.7199 66.6638 72.8477 66.1053 72.8477 65.2732V57.9325C72.8477 57.4538 73.15 57.032 73.6036 56.861L78.186 55.117C78.6629 54.9347 79.1746 55.288 79.1746 55.7896V63.5862C79.1863 64.0421 78.9071 64.4525 78.4768 64.6349Z" fill="url(#paint4_linear_5864_73961)"/>
<path d="M81.0013 65C92.8019 58.4586 93.3787 39.4719 81.5945 32.9011L26.6038 2.23873C15.1077 -4.17144 0.112998 4.09068 0.0965576 17.2089L0.0965567 77.1444C0.0801167 90.2626 13.9881 96.8806 25.5003 90.4991L53.2508 77.7495L81.0013 65Z" fill="#6F9AEB" fill-opacity="0.2"/>
<defs>
<linearGradient id="paint0_linear_5864_73961" x1="48.7646" y1="46.1715" x2="52.1995" y2="38.0839" gradientUnits="userSpaceOnUse">
<stop stop-color="#A9C9F9"/>
<stop offset="0.5788" stop-color="#758EE3"/>
<stop offset="1" stop-color="#4660CF"/>
</linearGradient>
<linearGradient id="paint1_linear_5864_73961" x1="32.8672" y1="87.4154" x2="46.6272" y2="48.8414" gradientUnits="userSpaceOnUse">
<stop stop-color="#455FCE"/>
<stop offset="0.260417" stop-color="#4D68D1"/>
<stop offset="0.5788" stop-color="#6888DB"/>
<stop offset="1" stop-color="#A9C9F9"/>
</linearGradient>
<linearGradient id="paint2_linear_5864_73961" x1="51.5212" y1="68.3226" x2="62.3066" y2="68.3226" gradientUnits="userSpaceOnUse">
<stop stop-color="#4660CF"/>
<stop offset="1" stop-color="#AAC5FA"/>
</linearGradient>
<linearGradient id="paint3_linear_5864_73961" x1="58.1078" y1="57.4535" x2="57.5972" y2="105.295" gradientUnits="userSpaceOnUse">
<stop stop-color="#6888DB"/>
<stop offset="0.604167" stop-color="#4660CF"/>
</linearGradient>
<linearGradient id="paint4_linear_5864_73961" x1="72.9242" y1="60.3575" x2="78.2406" y2="61.0236" gradientUnits="userSpaceOnUse">
<stop stop-color="#A9C4F9"/>
<stop offset="0.7376" stop-color="#94ADEF"/>
<stop offset="1" stop-color="#8BA6EB"/>
</linearGradient>
</defs>
</svg>
