<svg width="18" height="17" viewBox="0 0 18 17" fill="none" xmlns="http://www.w3.org/2000/svg">
<path d="M9.00083 13.6857L9.25908 13.8419L13.4091 16.3519L13.4092 16.352C13.7888 16.5818 14.2536 16.2443 14.1533 15.813L13.0534 11.0932L12.9849 10.7994L13.2129 10.6019L16.8829 7.42189L16.8831 7.42174C17.2198 7.13024 17.0356 6.58279 16.6007 6.54819L16.598 6.54798L11.768 6.13797L11.4676 6.11247L11.3499 5.83486L9.45995 1.37485L9.45928 1.37329C9.29081 0.971926 8.70982 0.971926 8.54135 1.37329L8.54053 1.37523L6.65053 5.82523L6.53277 6.10249L6.23261 6.12797L1.40261 6.53797L1.39996 6.5382L1.39996 6.53819C0.965053 6.57279 0.780836 7.12024 1.11757 7.41174L1.11774 7.41189L4.78774 10.5919L5.01574 10.7894L4.94727 11.0833L3.84732 15.803L9.00083 13.6857ZM9.00083 13.6857L8.74231 13.8415M9.00083 13.6857L8.74231 13.8415M8.74231 13.8415L4.59231 16.3415L4.59142 16.342M8.74231 13.8415L4.59142 16.342M4.59142 16.342C4.21186 16.5717 3.7472 16.2344 3.84727 15.8033L4.59142 16.342Z" stroke="#9A9AA3"/>
</svg>
