<svg width="14" height="14" viewBox="0 0 14 14" fill="none" xmlns="http://www.w3.org/2000/svg">
<path d="M12.7142 7.95245H7.9523V12.7144C7.9523 13.2382 7.52373 13.6667 6.99992 13.6667C6.47611 13.6667 6.04754 13.2382 6.04754 12.7144V7.95245H1.28563C0.761823 7.95245 0.333252 7.52388 0.333252 7.00007C0.333252 6.47626 0.761823 6.04769 1.28563 6.04769H6.04754V1.28579C6.04754 0.761976 6.47611 0.333405 6.99992 0.333405C7.52373 0.333405 7.9523 0.761976 7.9523 1.28579V6.04769H12.7142C13.238 6.04769 13.6666 6.47626 13.6666 7.00007C13.6666 7.52388 13.238 7.95245 12.7142 7.95245Z" fill="black"/>
</svg>
