<svg width="18" height="18" viewBox="0 0 18 18" fill="none" xmlns="http://www.w3.org/2000/svg">
<path d="M17.1713 7.36788H16.5001V7.33329H9.00008V10.6666H13.7097C13.0226 12.607 11.1763 14 9.00008 14C6.23883 14 4.00008 11.7612 4.00008 8.99996C4.00008 6.23871 6.23883 3.99996 9.00008 3.99996C10.2747 3.99996 11.4342 4.48079 12.3172 5.26621L14.6742 2.90913C13.1859 1.52204 11.1951 0.666626 9.00008 0.666626C4.398 0.666626 0.666748 4.39788 0.666748 8.99996C0.666748 13.602 4.398 17.3333 9.00008 17.3333C13.6022 17.3333 17.3334 13.602 17.3334 8.99996C17.3334 8.44121 17.2759 7.89579 17.1713 7.36788Z" fill="#FFC107"/>
</svg>
