<svg width="321" height="426" viewBox="0 0 321 426" fill="none"
    xmlns="http://www.w3.org/2000/svg">
    <path d="M8.04932 374.848H0.372192V368.93H21.8042V374.848H13.9138V406.25H8.04932V374.848ZM43.0946 389.829H31.8454V406.25H25.9809V368.93H31.8454V384.231H43.0946V368.93H48.9057V406.25H43.0946V389.829ZM57.3234 368.93H75.1301V374.795H63.1879V384.231H70.4918L68.8391 389.829H63.1879V400.918H75.0234V406.25H57.3234V368.93ZM96.944 368.93H102.808V400.865H116.19V406.25H96.944V368.93ZM120.425 368.93H138.231V374.795H126.289V384.231H133.593L131.94 389.829H126.289V400.918H138.125V406.25H120.425V368.93ZM149.312 395.853C149.49 397.417 150.13 398.679 151.232 399.639C152.333 400.598 153.773 401.078 155.55 401.078C157.043 401.078 158.251 400.829 159.175 400.332C160.135 399.834 160.828 399.23 161.255 398.519C161.681 397.808 161.894 397.115 161.894 396.44C161.894 394.876 161.503 393.579 160.721 392.548C159.975 391.482 159.033 390.646 157.896 390.042C156.794 389.402 155.283 388.674 153.364 387.856C151.267 386.968 149.597 386.168 148.353 385.457C147.144 384.711 146.096 383.716 145.207 382.472C144.354 381.192 143.928 379.575 143.928 377.62C143.928 376.056 144.372 374.581 145.261 373.195C146.149 371.774 147.5 370.618 149.312 369.73C151.125 368.841 153.346 368.397 155.977 368.397C157.718 368.397 159.158 368.521 160.295 368.77C161.432 369.019 162.587 369.428 163.76 369.996L161.894 375.541C160.615 375.114 159.566 374.812 158.749 374.635C157.967 374.457 157.061 374.368 156.03 374.368C154.004 374.368 152.511 374.724 151.551 375.434C150.592 376.145 150.165 377.052 150.272 378.153C150.379 379.042 150.912 379.806 151.871 380.446C152.867 381.086 154.395 381.868 156.456 382.792C158.873 383.858 160.881 384.871 162.481 385.83C164.08 386.79 165.449 388.105 166.586 389.776C167.759 391.446 168.345 393.49 168.345 395.907C168.345 399.07 167.297 401.682 165.2 403.744C163.103 405.805 159.904 406.836 155.603 406.836C152.973 406.836 150.716 406.356 148.833 405.396C146.984 404.401 145.563 403.14 144.567 401.611C143.608 400.047 143.092 398.43 143.021 396.76L149.312 395.853ZM179.197 395.853C179.375 397.417 180.014 398.679 181.116 399.639C182.218 400.598 183.658 401.078 185.435 401.078C186.927 401.078 188.136 400.829 189.06 400.332C190.02 399.834 190.713 399.23 191.139 398.519C191.566 397.808 191.779 397.115 191.779 396.44C191.779 394.876 191.388 393.579 190.606 392.548C189.86 391.482 188.918 390.646 187.78 390.042C186.679 389.402 185.168 388.674 183.249 387.856C181.152 386.968 179.481 386.168 178.237 385.457C177.029 384.711 175.98 383.716 175.092 382.472C174.239 381.192 173.812 379.575 173.812 377.62C173.812 376.056 174.257 374.581 175.145 373.195C176.034 371.774 177.384 370.618 179.197 369.73C181.01 368.841 183.231 368.397 185.861 368.397C187.603 368.397 189.042 368.521 190.18 368.77C191.317 369.019 192.472 369.428 193.645 369.996L191.779 375.541C190.499 375.114 189.451 374.812 188.633 374.635C187.852 374.457 186.945 374.368 185.914 374.368C183.889 374.368 182.396 374.724 181.436 375.434C180.477 376.145 180.05 377.052 180.157 378.153C180.263 379.042 180.796 379.806 181.756 380.446C182.751 381.086 184.28 381.868 186.341 382.792C188.758 383.858 190.766 384.871 192.365 385.83C193.965 386.79 195.333 388.105 196.471 389.776C197.643 391.446 198.23 393.49 198.23 395.907C198.23 399.07 197.181 401.682 195.084 403.744C192.987 405.805 189.789 406.836 185.488 406.836C182.858 406.836 180.601 406.356 178.717 405.396C176.869 404.401 175.447 403.14 174.452 401.611C173.492 400.047 172.977 398.43 172.906 396.76L179.197 395.853ZM226.568 396.387C226.568 399.976 225.467 402.624 223.263 404.33C221.095 406.001 218.483 406.836 215.426 406.836C213.507 406.836 211.694 406.498 209.988 405.823C208.282 405.112 206.878 403.975 205.776 402.411C204.71 400.847 204.177 398.839 204.177 396.387V379.22C204.177 375.559 205.172 372.786 207.162 370.903C209.188 369.019 211.961 368.077 215.479 368.077C218.998 368.077 221.717 369.072 223.636 371.063C225.591 373.053 226.568 375.79 226.568 379.273V396.387ZM220.704 381.192C220.704 379.699 220.58 378.473 220.331 377.514C220.082 376.554 219.567 375.808 218.785 375.274C218.003 374.706 216.865 374.421 215.373 374.421C213.88 374.421 212.742 374.688 211.961 375.221C211.179 375.754 210.663 376.501 210.414 377.46C210.166 378.384 210.041 379.611 210.041 381.139V395.374C210.041 397.08 210.468 398.43 211.321 399.425C212.209 400.385 213.56 400.865 215.373 400.865C217.043 400.865 218.34 400.349 219.265 399.319C220.224 398.288 220.704 396.937 220.704 395.267V381.192ZM240.101 381.032V406.25H234.236V368.93H240.101L254.549 393.987V368.93H260.467V406.25H254.549L240.101 381.032ZM268.911 368.93H286.718V374.795H274.775V384.231H282.079L280.427 389.829H274.775V400.918H286.611V406.25H268.911V368.93ZM307.342 395.853H299.558V406.25H293.693V368.93H306.329C308.674 368.93 310.629 369.517 312.193 370.689C313.757 371.827 314.912 373.355 315.658 375.274C316.44 377.194 316.831 379.308 316.831 381.619C316.831 383.36 316.76 384.871 316.618 386.15C316.476 387.43 316.103 388.763 315.499 390.149C314.93 391.535 314.006 392.779 312.726 393.881L316.885 406.25H310.914L307.342 395.853ZM304.942 390.255C306.684 390.255 307.964 389.811 308.781 388.923C309.634 387.999 310.149 386.95 310.327 385.777C310.54 384.604 310.647 383.218 310.647 381.619C310.647 379.735 310.38 378.313 309.847 377.354C309.314 376.358 308.568 375.701 307.608 375.381C306.648 375.026 305.405 374.848 303.876 374.848H299.558V390.255H304.942Z" fill="black"/>
    <path d="M57.1548 65.5767H97.9611V177.974L57.1548 214.079V65.5767Z" fill="#1C6373"/>
    <path d="M106.092 188.834H208.289V222.989H67.7344L106.092 188.834Z" fill="#34BBD9"/>
    <path d="M98.2473 50.1533V21.947L65.1089 50.1533H98.2473Z" fill="#3AD0F2"/>
    <path d="M223.003 189.536V217.743L256.142 189.536H223.003Z" fill="#3DDBFF"/>
    <path d="M264.471 17.3679H113.31V173.968H264.471V17.3679Z" fill="#D1D1D1"/>
    <path d="M164.346 123.142H162.397" stroke="black" stroke-width="16.0111"/>
    <path d="M272.001 15.6431C272.001 12.2967 269.289 9.58398 265.942 9.58398H111.837C108.491 9.58398 105.778 12.2967 105.778 15.6431V175.693C105.778 179.04 108.491 181.752 111.837 181.752H265.942C269.289 181.752 272.001 179.04 272.001 175.693V15.6431Z" stroke="black" stroke-width="16.0111"/>
    <path d="M215.472 67.0264C215.472 62.0069 211.403 57.9377 206.383 57.9377H58.3367C53.3172 57.9377 49.248 62.0069 49.248 67.0264V220.834C49.248 225.854 53.3172 229.923 58.3367 229.923H206.383C211.403 229.923 215.472 225.854 215.472 220.834V67.0264Z" stroke="black" stroke-width="16.0111"/>
    <path d="M264.471 17.3679H113.31V173.968H264.471V17.3679Z" fill="#56CCF2"/>
    <path d="M51.1088 61.1218L108.54 10.6311" stroke="black" stroke-width="16.0111" stroke-linecap="round"/>
    <path d="M49.5977 230.414L111.563 175.469" stroke="black" stroke-width="16.0111"/>
    <path d="M212.823 227.444L270.254 179.923" stroke="black" stroke-width="16.0111" stroke-linecap="round"/>
    <path d="M156.732 81.4878H139.727V98.9315H156.732V81.4878Z" fill="black"/>
    <path d="M156.732 62.458H139.727V80.0338H156.732V62.458Z" fill="black"/>
    <path d="M175.016 62.458H158.139V80.0338H175.016V62.458Z" fill="black"/>
    <path d="M119.909 62.458H103.032V80.0338H119.909V62.458Z" fill="black"/>
    <path d="M193.427 62.458H176.55V80.0338H193.427V62.458Z" fill="black"/>
    <path d="M138.321 62.458H121.443V80.0338H138.321V62.458Z" fill="black"/>
    <path d="M156.732 119.414H139.727V136.99H156.732V119.414Z" fill="black"/>
    <path d="M156.732 100.517H139.727V117.961H156.732V100.517Z" fill="black"/>
    <path d="M156.732 138.443H139.727V155.887H156.732V138.443Z" fill="black"/>
    <path d="M156.732 157.474H139.727V174.917H156.732V157.474Z" fill="black"/>
    <path d="M228.566 7.66089H211.662V25.1321H228.566V7.66089Z" fill="black"/>
    <path d="M228.566 45.686H211.662V63.1573H228.566V45.686Z" fill="black"/>
    <path d="M228.566 83.7122H211.662V101.183H228.566V83.7122Z" fill="black"/>
    <path d="M228.566 26.6738H211.662V44.145H228.566V26.6738Z" fill="black"/>
    <path d="M228.566 64.6992H211.662V82.1704H228.566V64.6992Z" fill="black"/>
    <path d="M228.566 102.724H211.662V120.196H228.566V102.724Z" fill="black"/>
    <path d="M246.96 102.724H230.056V120.196H246.96V102.724Z" fill="black"/>
    <path d="M265.357 102.724H248.453V120.196H265.357V102.724Z" fill="black"/>
    <path d="M85.3013 298.104L85.3013 306.755C85.3013 308.782 86.9452 310.426 88.973 310.426L97.6235 310.426C99.6514 310.426 101.295 308.782 101.295 306.755L101.295 298.104C101.295 296.076 99.6514 294.432 97.6235 294.432L88.973 294.432C86.9452 294.432 85.3013 296.076 85.3013 298.104Z" fill="black"/>
    <path d="M209.255 287.441L209.255 300.09C209.255 302.118 210.899 303.762 212.927 303.762L225.576 303.762C227.604 303.762 229.247 302.118 229.247 300.09L229.247 287.441C229.247 285.414 227.604 283.77 225.576 283.77L212.927 283.77C210.899 283.77 209.255 285.414 209.255 287.441Z" fill="black"/>
    <path d="M165.271 272.78L165.271 280.098C165.271 282.126 166.915 283.77 168.943 283.77L176.261 283.77C178.289 283.77 179.933 282.126 179.933 280.098L179.933 272.78C179.933 270.752 178.289 269.108 176.261 269.108L168.943 269.108C166.915 269.108 165.271 270.752 165.271 272.78Z" fill="black"/>
    <path d="M200.591 261.111C202.432 261.111 203.923 259.62 203.923 257.779C203.923 255.939 202.432 254.447 200.591 254.447C198.751 254.447 197.259 255.939 197.259 257.779C197.259 259.62 198.751 261.111 200.591 261.111Z" fill="black"/>
    <path d="M124.62 275.773C126.46 275.773 127.952 274.281 127.952 272.441C127.952 270.6 126.46 269.109 124.62 269.109C122.78 269.109 121.288 270.6 121.288 272.441C121.288 274.281 122.78 275.773 124.62 275.773Z" fill="black"/>
    <path d="M160.607 334.417C162.447 334.417 163.939 332.926 163.939 331.085C163.939 329.245 162.447 327.753 160.607 327.753C158.766 327.753 157.274 329.245 157.274 331.085C157.274 332.926 158.766 334.417 160.607 334.417Z" fill="black"/>
    <path d="M155.275 215.795C157.116 215.795 158.608 214.303 158.608 212.463C158.608 210.623 157.116 209.131 155.275 209.131C153.435 209.131 151.943 210.623 151.943 212.463C151.943 214.303 153.435 215.795 155.275 215.795Z" fill="black"/>
    <path d="M120.01 222.375L120.01 231.51C120.01 233.538 121.654 235.182 123.682 235.182L132.86 235.182C134.888 235.182 136.532 233.538 136.532 231.51L136.532 222.375C136.532 220.347 134.888 218.703 132.86 218.703L123.682 218.703C121.654 218.703 120.01 220.347 120.01 222.375Z" fill="black"/>
</svg>
