<svg width="137" height="180" viewBox="0 0 137 180" fill="none"
    xmlns="http://www.w3.org/2000/svg">
    <path d="M3.30017 160.529H0.00602722V157.99H9.20218V160.529H5.81653V174.003H3.30017V160.529ZM18.3376 166.958H13.5107V174.003H10.9944V157.99H13.5107V164.556H18.3376V157.99H20.8311V174.003H18.3376V166.958ZM24.443 157.99H32.0835V160.507H26.9593V164.556H30.0933L29.3842 166.958H26.9593V171.716H32.0378V174.003H24.443V157.99ZM41.4436 157.99H43.9599V171.693H49.7018V174.003H41.4436V157.99ZM51.5189 157.99H59.1594V160.507H54.0352V164.556H57.1692L56.4601 166.958H54.0352V171.716H59.1137V174.003H51.5189V157.99ZM63.9141 169.543C63.9903 170.214 64.2648 170.755 64.7376 171.167C65.2104 171.579 65.828 171.784 66.5906 171.784C67.2311 171.784 67.7496 171.678 68.1461 171.464C68.5579 171.251 68.8553 170.991 69.0383 170.686C69.2213 170.381 69.3128 170.084 69.3128 169.794C69.3128 169.123 69.1451 168.567 68.8095 168.124C68.4893 167.667 68.0851 167.308 67.5971 167.049C67.1243 166.775 66.4762 166.462 65.6527 166.111C64.7529 165.73 64.0361 165.387 63.5023 165.082C62.9838 164.762 62.5339 164.334 62.1526 163.801C61.7866 163.252 61.6036 162.558 61.6036 161.719C61.6036 161.048 61.7942 160.415 62.1755 159.82C62.5568 159.21 63.1363 158.715 63.9141 158.333C64.6919 157.952 65.645 157.761 66.7736 157.761C67.5209 157.761 68.1385 157.815 68.6265 157.922C69.1146 158.028 69.6102 158.204 70.1135 158.448L69.3128 160.827C68.7638 160.644 68.3139 160.514 67.9631 160.438C67.6276 160.362 67.2387 160.324 66.7965 160.324C65.9272 160.324 65.2866 160.476 64.8749 160.781C64.4631 161.086 64.2801 161.475 64.3258 161.948C64.3716 162.329 64.6004 162.657 65.0121 162.931C65.4391 163.206 66.0949 163.541 66.9795 163.938C68.0165 164.395 68.8782 164.83 69.5644 165.242C70.2507 165.654 70.8379 166.218 71.3259 166.935C71.8292 167.652 72.0808 168.528 72.0808 169.565C72.0808 170.923 71.6309 172.044 70.7311 172.928C69.8313 173.813 68.4588 174.255 66.6134 174.255C65.4849 174.255 64.5165 174.049 63.7082 173.637C62.9152 173.21 62.3051 172.669 61.8781 172.013C61.4663 171.342 61.2452 170.648 61.2147 169.931L63.9141 169.543ZM76.7371 169.543C76.8134 170.214 77.0879 170.755 77.5607 171.167C78.0335 171.579 78.6511 171.784 79.4136 171.784C80.0542 171.784 80.5727 171.678 80.9692 171.464C81.381 171.251 81.6784 170.991 81.8614 170.686C82.0444 170.381 82.1359 170.084 82.1359 169.794C82.1359 169.123 81.9681 168.567 81.6326 168.124C81.3123 167.667 80.9082 167.308 80.4202 167.049C79.9474 166.775 79.2993 166.462 78.4757 166.111C77.5759 165.73 76.8592 165.387 76.3254 165.082C75.8069 164.762 75.357 164.334 74.9757 163.801C74.6097 163.252 74.4267 162.558 74.4267 161.719C74.4267 161.048 74.6173 160.415 74.9986 159.82C75.3798 159.21 75.9594 158.715 76.7371 158.333C77.5149 157.952 78.4681 157.761 79.5966 157.761C80.3439 157.761 80.9616 157.815 81.4496 157.922C81.9376 158.028 82.4333 158.204 82.9365 158.448L82.1359 160.827C81.5869 160.644 81.137 160.514 80.7862 160.438C80.4507 160.362 80.0618 160.324 79.6195 160.324C78.7502 160.324 78.1097 160.476 77.6979 160.781C77.2862 161.086 77.1032 161.475 77.1489 161.948C77.1947 162.329 77.4234 162.657 77.8352 162.931C78.2622 163.206 78.918 163.541 79.8025 163.938C80.8396 164.395 81.7012 164.83 82.3875 165.242C83.0738 165.654 83.661 166.218 84.149 166.935C84.6522 167.652 84.9039 168.528 84.9039 169.565C84.9039 170.923 84.454 172.044 83.5542 172.928C82.6544 173.813 81.2818 174.255 79.4365 174.255C78.308 174.255 77.3396 174.049 76.5313 173.637C75.7382 173.21 75.1282 172.669 74.7012 172.013C74.2894 171.342 74.0683 170.648 74.0378 169.931L76.7371 169.543ZM97.0635 169.771C97.0635 171.312 96.5908 172.448 95.6452 173.18C94.7149 173.897 93.594 174.255 92.2825 174.255C91.4589 174.255 90.6811 174.11 89.9491 173.82C89.2171 173.515 88.6147 173.027 88.1419 172.356C87.6844 171.685 87.4556 170.824 87.4556 169.771V162.405C87.4556 160.834 87.8826 159.645 88.7367 158.837C89.606 158.028 90.7955 157.624 92.3053 157.624C93.8152 157.624 94.9818 158.051 95.8054 158.905C96.6442 159.759 97.0635 160.934 97.0635 162.428V169.771ZM94.5472 163.252C94.5472 162.611 94.4938 162.085 94.3871 161.673C94.2803 161.261 94.0592 160.941 93.7236 160.712C93.3881 160.468 92.9001 160.346 92.2596 160.346C91.6191 160.346 91.131 160.461 90.7955 160.69C90.46 160.918 90.2389 161.239 90.1321 161.65C90.0254 162.047 89.972 162.573 89.972 163.229V169.337C89.972 170.069 90.155 170.648 90.521 171.075C90.9023 171.487 91.4818 171.693 92.2596 171.693C92.9764 171.693 93.533 171.472 93.9295 171.03C94.3413 170.587 94.5472 170.008 94.5472 169.291V163.252ZM102.87 163.183V174.003H100.354V157.99H102.87L109.07 168.742V157.99H111.609V174.003H109.07L102.87 163.183ZM115.232 157.99H122.873V160.507H117.748V164.556H120.882L120.173 166.958H117.748V171.716H122.827V174.003H115.232V157.99ZM131.722 169.543H128.382V174.003H125.866V157.99H131.287C132.294 157.99 133.133 158.242 133.804 158.745C134.475 159.233 134.971 159.889 135.291 160.712C135.626 161.536 135.794 162.443 135.794 163.435C135.794 164.182 135.764 164.83 135.703 165.379C135.642 165.928 135.481 166.5 135.222 167.095C134.978 167.69 134.582 168.223 134.033 168.696L135.817 174.003H133.255L131.722 169.543ZM130.693 167.141C131.44 167.141 131.989 166.95 132.34 166.569C132.706 166.172 132.927 165.722 133.003 165.219C133.095 164.716 133.14 164.121 133.14 163.435C133.14 162.626 133.026 162.016 132.797 161.605C132.569 161.178 132.248 160.895 131.837 160.758C131.425 160.606 130.891 160.529 130.235 160.529H128.382V167.141H130.693Z" fill="black"/>
    <path d="M24.5244 28.1379H42.0338V76.3661L24.5244 91.8581V28.1379Z" fill="#1C6373"/>
    <path d="M45.5226 81.0259H89.3741V95.6815H29.064L45.5226 81.0259Z" fill="#34BBD9"/>
    <path d="M42.1567 21.5199V9.41699L27.9375 21.5199H42.1567Z" fill="#3AD0F2"/>
    <path d="M95.6875 81.3274V93.4303L109.907 81.3274H95.6875Z" fill="#3DDBFF"/>
    <path d="M113.48 7.45239H48.6196V74.6471H113.48V7.45239Z" fill="#D9D9D9"/>
    <path d="M70.5186 52.8384H69.6821" stroke="black" stroke-width="6.87014"/>
    <path d="M116.712 6.71216C116.712 5.2763 115.548 4.1123 114.112 4.1123H47.9876C46.5517 4.1123 45.3877 5.2763 45.3877 6.71217V75.3874C45.3877 76.8232 46.5517 77.9872 47.9876 77.9872H114.112C115.548 77.9872 116.712 76.8232 116.712 75.3874V6.71216Z" stroke="black" stroke-width="6.87014"/>
    <path d="M92.456 28.7599C92.456 26.6061 90.71 24.8601 88.5562 24.8601H25.0316C22.8778 24.8601 21.1318 26.6061 21.1318 28.7599V94.7566C21.1318 96.9104 22.8778 98.6564 25.0316 98.6564H88.5562C90.71 98.6564 92.456 96.9104 92.456 94.7566V28.7599Z" stroke="black" stroke-width="6.87014"/>
    <path d="M113.48 7.45239H48.6196V74.6471H113.48V7.45239Z" fill="#56CCF2"/>
    <path d="M21.9302 26.2265L46.5731 4.56167" stroke="black" stroke-width="6.87014" stroke-linecap="round"/>
    <path d="M21.2817 98.8675L47.8701 75.291" stroke="black" stroke-width="6.87014"/>
    <path d="M91.3193 97.5928L115.962 77.2024" stroke="black" stroke-width="6.87014" stroke-linecap="round"/>
    <path d="M67.2512 34.9653H59.9546V42.4502H67.2512V34.9653Z" fill="black"/>
    <path d="M67.2512 26.7998H59.9546V34.3413H67.2512V26.7998Z" fill="black"/>
    <path d="M75.0968 26.7998H67.855V34.3413H75.0968V26.7998Z" fill="black"/>
    <path d="M51.4513 26.7998H44.2095V34.3413H51.4513V26.7998Z" fill="black"/>
    <path d="M82.9967 26.7998H75.7549V34.3413H82.9967V26.7998Z" fill="black"/>
    <path d="M59.3517 26.7998H52.1099V34.3413H59.3517V26.7998Z" fill="black"/>
    <path d="M67.2512 51.239H59.9546V58.7805H67.2512V51.239Z" fill="black"/>
    <path d="M67.2512 43.1304H59.9546V50.6152H67.2512V43.1304Z" fill="black"/>
    <path d="M67.2512 59.4041H59.9546V66.8889H67.2512V59.4041Z" fill="black"/>
    <path d="M67.2512 67.5696H59.9546V75.0544H67.2512V67.5696Z" fill="black"/>
    <path d="M98.0745 3.28711H90.8213V10.7838H98.0745V3.28711Z" fill="black"/>
    <path d="M98.0745 19.6033H90.8213V27.0999H98.0745V19.6033Z" fill="black"/>
    <path d="M98.0745 35.9197H90.8213V43.4163H98.0745V35.9197Z" fill="black"/>
    <path d="M98.0745 11.4453H90.8213V18.942H98.0745V11.4453Z" fill="black"/>
    <path d="M98.0745 27.7615H90.8213V35.2581H98.0745V27.7615Z" fill="black"/>
    <path d="M98.0745 44.0776H90.8213V51.5743H98.0745V44.0776Z" fill="black"/>
    <path d="M105.967 44.0776H98.7139V51.5743H105.967V44.0776Z" fill="black"/>
    <path d="M113.861 44.0776H106.607V51.5743H113.861V44.0776Z" fill="black"/>
    <path d="M36.6016 127.912L36.6016 131.624C36.6016 132.494 37.3069 133.199 38.1771 133.199L41.8889 133.199C42.759 133.199 43.4644 132.494 43.4644 131.624L43.4644 127.912C43.4644 127.042 42.759 126.336 41.8889 126.336L38.1771 126.336C37.3069 126.336 36.6016 127.042 36.6016 127.912Z" fill="black"/>
    <path d="M89.7886 123.337L89.7886 128.764C89.7886 129.634 90.4939 130.34 91.3641 130.34L96.7916 130.34C97.6617 130.34 98.3671 129.634 98.3671 128.764L98.3671 123.337C98.3671 122.467 97.6617 121.761 96.7916 121.761L91.3641 121.761C90.4939 121.761 89.7886 122.467 89.7886 123.337Z" fill="black"/>
    <path d="M70.916 117.046L70.916 120.186C70.916 121.056 71.6214 121.761 72.4915 121.761L75.6314 121.761C76.5015 121.761 77.2069 121.056 77.2069 120.186L77.2069 117.046C77.2069 116.176 76.5015 115.47 75.6314 115.47L72.4915 115.47C71.6214 115.47 70.916 116.176 70.916 117.046Z" fill="black"/>
    <path d="M86.0714 112.039C86.861 112.039 87.5011 111.399 87.5011 110.609C87.5011 109.82 86.861 109.18 86.0714 109.18C85.2817 109.18 84.6416 109.82 84.6416 110.609C84.6416 111.399 85.2817 112.039 86.0714 112.039Z" fill="black"/>
    <path d="M53.4727 118.33C54.2623 118.33 54.9025 117.69 54.9025 116.9C54.9025 116.111 54.2623 115.471 53.4727 115.471C52.6831 115.471 52.043 116.111 52.043 116.9C52.043 117.69 52.6831 118.33 53.4727 118.33Z" fill="black"/>
    <path d="M68.9141 143.494C69.7038 143.494 70.3439 142.854 70.3439 142.064C70.3439 141.274 69.7038 140.634 68.9141 140.634C68.1245 140.634 67.4844 141.274 67.4844 142.064C67.4844 142.854 68.1245 143.494 68.9141 143.494Z" fill="black"/>
    <path d="M66.626 92.5945C67.4157 92.5945 68.0558 91.9544 68.0558 91.1647C68.0558 90.3751 67.4157 89.735 66.626 89.735C65.8364 89.735 65.1963 90.3751 65.1963 91.1647C65.1963 91.9544 65.8364 92.5945 66.626 92.5945Z" fill="black"/>
    <path d="M51.4946 95.4176L51.4946 99.3373C51.4946 100.207 52.2 100.913 53.0701 100.913L57.0083 100.913C57.8784 100.913 58.5838 100.207 58.5838 99.3373L58.5838 95.4176C58.5838 94.5475 57.8784 93.8421 57.0083 93.8421L53.0701 93.8421C52.2 93.8421 51.4946 94.5475 51.4946 95.4176Z" fill="black"/>
</svg>
