<svg width="74" height="97" viewBox="0 0 74 97" fill="none"
    xmlns="http://www.w3.org/2000/svg">
    <path d="M2.46149 84.3524H0.726685V83.0152H5.56968V84.3524H3.78669V91.4482H2.46149V84.3524ZM10.3807 87.7377H7.8387V91.4482H6.51351V83.0152H7.8387V86.4727H10.3807V83.0152H11.6938V91.4482H10.3807V87.7377ZM13.596 83.0152H17.6198V84.3404H14.9212V86.4727H16.5716L16.1982 87.7377H14.9212V90.2435H17.5957V91.4482H13.596V83.0152ZM22.5491 83.0152H23.8743V90.2315H26.8981V91.4482H22.5491V83.0152ZM27.855 83.0152H31.8788V84.3404H29.1802V86.4727H30.8307L30.4572 87.7377H29.1802V90.2435H31.8547V91.4482H27.855V83.0152ZM34.3828 89.099C34.4229 89.4524 34.5675 89.7375 34.8165 89.9544C35.0654 90.1712 35.3907 90.2797 35.7923 90.2797C36.1296 90.2797 36.4027 90.2234 36.6115 90.111C36.8283 89.9986 36.985 89.862 37.0813 89.7014C37.1777 89.5408 37.2259 89.3841 37.2259 89.2315C37.2259 88.8782 37.1376 88.585 36.9609 88.3521C36.7922 88.1112 36.5794 87.9224 36.3224 87.7859C36.0734 87.6413 35.732 87.4767 35.2983 87.2919C34.8245 87.0912 34.447 86.9104 34.1659 86.7498C33.8928 86.5812 33.6559 86.3563 33.4551 86.0752C33.2624 85.786 33.166 85.4206 33.166 84.9789C33.166 84.6255 33.2664 84.2922 33.4672 83.9789C33.6679 83.6577 33.9731 83.3967 34.3828 83.1959C34.7924 82.9951 35.2943 82.8947 35.8887 82.8947C36.2822 82.8947 36.6075 82.9228 36.8645 82.979C37.1215 83.0352 37.3825 83.1276 37.6476 83.2561L37.2259 84.509C36.9368 84.4126 36.6998 84.3444 36.5151 84.3042C36.3384 84.2641 36.1336 84.244 35.9007 84.244C35.4429 84.244 35.1056 84.3243 34.8887 84.4849C34.6719 84.6456 34.5755 84.8504 34.5996 85.0993C34.6237 85.3001 34.7442 85.4728 34.961 85.6174C35.1859 85.7619 35.5313 85.9386 35.9971 86.1475C36.5432 86.3884 36.997 86.6173 37.3584 86.8341C37.7198 87.051 38.0291 87.3482 38.2861 87.7256C38.5511 88.1031 38.6836 88.5649 38.6836 89.1111C38.6836 89.8259 38.4467 90.4162 37.9728 90.882C37.499 91.3478 36.7761 91.5808 35.8043 91.5808C35.21 91.5808 34.7 91.4723 34.2743 91.2555C33.8567 91.0306 33.5354 90.7455 33.3105 90.4001C33.0937 90.0467 32.9772 89.6813 32.9612 89.3038L34.3828 89.099ZM41.1358 89.099C41.176 89.4524 41.3205 89.7375 41.5695 89.9544C41.8185 90.1712 42.1438 90.2797 42.5453 90.2797C42.8827 90.2797 43.1557 90.2234 43.3645 90.111C43.5814 89.9986 43.738 89.862 43.8344 89.7014C43.9308 89.5408 43.979 89.3841 43.979 89.2315C43.979 88.8782 43.8906 88.585 43.7139 88.3521C43.5453 88.1112 43.3324 87.9224 43.0754 87.7859C42.8264 87.6413 42.4851 87.4767 42.0514 87.2919C41.5775 87.0912 41.2001 86.9104 40.919 86.7498C40.6459 86.5812 40.409 86.3563 40.2082 86.0752C40.0154 85.786 39.919 85.4206 39.919 84.9789C39.919 84.6255 40.0194 84.2922 40.2202 83.9789C40.421 83.6577 40.7262 83.3967 41.1358 83.1959C41.5454 82.9951 42.0474 82.8947 42.6417 82.8947C43.0353 82.8947 43.3605 82.9228 43.6175 82.979C43.8745 83.0352 44.1356 83.1276 44.4006 83.2561L43.979 84.509C43.6898 84.4126 43.4529 84.3444 43.2682 84.3042C43.0915 84.2641 42.8867 84.244 42.6538 84.244C42.196 84.244 41.8586 84.3243 41.6418 84.4849C41.4249 84.6456 41.3286 84.8504 41.3527 85.0993C41.3767 85.3001 41.4972 85.4728 41.7141 85.6174C41.939 85.7619 42.2843 85.9386 42.7501 86.1475C43.2963 86.3884 43.7501 86.6173 44.1115 86.8341C44.4729 87.051 44.7821 87.3482 45.0391 87.7256C45.3042 88.1031 45.4367 88.5649 45.4367 89.1111C45.4367 89.8259 45.1997 90.4162 44.7259 90.882C44.252 91.3478 43.5292 91.5808 42.5574 91.5808C41.963 91.5808 41.453 91.4723 41.0274 91.2555C40.6097 91.0306 40.2885 90.7455 40.0636 90.4001C39.8467 90.0467 39.7303 89.6813 39.7142 89.3038L41.1358 89.099ZM51.8403 89.2195C51.8403 90.0307 51.5914 90.629 51.0934 91.0145C50.6035 91.392 50.0132 91.5808 49.3225 91.5808C48.8888 91.5808 48.4792 91.5045 48.0937 91.3519C47.7081 91.1912 47.3909 90.9342 47.1419 90.5808C46.901 90.2275 46.7805 89.7737 46.7805 89.2195V85.3403C46.7805 84.513 47.0054 83.8866 47.4551 83.4609C47.9129 83.0352 48.5394 82.8224 49.3345 82.8224C50.1296 82.8224 50.744 83.0473 51.1778 83.4971C51.6195 83.9468 51.8403 84.5652 51.8403 85.3523V89.2195ZM50.5152 85.786C50.5152 85.4487 50.487 85.1716 50.4308 84.9548C50.3746 84.7379 50.2581 84.5693 50.0815 84.4488C49.9048 84.3203 49.6477 84.256 49.3104 84.256C48.9731 84.256 48.7161 84.3163 48.5394 84.4367C48.3627 84.5572 48.2463 84.7259 48.19 84.9427C48.1338 85.1515 48.1057 85.4286 48.1057 85.774V88.9906C48.1057 89.3761 48.2021 89.6813 48.3948 89.9062C48.5956 90.123 48.9008 90.2315 49.3104 90.2315C49.6879 90.2315 49.9811 90.115 50.1899 89.8821C50.4067 89.6492 50.5152 89.344 50.5152 88.9665V85.786ZM54.8983 85.7499V91.4482H53.5731V83.0152H54.8983L58.1631 88.6774V83.0152H59.5003V91.4482H58.1631L54.8983 85.7499ZM61.4085 83.0152H65.4323V84.3404H62.7337V86.4727H64.3842L64.0107 87.7377H62.7337V90.2435H65.4082V91.4482H61.4085V83.0152ZM70.0927 89.099H68.3338V91.4482H67.0086V83.0152H69.8638C70.3939 83.0152 70.8356 83.1477 71.189 83.4127C71.5424 83.6697 71.8034 84.0151 71.9721 84.4488C72.1488 84.8825 72.2371 85.3604 72.2371 85.8824C72.2371 86.276 72.221 86.6173 72.1889 86.9064C72.1568 87.1956 72.0725 87.4967 71.9359 87.81C71.8074 88.1232 71.5986 88.4043 71.3095 88.6533L72.2491 91.4482H70.8999L70.0927 89.099ZM69.5506 87.8341C69.9441 87.8341 70.2332 87.7337 70.418 87.5329C70.6107 87.3241 70.7272 87.0871 70.7673 86.8221C70.8155 86.5571 70.8396 86.2438 70.8396 85.8824C70.8396 85.4567 70.7794 85.1355 70.6589 84.9186C70.5384 84.6937 70.3698 84.5452 70.1529 84.4729C69.9361 84.3926 69.655 84.3524 69.3096 84.3524H68.3338V87.8341H69.5506Z" fill="black"/>
    <path d="M13.2129 15.2166H22.4339V40.6151L13.2129 48.7737V15.2166Z" fill="#1C6373"/>
    <path d="M24.2712 43.0691H47.3648V50.7872H15.6035L24.2712 43.0691Z" fill="#34BBD9"/>
    <path d="M22.4981 11.7315V5.35767L15.0098 11.7315H22.4981Z" fill="#3AD0F2"/>
    <path d="M50.6895 43.2278V49.6016L58.1777 43.2278H50.6895Z" fill="#3DDBFF"/>
    <path d="M60.0602 4.323H25.9023V39.7099H60.0602V4.323Z" fill="#D9D9D9"/>
    <path d="M37.4346 28.2246H36.9941" stroke="black" stroke-width="3.61804"/>
    <path d="M61.7618 3.93314C61.7618 3.17697 61.1488 2.56396 60.3926 2.56396H25.5694C24.8132 2.56396 24.2002 3.17696 24.2002 3.93314V40.0997C24.2002 40.8559 24.8132 41.4689 25.5694 41.4689H60.3926C61.1488 41.4689 61.7618 40.8559 61.7618 40.0997V3.93314Z" stroke="black" stroke-width="3.61804"/>
    <path d="M48.9874 15.5442C48.9874 14.41 48.0679 13.4905 46.9336 13.4905H13.4795C12.3453 13.4905 11.4258 14.41 11.4258 15.5442V50.3003C11.4258 51.4345 12.3453 52.354 13.4795 52.354H46.9336C48.0679 52.354 48.9874 51.4345 48.9874 50.3003V15.5442Z" stroke="black" stroke-width="3.61804"/>
    <path d="M60.0602 4.323H25.9023V39.7099H60.0602V4.323Z" fill="#56CCF2"/>
    <path d="M11.8464 14.2098L24.8242 2.80043" stroke="black" stroke-width="3.61804" stroke-linecap="round"/>
    <path d="M11.5049 52.465L25.5072 40.0488" stroke="black" stroke-width="3.61804"/>
    <path d="M48.3887 51.7937L61.3664 41.0554" stroke="black" stroke-width="3.61804" stroke-linecap="round"/>
    <path d="M35.7138 18.812H31.8711V22.7538H35.7138V18.812Z" fill="black"/>
    <path d="M35.7138 14.512H31.8711V18.4836H35.7138V14.512Z" fill="black"/>
    <path d="M39.846 14.512H36.0322V18.4836H39.846V14.512Z" fill="black"/>
    <path d="M27.3929 14.512H23.5791V18.4836H27.3929V14.512Z" fill="black"/>
    <path d="M44.0061 14.512H40.1924V18.4836H44.0061V14.512Z" fill="black"/>
    <path d="M31.553 14.512H27.7393V18.4836H31.553V14.512Z" fill="black"/>
    <path d="M35.7138 27.3823H31.8711V31.3539H35.7138V27.3823Z" fill="black"/>
    <path d="M35.7138 23.1121H31.8711V27.0538H35.7138V23.1121Z" fill="black"/>
    <path d="M35.7138 31.6824H31.8711V35.6241H35.7138V31.6824Z" fill="black"/>
    <path d="M35.7138 35.9827H31.8711V39.9244H35.7138V35.9827Z" fill="black"/>
    <path d="M51.9458 2.12939H48.126V6.07737H51.9458V2.12939Z" fill="black"/>
    <path d="M51.9458 10.7219H48.126V14.6699H51.9458V10.7219Z" fill="black"/>
    <path d="M51.9458 19.3147H48.126V23.2627H51.9458V19.3147Z" fill="black"/>
    <path d="M51.9458 6.42578H48.126V10.3738H51.9458V6.42578Z" fill="black"/>
    <path d="M51.9458 15.0183H48.126V18.9663H51.9458V15.0183Z" fill="black"/>
    <path d="M51.9458 23.6108H48.126V27.5588H51.9458V23.6108Z" fill="black"/>
    <path d="M56.103 23.6108H52.2832V27.5588H56.103V23.6108Z" fill="black"/>
    <path d="M60.2602 23.6108H56.4404V27.5588H60.2602V23.6108Z" fill="black"/>
    <path d="M19.5732 67.7609L19.5732 69.7157C19.5732 70.1739 19.9447 70.5454 20.403 70.5454L22.3577 70.5454C22.8159 70.5454 23.1874 70.1739 23.1874 69.7157L23.1874 67.7609C23.1874 67.3027 22.8159 66.9312 22.3577 66.9312L20.403 66.9312C19.9447 66.9312 19.5732 67.3027 19.5732 67.7609Z" fill="black"/>
    <path d="M47.583 65.3513L47.583 68.2096C47.583 68.6678 47.9545 69.0393 48.4127 69.0393L51.271 69.0393C51.7293 69.0393 52.1007 68.6678 52.1007 68.2096L52.1007 65.3513C52.1007 64.8931 51.7293 64.5216 51.271 64.5216L48.4127 64.5216C47.9545 64.5216 47.583 64.8931 47.583 65.3513Z" fill="black"/>
    <path d="M37.6445 62.0384L37.6445 63.692C37.6445 64.1503 38.016 64.5217 38.4742 64.5217L40.1278 64.5217C40.5861 64.5217 40.9575 64.1503 40.9575 63.692L40.9575 62.0384C40.9575 61.5802 40.5861 61.2087 40.1278 61.2087L38.4742 61.2087C38.016 61.2087 37.6445 61.5802 37.6445 62.0384Z" fill="black"/>
    <path d="M45.626 59.4016C46.0418 59.4016 46.379 59.0645 46.379 58.6487C46.379 58.2328 46.0418 57.8957 45.626 57.8957C45.2102 57.8957 44.873 58.2328 44.873 58.6487C44.873 59.0645 45.2102 59.4016 45.626 59.4016Z" fill="black"/>
    <path d="M28.458 62.7146C28.8739 62.7146 29.211 62.3775 29.211 61.9616C29.211 61.5458 28.8739 61.2087 28.458 61.2087C28.0422 61.2087 27.7051 61.5458 27.7051 61.9616C27.7051 62.3775 28.0422 62.7146 28.458 62.7146Z" fill="black"/>
    <path d="M36.5899 75.9666C37.0057 75.9666 37.3428 75.6294 37.3428 75.2136C37.3428 74.7978 37.0057 74.4606 36.5899 74.4606C36.174 74.4606 35.8369 74.7978 35.8369 75.2136C35.8369 75.6294 36.174 75.9666 36.5899 75.9666Z" fill="black"/>
    <path d="M35.3858 49.1614C35.8016 49.1614 36.1387 48.8243 36.1387 48.4084C36.1387 47.9926 35.8016 47.6555 35.3858 47.6555C34.9699 47.6555 34.6328 47.9926 34.6328 48.4084C34.6328 48.8243 34.9699 49.1614 35.3858 49.1614Z" fill="black"/>
    <path d="M27.417 50.6482L27.417 52.7125C27.417 53.1708 27.7885 53.5422 28.2467 53.5422L30.3207 53.5422C30.7789 53.5422 31.1504 53.1708 31.1504 52.7125L31.1504 50.6482C31.1504 50.19 30.7789 49.8185 30.3207 49.8185L28.2467 49.8185C27.7885 49.8185 27.417 50.19 27.417 50.6482Z" fill="black"/>
</svg>
