<svg width="535" height="102" viewBox="0 0 535 102" fill="none" xmlns="http://www.w3.org/2000/svg">
<circle opacity="0.2" cx="272.5" cy="53.5" r="48.5" fill="#455FCE"/>
<circle cx="267.5" cy="48.5" r="47.5" stroke="#455FCE" stroke-width="2"/>
<circle opacity="0.2" cx="189.954" cy="92" r="7" stroke="#455FCE" stroke-width="2"/>
<circle cx="334.953" cy="26" r="5" stroke="#455FCE" stroke-width="2"/>
<path d="M256.707 36L257.237 35.4697L256.707 34.9393L256.176 35.4697L256.707 36ZM268.5 47.7929L267.969 48.3232L268.5 48.8536L269.03 48.3232L268.5 47.7929ZM256 36.7071L255.469 36.1768L254.939 36.7071L255.469 37.2374L256 36.7071ZM267.792 48.5L268.323 49.0303L268.853 48.5L268.323 47.9697L267.792 48.5ZM256 60.2929L255.469 59.7626L254.939 60.2929L255.469 60.8232L256 60.2929ZM256.707 61L256.176 61.5303L256.707 62.0607L257.237 61.5303L256.707 61ZM268.5 49.2071L269.03 48.6768L268.5 48.1464L267.969 48.6768L268.5 49.2071ZM280 60.7071L279.469 61.2374L280 61.7678L280.53 61.2374L280 60.7071ZM280.707 60L281.237 60.5303L281.767 60L281.237 59.4697L280.707 60ZM269.207 48.5L268.676 47.9697L268.146 48.5L268.676 49.0303L269.207 48.5ZM280.707 37L281.237 37.5303L281.767 37L281.237 36.4697L280.707 37ZM280 36.2929L280.53 35.7626L280 35.2322L279.469 35.7626L280 36.2929ZM256.176 36.5303L267.969 48.3232L269.03 47.2626L257.237 35.4697L256.176 36.5303ZM256.53 37.2374L257.237 36.5303L256.176 35.4697L255.469 36.1768L256.53 37.2374ZM268.323 47.9697L256.53 36.1768L255.469 37.2374L267.262 49.0303L268.323 47.9697ZM256.53 60.8232L268.323 49.0303L267.262 47.9697L255.469 59.7626L256.53 60.8232ZM257.237 60.4697L256.53 59.7626L255.469 60.8232L256.176 61.5303L257.237 60.4697ZM267.969 48.6768L256.176 60.4697L257.237 61.5303L269.03 49.7374L267.969 48.6768ZM280.53 60.1768L269.03 48.6768L267.969 49.7374L279.469 61.2374L280.53 60.1768ZM280.176 59.4697L279.469 60.1768L280.53 61.2374L281.237 60.5303L280.176 59.4697ZM268.676 49.0303L280.176 60.5303L281.237 59.4697L269.737 47.9697L268.676 49.0303ZM280.176 36.4697L268.676 47.9697L269.737 49.0303L281.237 37.5303L280.176 36.4697ZM279.469 36.8232L280.176 37.5303L281.237 36.4697L280.53 35.7626L279.469 36.8232ZM269.03 48.3232L280.53 36.8232L279.469 35.7626L267.969 47.2626L269.03 48.3232Z" fill="#455FCE"/>
<path d="M172.046 7.70711L172.576 8.23744L173.106 7.70711L172.576 7.17678L172.046 7.70711ZM167.07 12.683L166.539 12.1527L166.009 12.683L166.539 13.2133L167.07 12.683ZM171.339 7L171.869 6.46967L171.339 5.93934L170.808 6.46967L171.339 7ZM166.363 11.9759L165.832 12.5062L166.363 13.0365L166.893 12.5062L166.363 11.9759ZM161.661 7.27439L162.192 6.74406L161.661 6.21373L161.131 6.74406L161.661 7.27439ZM160.954 7.9815L160.424 7.45117L159.893 7.9815L160.424 8.51183L160.954 7.9815ZM165.656 12.683L166.186 13.2133L166.716 12.683L166.186 12.1527L165.656 12.683ZM160.954 17.3849L160.423 16.8546L159.893 17.3849L160.423 17.9153L160.954 17.3849ZM161.661 18.0921L161.13 18.6224L161.661 19.1527L162.191 18.6224L161.661 18.0921ZM166.363 13.3901L166.893 12.8598L166.363 12.3294L165.832 12.8598L166.363 13.3901ZM171.339 18.3664L170.809 18.8968L171.339 19.4271L171.869 18.8968L171.339 18.3664ZM172.046 17.6593L172.576 18.1897L173.107 17.6593L172.576 17.129L172.046 17.6593ZM171.515 7.17678L166.539 12.1527L167.6 13.2133L172.576 8.23744L171.515 7.17678ZM170.808 7.53033L171.515 8.23744L172.576 7.17678L171.869 6.46967L170.808 7.53033ZM166.893 12.5062L171.869 7.53033L170.808 6.46967L165.832 11.4456L166.893 12.5062ZM161.131 7.80472L165.832 12.5062L166.893 11.4456L162.192 6.74406L161.131 7.80472ZM161.484 8.51183L162.192 7.80472L161.131 6.74406L160.424 7.45117L161.484 8.51183ZM166.186 12.1527L161.484 7.45117L160.424 8.51183L165.125 13.2133L166.186 12.1527ZM161.484 17.9153L166.186 13.2133L165.125 12.1527L160.423 16.8546L161.484 17.9153ZM162.191 17.5617L161.484 16.8546L160.423 17.9153L161.13 18.6224L162.191 17.5617ZM165.832 12.8598L161.13 17.5617L162.191 18.6224L166.893 13.9204L165.832 12.8598ZM171.869 17.8361L166.893 12.8598L165.832 13.9204L170.809 18.8968L171.869 17.8361ZM171.516 17.129L170.809 17.8361L171.869 18.8968L172.576 18.1897L171.516 17.129ZM166.539 13.2133L171.516 18.1897L172.576 17.129L167.6 12.1527L166.539 13.2133Z" fill="#455FCE"/>
<path opacity="0.2" d="M374.045 78.7071L374.576 79.2374L375.106 78.7071L374.576 78.1768L374.045 78.7071ZM369.069 83.683L368.539 83.1527L368.009 83.683L368.539 84.2133L369.069 83.683ZM373.338 78L373.868 77.4697L373.338 76.9393L372.808 77.4697L373.338 78ZM368.362 82.9759L367.832 83.5062L368.362 84.0365L368.893 83.5062L368.362 82.9759ZM363.661 78.2744L364.191 77.7441L363.661 77.2137L363.13 77.7441L363.661 78.2744ZM362.954 78.9815L362.423 78.4512L361.893 78.9815L362.423 79.5118L362.954 78.9815ZM367.655 83.683L368.185 84.2133L368.716 83.683L368.185 83.1527L367.655 83.683ZM362.953 88.3849L362.423 87.8546L361.892 88.3849L362.423 88.9153L362.953 88.3849ZM363.66 89.0921L363.13 89.6224L363.66 90.1527L364.191 89.6224L363.66 89.0921ZM368.362 84.3901L368.893 83.8598L368.362 83.3294L367.832 83.8598L368.362 84.3901ZM373.339 89.3664L372.808 89.8968L373.339 90.4271L373.869 89.8968L373.339 89.3664ZM374.046 88.6593L374.576 89.1897L375.106 88.6593L374.576 88.129L374.046 88.6593ZM373.515 78.1768L368.539 83.1527L369.6 84.2133L374.576 79.2374L373.515 78.1768ZM372.808 78.5303L373.515 79.2374L374.576 78.1768L373.868 77.4697L372.808 78.5303ZM368.893 83.5062L373.868 78.5303L372.808 77.4697L367.832 82.4456L368.893 83.5062ZM363.13 78.8047L367.832 83.5062L368.893 82.4456L364.191 77.7441L363.13 78.8047ZM363.484 79.5118L364.191 78.8047L363.13 77.7441L362.423 78.4512L363.484 79.5118ZM368.185 83.1527L363.484 78.4512L362.423 79.5118L367.125 84.2133L368.185 83.1527ZM363.483 88.9153L368.185 84.2133L367.125 83.1527L362.423 87.8546L363.483 88.9153ZM364.191 88.5617L363.483 87.8546L362.423 88.9153L363.13 89.6224L364.191 88.5617ZM367.832 83.8598L363.13 88.5617L364.191 89.6224L368.893 84.9204L367.832 83.8598ZM373.869 88.8361L368.893 83.8598L367.832 84.9204L372.808 89.8968L373.869 88.8361ZM373.515 88.129L372.808 88.8361L373.869 89.8968L374.576 89.1897L373.515 88.129ZM368.539 84.2133L373.515 89.1897L374.576 88.129L369.6 83.1527L368.539 84.2133Z" fill="#455FCE"/>
</svg>
