<svg width="17" height="16" viewBox="0 0 17 16" fill="none" xmlns="http://www.w3.org/2000/svg">
<path d="M14.9323 10.9109L12.67 10.6526C12.1267 10.5903 11.5923 10.7773 11.2093 11.1603L9.57041 12.7992C7.04978 11.5166 4.9834 9.45909 3.70082 6.92954L5.34858 5.28177C5.73157 4.89878 5.91862 4.36436 5.85627 3.82104L5.59797 1.57652C5.49109 0.676922 4.73401 0 3.82551 0H2.28464C1.27817 0 0.440924 0.837245 0.503272 1.84372C0.975333 9.45018 7.05869 15.5247 14.6562 15.9967C15.6627 16.0591 16.4999 15.2218 16.4999 14.2154V12.6745C16.5088 11.7749 15.8319 11.0178 14.9323 10.9109Z" fill="#455FCE"/>
</svg>
