<svg width="535" height="102" viewBox="0 0 535 102" fill="none" xmlns="http://www.w3.org/2000/svg">
<circle opacity="0.2" cx="273.5" cy="53.5" r="48.5" fill="#455FCE"/>
<circle cx="268.5" cy="48.5" r="47.5" stroke="#455FCE" stroke-width="2"/>
<circle opacity="0.2" cx="189.064" cy="92" r="7" stroke="#455FCE" stroke-width="2"/>
<circle cx="334.064" cy="26" r="5" stroke="#455FCE" stroke-width="2"/>
<path d="M282.146 42.7071L282.676 43.2374L283.206 42.7071L282.676 42.1768L282.146 42.7071ZM264.743 60.1099L264.213 60.6402L264.743 61.1705L265.273 60.6402L264.743 60.1099ZM281.439 42L281.969 41.4697L281.439 40.9393L280.908 41.4697L281.439 42ZM264.743 58.6957L264.213 59.2261L264.743 59.7564L265.273 59.2261L264.743 58.6957ZM253.753 47.7058L254.283 47.1755L253.753 46.6452L253.223 47.1755L253.753 47.7058ZM253.046 48.4129L252.516 47.8826L251.985 48.4129L252.516 48.9433L253.046 48.4129ZM264.458 59.8246L263.927 60.3549L264.458 60.8852L264.988 60.3549L264.458 59.8246ZM264.458 59.8245L264.988 59.2942L264.458 58.7638L263.927 59.2942L264.458 59.8245ZM281.615 42.1768L264.213 59.5795L265.273 60.6402L282.676 43.2374L281.615 42.1768ZM280.908 42.5303L281.615 43.2374L282.676 42.1768L281.969 41.4697L280.908 42.5303ZM265.273 59.2261L281.969 42.5303L280.908 41.4697L264.213 58.1654L265.273 59.2261ZM253.223 48.2362L264.213 59.2261L265.273 58.1654L254.283 47.1755L253.223 48.2362ZM253.576 48.9433L254.283 48.2362L253.223 47.1755L252.516 47.8826L253.576 48.9433ZM264.988 59.2942L253.576 47.8826L252.516 48.9433L263.927 60.3549L264.988 59.2942ZM263.927 59.2942L263.927 59.2942L264.988 60.3549L264.988 60.3548L263.927 59.2942ZM265.273 59.5795L264.988 59.2942L263.927 60.3548L264.213 60.6402L265.273 59.5795Z" fill="#455FCE"/>
<path opacity="0.2" d="M375.936 79.7845L376.431 80.2795L376.926 79.7845L376.431 79.2895L375.936 79.7845ZM366.581 89.1393L366.086 89.6343L366.581 90.1293L367.076 89.6343L366.581 89.1393ZM375.229 79.0774L375.724 78.5824L375.229 78.0874L374.734 78.5824L375.229 79.0774ZM366.581 87.7254L366.086 88.2203L366.581 88.7153L367.076 88.2203L366.581 87.7254ZM361 82.1446L361.495 81.6496L361 81.1546L360.505 81.6496L361 82.1446ZM360.293 82.8517L359.798 82.3567L359.303 82.8517L359.798 83.3466L360.293 82.8517ZM366.427 88.986L365.932 89.481L366.427 89.9759L366.922 89.481L366.427 88.986ZM366.428 88.9858L366.923 88.4908L366.428 87.9958L365.933 88.4908L366.428 88.9858ZM375.441 79.2895L366.086 88.6444L367.076 89.6343L376.431 80.2795L375.441 79.2895ZM374.734 79.5724L375.441 80.2795L376.431 79.2895L375.724 78.5824L374.734 79.5724ZM367.076 88.2203L375.724 79.5724L374.734 78.5824L366.086 87.2304L367.076 88.2203ZM360.505 82.6395L366.086 88.2203L367.076 87.2304L361.495 81.6496L360.505 82.6395ZM360.788 83.3466L361.495 82.6395L360.505 81.6496L359.798 82.3567L360.788 83.3466ZM366.922 88.491L360.788 82.3567L359.798 83.3466L365.932 89.481L366.922 88.491ZM365.933 88.4908L365.932 88.491L366.922 89.481L366.923 89.4807L365.933 88.4908ZM367.076 88.6444L366.923 88.4908L365.933 89.4807L366.086 89.6343L367.076 88.6444Z" fill="#455FCE"/>
<path d="M174.707 8.70711L175.202 9.20208L175.697 8.70711L175.202 8.21213L174.707 8.70711ZM165.353 18.0619L164.858 18.5569L165.353 19.0519L165.848 18.5569L165.353 18.0619ZM174 8L174.495 7.50503L174 7.01005L173.505 7.50503L174 8ZM165.352 16.648L164.857 17.1429L165.352 17.6379L165.847 17.1429L165.352 16.648ZM159.772 11.0672L160.267 10.5722L159.772 10.0772L159.277 10.5722L159.772 11.0672ZM159.064 11.7743L158.569 11.2793L158.075 11.7743L158.569 12.2693L159.064 11.7743ZM165.199 17.9086L164.704 18.4036L165.199 18.8986L165.694 18.4036L165.199 17.9086ZM165.199 17.9084L165.694 17.4134L165.199 16.9184L164.704 17.4134L165.199 17.9084ZM174.212 8.21213L164.858 17.567L165.848 18.5569L175.202 9.20208L174.212 8.21213ZM173.505 8.49497L174.212 9.20208L175.202 8.21213L174.495 7.50503L173.505 8.49497ZM165.847 17.1429L174.495 8.49497L173.505 7.50503L164.857 16.153L165.847 17.1429ZM159.277 11.5621L164.857 17.1429L165.847 16.153L160.267 10.5722L159.277 11.5621ZM159.559 12.2693L160.267 11.5621L159.277 10.5722L158.569 11.2793L159.559 12.2693ZM165.694 17.4136L159.559 11.2793L158.569 12.2693L164.704 18.4036L165.694 17.4136ZM164.704 17.4134L164.704 17.4136L165.694 18.4036L165.694 18.4033L164.704 17.4134ZM165.848 17.567L165.694 17.4134L164.704 18.4033L164.858 18.5569L165.848 17.567Z" fill="#455FCE"/>
</svg>
