<svg width="159" height="88" viewBox="0 0 159 88" fill="none"
  xmlns="http://www.w3.org/2000/svg">
  <rect x="0.5" y="0.5" width="158" height="87" rx="7.5" fill="white"/>
  <g clip-path="url(#clip0_5605_692)">
    <path d="M92.8334 37.3332V21.3332C92.8334 19.8665 91.6334 18.6665 90.1667 18.6665H74.1667C72.7001 18.6665 71.5001 19.8665 71.5001 21.3332V37.3332C71.5001 38.7998 72.7001 39.9998 74.1667 39.9998H90.1667C91.6334 39.9998 92.8334 38.7998 92.8334 37.3332ZM78.7001 32.7065L80.8734 35.6132L84.3134 31.3198C84.5801 30.9865 85.0867 30.9865 85.3534 31.3198L89.3001 36.2532C89.6467 36.6932 89.3401 37.3332 88.7801 37.3332H75.5001C74.9534 37.3332 74.6334 36.7065 74.9667 36.2665L77.6334 32.7065C77.9001 32.3598 78.4334 32.3598 78.7001 32.7065ZM66.1667 25.3332V42.6665C66.1667 44.1332 67.3667 45.3332 68.8334 45.3332H86.1667C86.9001 45.3332 87.5001 44.7332 87.5001 43.9998C87.5001 43.2665 86.9001 42.6665 86.1667 42.6665H70.1667C69.4334 42.6665 68.8334 42.0665 68.8334 41.3332V25.3332C68.8334 24.5998 68.2334 23.9998 67.5001 23.9998C66.7667 23.9998 66.1667 24.5998 66.1667 25.3332Z" fill="#D1D1D1"/>
  </g>
  <path d="M17.2 63.968V56.8H18.96V64.048C18.96 64.816 19.152 65.4133 19.536 65.84C19.92 66.256 20.4853 66.464 21.232 66.464C21.9787 66.464 22.544 66.256 22.928 65.84C23.312 65.4133 23.504 64.816 23.504 64.048V56.8H25.264V63.968C25.264 65.28 24.8853 66.304 24.128 67.04C23.3813 67.7653 22.416 68.128 21.232 68.128C20.048 68.128 19.0773 67.76 18.32 67.024C17.5733 66.288 17.2 65.2693 17.2 63.968ZM35.1758 63.968C35.1758 65.248 34.8664 66.2613 34.2478 67.008C33.6291 67.7547 32.7278 68.128 31.5438 68.128C31.0744 68.128 30.6478 68.032 30.2638 67.84C29.8798 67.6373 29.5864 67.392 29.3838 67.104V71.264H27.7198V59.936H29.3838V60.864C29.5331 60.5973 29.8104 60.3573 30.2158 60.144C30.6318 59.92 31.0851 59.808 31.5758 59.808C32.7491 59.808 33.6398 60.176 34.2478 60.912C34.8664 61.6373 35.1758 62.656 35.1758 63.968ZM32.8398 65.936C33.2238 65.4453 33.4158 64.7893 33.4158 63.968C33.4158 63.1467 33.2238 62.496 32.8398 62.016C32.4558 61.5253 31.9598 61.28 31.3518 61.28C30.7438 61.28 30.2478 61.5253 29.8638 62.016C29.4798 62.496 29.2878 63.1467 29.2878 63.968C29.2878 64.7893 29.4798 65.4453 29.8638 65.936C30.2478 66.416 30.7438 66.656 31.3518 66.656C31.9598 66.656 32.4558 66.416 32.8398 65.936ZM36.9846 56.672H38.6486V68H36.9846V56.672ZM41.5279 66.928C40.8132 66.128 40.4559 65.1413 40.4559 63.968C40.4559 62.7947 40.8132 61.808 41.5279 61.008C42.2532 60.208 43.2185 59.808 44.4239 59.808C45.6292 59.808 46.5892 60.208 47.3039 61.008C48.0292 61.808 48.3919 62.7947 48.3919 63.968C48.3919 65.1413 48.0292 66.128 47.3039 66.928C46.5892 67.728 45.6292 68.128 44.4239 68.128C43.2185 68.128 42.2532 67.728 41.5279 66.928ZM42.7919 62.08C42.4079 62.6027 42.2159 63.232 42.2159 63.968C42.2159 64.704 42.4079 65.3387 42.7919 65.872C43.1865 66.3947 43.7305 66.656 44.4239 66.656C45.1172 66.656 45.6559 66.3947 46.0399 65.872C46.4345 65.3387 46.6319 64.704 46.6319 63.968C46.6319 63.232 46.4345 62.6027 46.0399 62.08C45.6559 61.5467 45.1172 61.28 44.4239 61.28C43.7305 61.28 43.1865 61.5467 42.7919 62.08ZM49.7978 65.68C49.7978 64.8587 50.1178 64.2133 50.7578 63.744C51.3978 63.2747 52.2404 63.04 53.2858 63.04H54.6778V62.688C54.6778 62.208 54.5284 61.856 54.2298 61.632C53.9418 61.3973 53.5684 61.28 53.1098 61.28C52.3738 61.28 51.8724 61.6373 51.6058 62.352L50.0858 62.032C50.2564 61.3493 50.6138 60.8107 51.1578 60.416C51.7018 60.0107 52.3578 59.808 53.1258 59.808C55.2698 59.808 56.3418 60.8693 56.3418 62.992V68H54.9338L54.7738 66.944C54.2084 67.7333 53.3764 68.128 52.2778 68.128C51.5631 68.128 50.9711 67.92 50.5018 67.504C50.0324 67.088 49.7978 66.48 49.7978 65.68ZM51.5578 65.68C51.5578 65.968 51.6431 66.2027 51.8138 66.384C51.9844 66.5653 52.2351 66.656 52.5658 66.656C53.1311 66.656 53.6218 66.48 54.0378 66.128C54.4644 65.7653 54.6778 65.2587 54.6778 64.608V64.432H53.2218C52.7098 64.432 52.3044 64.544 52.0058 64.768C51.7071 64.992 51.5578 65.296 51.5578 65.68ZM58.2528 63.968C58.2528 62.688 58.5621 61.6747 59.1808 60.928C59.7994 60.1813 60.7008 59.808 61.8848 59.808C62.2794 59.808 62.6901 59.9147 63.1168 60.128C63.5434 60.3307 63.8528 60.5653 64.0448 60.832V56.672H65.7088V68H64.0448V67.072C63.8954 67.3387 63.6128 67.584 63.1968 67.808C62.7914 68.0213 62.3434 68.128 61.8528 68.128C60.6794 68.128 59.7834 67.7653 59.1648 67.04C58.5568 66.304 58.2528 65.28 58.2528 63.968ZM60.5888 62.016C60.2048 62.496 60.0128 63.1467 60.0128 63.968C60.0128 64.7893 60.2048 65.4453 60.5888 65.936C60.9728 66.416 61.4688 66.656 62.0768 66.656C62.6848 66.656 63.1808 66.416 63.5648 65.936C63.9488 65.4453 64.1408 64.7893 64.1408 63.968C64.1408 63.1467 63.9488 62.496 63.5648 62.016C63.1808 61.5253 62.6848 61.28 62.0768 61.28C61.4688 61.28 60.9728 61.5253 60.5888 62.016ZM71.5391 61.408V59.936H72.8831V57.712L74.5471 56.672V59.936H76.6431V61.408H74.5471V65.344C74.5471 66.2187 74.9045 66.656 75.6191 66.656C75.8858 66.656 76.1418 66.5813 76.3871 66.432L76.8191 67.84C76.4245 68.032 75.9925 68.128 75.5231 68.128C74.7231 68.128 74.0831 67.888 73.6031 67.408C73.1231 66.9173 72.8831 66.1973 72.8831 65.248V61.408H71.5391ZM78.4385 56.672H80.1025V61.312C80.7958 60.3093 81.7025 59.808 82.8225 59.808C83.5798 59.808 84.1665 60.016 84.5825 60.432C84.9985 60.848 85.2065 61.4773 85.2065 62.32V68H83.5425V62.752C83.5425 62.176 83.4358 61.7867 83.2225 61.584C83.0092 61.3813 82.6945 61.28 82.2785 61.28C81.7665 61.28 81.2758 61.584 80.8065 62.192C80.3372 62.8 80.1025 63.6 80.1025 64.592V68H78.4385V56.672ZM94.0134 68H92.3494V66.624C92.0614 67.104 91.688 67.4773 91.2294 67.744C90.7707 68 90.2747 68.128 89.7414 68.128C89.0267 68.128 88.4507 67.92 88.0134 67.504C87.5867 67.0773 87.3734 66.48 87.3734 65.712V59.936H89.0374V65.184C89.0374 66.1653 89.4534 66.656 90.2854 66.656C90.84 66.656 91.32 66.3467 91.7254 65.728C92.1414 65.0987 92.3494 64.256 92.3494 63.2V59.936H94.0134V68ZM96.376 59.936H98.04V61.312C98.6907 60.3093 99.5013 59.808 100.472 59.808C101.016 59.808 101.491 59.9627 101.896 60.272C102.312 60.5707 102.579 60.9707 102.696 61.472C102.973 60.9387 103.331 60.528 103.768 60.24C104.205 59.952 104.685 59.808 105.208 59.808C105.933 59.808 106.499 60.032 106.904 60.48C107.309 60.9173 107.512 61.4987 107.512 62.224V68H105.848V62.592C105.848 62.1653 105.741 61.84 105.528 61.616C105.315 61.392 105.027 61.28 104.664 61.28C104.141 61.28 103.693 61.5947 103.32 62.224C102.957 62.8533 102.776 63.7013 102.776 64.768V68H101.112V62.592C101.112 62.1653 101.005 61.84 100.792 61.616C100.579 61.392 100.291 61.28 99.928 61.28C99.3947 61.28 98.9467 61.6053 98.584 62.256C98.2213 62.896 98.04 63.792 98.04 64.944V68H96.376V59.936ZM117.238 63.968C117.238 65.28 116.929 66.304 116.31 67.04C115.702 67.7653 114.812 68.128 113.638 68.128C113.148 68.128 112.694 68.0213 112.278 67.808C111.873 67.584 111.596 67.3387 111.446 67.072V68H109.782V56.672H111.446V60.832C111.638 60.5653 111.948 60.3307 112.374 60.128C112.801 59.9147 113.212 59.808 113.606 59.808C114.79 59.808 115.692 60.1813 116.31 60.928C116.929 61.6747 117.238 62.688 117.238 63.968ZM114.902 65.936C115.286 65.4453 115.478 64.7893 115.478 63.968C115.478 63.1467 115.286 62.496 114.902 62.016C114.518 61.5253 114.022 61.28 113.414 61.28C112.806 61.28 112.31 61.5253 111.926 62.016C111.542 62.496 111.35 63.1467 111.35 63.968C111.35 64.7893 111.542 65.4453 111.926 65.936C112.31 66.416 112.806 66.656 113.414 66.656C114.022 66.656 114.518 66.416 114.902 65.936ZM119.079 59.936H120.743V61.312C121.031 60.832 121.404 60.464 121.863 60.208C122.322 59.9413 122.818 59.808 123.351 59.808C124.066 59.808 124.636 60.0213 125.063 60.448C125.5 60.864 125.719 61.456 125.719 62.224V68H124.055V62.752C124.055 61.7707 123.639 61.28 122.807 61.28C122.252 61.28 121.767 61.5947 121.351 62.224C120.946 62.8427 120.743 63.68 120.743 64.736V68H119.079V59.936ZM127.423 65.68C127.423 64.8587 127.743 64.2133 128.383 63.744C129.023 63.2747 129.865 63.04 130.911 63.04H132.303V62.688C132.303 62.208 132.153 61.856 131.855 61.632C131.567 61.3973 131.193 61.28 130.735 61.28C129.999 61.28 129.497 61.6373 129.231 62.352L127.711 62.032C127.881 61.3493 128.239 60.8107 128.783 60.416C129.327 60.0107 129.983 59.808 130.751 59.808C132.895 59.808 133.967 60.8693 133.967 62.992V68H132.559L132.399 66.944C131.833 67.7333 131.001 68.128 129.903 68.128C129.188 68.128 128.596 67.92 128.127 67.504C127.657 67.088 127.423 66.48 127.423 65.68ZM129.183 65.68C129.183 65.968 129.268 66.2027 129.439 66.384C129.609 66.5653 129.86 66.656 130.191 66.656C130.756 66.656 131.247 66.48 131.663 66.128C132.089 65.7653 132.303 65.2587 132.303 64.608V64.432H130.847C130.335 64.432 129.929 64.544 129.631 64.768C129.332 64.992 129.183 65.296 129.183 65.68ZM136.077 58.48C135.864 58.256 135.757 57.984 135.757 57.664C135.757 57.344 135.869 57.072 136.093 56.848C136.317 56.6133 136.589 56.496 136.909 56.496C137.229 56.496 137.501 56.6133 137.725 56.848C137.949 57.072 138.061 57.344 138.061 57.664C138.061 57.984 137.949 58.256 137.725 58.48C137.512 58.6933 137.24 58.8 136.909 58.8C136.579 58.8 136.301 58.6933 136.077 58.48ZM136.077 59.936H137.741V68H136.077V59.936ZM139.86 56.672H141.524V68H139.86V56.672Z" fill="#9A9AA3"/>
  <rect x="0.5" y="0.5" width="158" height="87" rx="7.5" stroke="#B9D1FF" stroke-linecap="round" stroke-linejoin="round" stroke-dasharray="8 4"/>
  <defs>
    <clipPath id="clip0_5605_692">
      <rect width="32" height="32" fill="white" transform="translate(63.5 16)"/>
    </clipPath>
  </defs>
</svg>
