<svg width="11" height="10" viewBox="0 0 11 10" fill="none" xmlns="http://www.w3.org/2000/svg">
<path d="M10.2782 0.229428C9.98237 -0.0663631 9.50455 -0.0663631 9.20876 0.229428L5.5 3.9306L1.79124 0.221843C1.49545 -0.0739477 1.01763 -0.0739477 0.721843 0.221843C0.426052 0.517634 0.426052 0.99545 0.721843 1.29124L4.4306 5L0.721843 8.70876C0.426052 9.00455 0.426052 9.48237 0.721843 9.77816C1.01763 10.0739 1.49545 10.0739 1.79124 9.77816L5.5 6.0694L9.20876 9.77816C9.50455 10.0739 9.98237 10.0739 10.2782 9.77816C10.5739 9.48237 10.5739 9.00455 10.2782 8.70876L6.5694 5L10.2782 1.29124C10.5664 1.00303 10.5664 0.517634 10.2782 0.229428Z" fill="#455FCE"/>
</svg>
