<svg width="95" height="101" viewBox="0 0 95 101" fill="none" xmlns="http://www.w3.org/2000/svg">
<path d="M80.8111 70.3575C92.5773 63.8161 93.1069 45.1854 81.3571 38.6146L26.5266 7.95226C15.064 1.54209 0.112979 9.80422 0.096587 22.9224L0.0965838 82.8579C0.0801917 95.9762 14.1979 104.274 25.6766 97.8921L80.8111 70.3575Z" fill="#6F9AEB" fill-opacity="0.2"/>
<path d="M68.6432 60.0071C77.8066 49.7095 81.6674 41.3972 83.1085 35.3022C83.9419 31.7772 83.9583 29.0235 83.7401 27.0982C83.6312 26.1376 83.4647 25.3891 83.3157 24.8594C83.2413 24.5947 83.1714 24.3849 83.1154 24.2309C83.0805 24.1348 83.0436 24.0391 83.0027 23.9454L83.0007 23.941C82.7131 23.2903 82.3387 23.0108 81.6051 22.7721C81.4499 22.7216 81.2379 22.6585 80.9701 22.5919C80.4344 22.4586 79.6765 22.3115 78.7058 22.2231C76.7606 22.046 73.9805 22.1064 70.4422 22.9684C64.338 24.4555 56.0648 28.305 45.9612 37.2877L36.4249 38.2335L36.4008 38.2361C34.1111 38.4909 31.9761 39.5186 30.347 41.1501L20.8815 50.63C20.2639 51.2485 20.1108 52.1935 20.5014 52.9759C20.892 53.7583 21.7387 54.2026 22.6033 54.0789L30.1372 53.001C31.2493 52.8419 32.4904 53.0557 33.9306 53.526C34.8539 53.8275 35.6685 54.1604 36.5317 54.5131C36.7938 54.6202 37.0628 54.7302 37.3383 54.8406C38.1202 58.0854 39.9657 61.1211 42.4042 63.5633C44.8422 66.005 47.8725 67.8531 51.1116 68.6364C51.2218 68.9116 51.3305 69.178 51.4373 69.44C51.7908 70.3066 52.1244 71.1243 52.4259 72.0498C52.8958 73.4919 53.1094 74.735 52.9505 75.8489L51.8742 83.3943C51.7507 84.2603 52.1943 85.1082 52.9756 85.4994C53.7568 85.8906 54.7002 85.7373 55.3178 85.1187L64.7834 75.6388C66.4124 74.0073 67.4386 71.869 67.693 69.5758L68.6432 60.0071ZM69.0792 45.3123C65.9094 48.4869 61.4126 49.1302 59.0353 46.7493C56.6579 44.3683 57.3004 39.8647 60.4701 36.6901C63.6399 33.5155 68.1367 32.8721 70.5141 35.253C72.8914 37.634 72.249 42.1377 69.0792 45.3123Z" fill="url(#paint0_linear_5864_73975)"/>
<path d="M40.9693 65.0004C43.1203 67.1546 45.5663 69.013 48.1349 70.3725C43.6914 74.3723 28.5531 78.4317 28.0557 77.9336C27.5538 77.431 30.9835 61.2908 35.3616 57.35C36.7366 60.0953 38.6867 62.7142 40.9693 65.0004Z" fill="url(#paint1_linear_5864_73975)"/>
<defs>
<linearGradient id="paint0_linear_5864_73975" x1="52.0728" y1="22.1426" x2="52.0728" y2="85.714" gradientUnits="userSpaceOnUse">
<stop stop-color="#9DC0F6"/>
<stop offset="0.322917" stop-color="#7D9FE7"/>
<stop offset="0.692708" stop-color="#5270D6"/>
<stop offset="1" stop-color="#455FCE"/>
</linearGradient>
<linearGradient id="paint1_linear_5864_73975" x1="52.0728" y1="22.1426" x2="52.0728" y2="85.714" gradientUnits="userSpaceOnUse">
<stop stop-color="#9DC0F6"/>
<stop offset="0.322917" stop-color="#7D9FE7"/>
<stop offset="0.692708" stop-color="#5270D6"/>
<stop offset="1" stop-color="#455FCE"/>
</linearGradient>
</defs>
</svg>
