<svg width="114" height="124" viewBox="0 0 114 124" fill="none" xmlns="http://www.w3.org/2000/svg">
<path d="M101.905 46.212L112.615 42.2106L12.4445 0.500301C10.7106 -0.369569 8.27441 0.152353 8.27441 0.152353L1.62415 3.74057L101.905 46.212Z" fill="url(#paint0_linear_4761_61089)"/>
<path d="M30.6614 35.8822V116.845C30.6614 121.999 35.8192 125.479 40.4064 123.391L45.235 121.021C45.235 121.021 45.9154 98.0344 45.9154 92.8805V49.0825C45.9154 43.9068 51.0731 40.449 55.6822 42.5367L102.827 63.5441L101.949 46.1684L3.22638 3.39257C3.22638 3.39257 1.10834e-05 2.56619 1.10834e-05 8.87275C1.10834e-05 14.7226 -0.0219369 17.0495 1.88754 18.2456L26.5133 29.3364C29.0153 30.4673 30.6614 33.0334 30.6614 35.8822Z" fill="url(#paint1_linear_4761_61089)"/>
<path d="M61.5643 59.9994V74.7872C61.5643 76.5921 63.2543 77.81 64.7687 77.0923L80.1104 69.7419C81.9321 68.872 81.9321 66.0232 80.1104 65.1316L64.7687 57.6942C63.2543 56.9548 61.5643 58.1726 61.5643 59.9994Z" fill="url(#paint2_linear_4761_61089)"/>
<path d="M99.2272 75.9833L95.1888 74.3088C91.6112 72.8735 91.1284 72.743 87.7923 74.3088L46.4421 92.9892V103.536L101.312 77.4186C100.851 76.7879 100.171 76.4835 99.2272 75.9833Z" fill="#2F57BC"/>
<path d="M101.312 77.4185L60.0718 96.9906C57.3722 98.1867 54.2556 95.4466 54.2556 92.4238V46.6251V46.1467C54.2556 43.8198 55.7481 42.6237 57.8112 43.5371L51.1829 40.4708C48.3955 39.1877 45.213 41.2102 45.213 44.2547V121.021L59.3256 114.084C56.7357 115.236 86.6948 101.688 97.8225 96.6426C100.303 95.5336 101.883 93.0109 101.883 90.2274V83.9643V80.2238C101.927 78.7886 101.707 77.9622 101.312 77.4185Z" fill="url(#paint3_linear_4761_61089)"/>
<path d="M112.242 60.3474L104.736 63.5876C103.266 64.2183 101.62 63.1527 101.62 61.5652V47.5603C101.62 46.6469 102.19 45.8423 103.046 45.5161L111.694 42.1888C112.594 41.8409 113.559 42.515 113.559 43.4719V58.3467C113.581 59.2165 113.055 59.9994 112.242 60.3474Z" fill="url(#paint4_linear_4761_61089)"/>
<defs>
<linearGradient id="paint0_linear_4761_61089" x1="56.1719" y1="25.1263" x2="62.7747" y2="9.7483" gradientUnits="userSpaceOnUse">
<stop stop-color="#A9D3F9"/>
<stop offset="0.5788" stop-color="#6896DB"/>
<stop offset="1" stop-color="#2E4EC0"/>
</linearGradient>
<linearGradient id="paint1_linear_4761_61089" x1="26.1691" y1="103.816" x2="52.6433" y2="30.4055" gradientUnits="userSpaceOnUse">
<stop stop-color="#3161DC"/>
<stop offset="0.244792" stop-color="#3F72DC"/>
<stop offset="0.5788" stop-color="#6896DB"/>
<stop offset="1" stop-color="#A9D3F9"/>
</linearGradient>
<linearGradient id="paint2_linear_4761_61089" x1="61.3718" y1="67.3872" x2="81.7252" y2="67.3872" gradientUnits="userSpaceOnUse">
<stop stop-color="#466BCB"/>
<stop offset="1" stop-color="#AAD3FA"/>
</linearGradient>
<linearGradient id="paint3_linear_4761_61089" x1="73.8006" y1="46.6525" x2="72.8159" y2="137.926" gradientUnits="userSpaceOnUse">
<stop stop-color="#6896DB"/>
<stop offset="0.6526" stop-color="#3161DC"/>
</linearGradient>
<linearGradient id="paint4_linear_4761_61089" x1="101.764" y1="52.1869" x2="111.8" y2="53.4306" gradientUnits="userSpaceOnUse">
<stop stop-color="#A9CEF9"/>
<stop offset="0.7376" stop-color="#94B8EF"/>
<stop offset="1" stop-color="#8BB7EB"/>
</linearGradient>
</defs>
</svg>
