<svg width="535" height="163" viewBox="0 0 535 163" fill="none" xmlns="http://www.w3.org/2000/svg">
<path d="M266.821 3.5C267.206 2.83333 268.169 2.83333 268.554 3.5L322.247 96.5C322.632 97.1667 322.151 98 321.381 98H213.994C213.224 98 212.743 97.1667 213.128 96.5L266.821 3.5Z" stroke="#455FCE" stroke-width="2"/>
<path opacity="0.2" d="M174.533 88.875C174.63 88.7083 174.87 88.7083 174.967 88.875L181.029 99.375C181.125 99.5417 181.005 99.75 180.812 99.75H168.688C168.495 99.75 168.375 99.5417 168.471 99.375L174.533 88.875Z" stroke="#455FCE" stroke-width="1.5"/>
<path d="M334.408 21.875C334.505 21.7083 334.745 21.7083 334.842 21.875L340.904 32.375C341 32.5417 340.88 32.75 340.687 32.75H328.563C328.37 32.75 328.25 32.5417 328.346 32.375L334.408 21.875Z" stroke="#455FCE" stroke-width="1.5"/>
<path opacity="0.2" d="M269.955 7C270.725 5.66666 272.65 5.66667 273.42 7L327.113 100C327.883 101.333 326.921 103 325.381 103H217.994C216.454 103 215.492 101.333 216.262 100L269.955 7Z" fill="#455FCE"/>
<path fill-rule="evenodd" clip-rule="evenodd" d="M266.688 53V72H268.688L268.688 53H266.688ZM266.688 76V79H268.687L268.688 76H266.688Z" fill="#455FCE"/>
<path fill-rule="evenodd" clip-rule="evenodd" d="M177.75 9L177.75 19.5H180.25L180.25 9H177.75ZM177.688 23V26H180.187L180.188 23H177.688Z" fill="#455FCE"/>
<path opacity="0.2" fill-rule="evenodd" clip-rule="evenodd" d="M366.75 80L366.75 90.5H369.25L369.25 80H366.75ZM366.688 94V97H369.187L369.188 94H366.688Z" fill="#455FCE"/>
<path fill-rule="evenodd" clip-rule="evenodd" d="M266.281 146L266.281 156.5H268.781L268.781 146H266.281ZM266.219 160V163H268.719L268.719 160H266.219Z" fill="#455FCE"/>
</svg>
