<svg width="14" height="16" viewBox="0 0 14 16" fill="none" xmlns="http://www.w3.org/2000/svg">
<path d="M1 13.9999H13C13.55 13.9999 14 14.4499 14 14.9999C14 15.5499 13.55 15.9999 13 15.9999H1C0.45 15.9999 0 15.5499 0 14.9999C0 14.4499 0.45 13.9999 1 13.9999ZM6.01 9.89994C5.23 10.6699 3.97 10.6699 3.19 9.88994L1 7.69994C0.45 7.14994 0.46 6.25994 1.03 5.72994C1.57 5.20994 2.43 5.22994 2.95 5.74994L4.6 7.39994L11.03 0.969941C11.57 0.429941 12.44 0.429941 12.98 0.969941L13.02 1.00994C13.56 1.54994 13.56 2.42994 13.01 2.96994L6.01 9.89994Z" fill="#455FCE"/>
</svg>
