<svg width="127" height="56" viewBox="0 0 127 56" fill="none" xmlns="http://www.w3.org/2000/svg">
<g clip-path="url(#clip0_3899_16406)">
<path d="M76.8333 21.3333V5.33332C76.8333 3.86666 75.6333 2.66666 74.1666 2.66666H58.1666C56.7 2.66666 55.5 3.86666 55.5 5.33332V21.3333C55.5 22.8 56.7 24 58.1666 24H74.1666C75.6333 24 76.8333 22.8 76.8333 21.3333ZM62.7 16.7067L64.8733 19.6133L68.3133 15.32C68.58 14.9867 69.0866 14.9867 69.3533 15.32L73.3 20.2533C73.6466 20.6933 73.34 21.3333 72.78 21.3333H59.5C58.9533 21.3333 58.6333 20.7067 58.9666 20.2667L61.6333 16.7067C61.9 16.36 62.4333 16.36 62.7 16.7067V16.7067ZM50.1666 9.33332V26.6667C50.1666 28.1333 51.3666 29.3333 52.8333 29.3333H70.1666C70.9 29.3333 71.5 28.7333 71.5 28C71.5 27.2667 70.9 26.6667 70.1666 26.6667H54.1666C53.4333 26.6667 52.8333 26.0667 52.8333 25.3333V9.33332C52.8333 8.59999 52.2333 7.99999 51.5 7.99999C50.7666 7.99999 50.1666 8.59999 50.1666 9.33332Z" fill="#D1D1D1"/>
</g>
<path d="M1.2 47.968V40.8H2.96V48.048C2.96 48.816 3.152 49.4133 3.536 49.84C3.92 50.256 4.48533 50.464 5.232 50.464C5.97867 50.464 6.544 50.256 6.928 49.84C7.312 49.4133 7.504 48.816 7.504 48.048V40.8H9.264V47.968C9.264 49.28 8.88533 50.304 8.128 51.04C7.38133 51.7653 6.416 52.128 5.232 52.128C4.048 52.128 3.07733 51.76 2.32 51.024C1.57333 50.288 1.2 49.2693 1.2 47.968ZM19.1758 47.968C19.1758 49.248 18.8664 50.2613 18.2478 51.008C17.6291 51.7547 16.7278 52.128 15.5438 52.128C15.0744 52.128 14.6478 52.032 14.2638 51.84C13.8798 51.6373 13.5864 51.392 13.3838 51.104V55.264H11.7198V43.936H13.3838V44.864C13.5331 44.5973 13.8104 44.3573 14.2158 44.144C14.6318 43.92 15.0851 43.808 15.5758 43.808C16.7491 43.808 17.6398 44.176 18.2478 44.912C18.8664 45.6373 19.1758 46.656 19.1758 47.968ZM16.8398 49.936C17.2238 49.4453 17.4158 48.7893 17.4158 47.968C17.4158 47.1467 17.2238 46.496 16.8398 46.016C16.4558 45.5253 15.9598 45.28 15.3518 45.28C14.7438 45.28 14.2478 45.5253 13.8638 46.016C13.4798 46.496 13.2878 47.1467 13.2878 47.968C13.2878 48.7893 13.4798 49.4453 13.8638 49.936C14.2478 50.416 14.7438 50.656 15.3518 50.656C15.9598 50.656 16.4558 50.416 16.8398 49.936ZM20.9846 40.672H22.6486V52H20.9846V40.672ZM25.5279 50.928C24.8132 50.128 24.4559 49.1413 24.4559 47.968C24.4559 46.7947 24.8132 45.808 25.5279 45.008C26.2532 44.208 27.2185 43.808 28.4239 43.808C29.6292 43.808 30.5892 44.208 31.3039 45.008C32.0292 45.808 32.3919 46.7947 32.3919 47.968C32.3919 49.1413 32.0292 50.128 31.3039 50.928C30.5892 51.728 29.6292 52.128 28.4239 52.128C27.2185 52.128 26.2532 51.728 25.5279 50.928ZM26.7919 46.08C26.4079 46.6027 26.2159 47.232 26.2159 47.968C26.2159 48.704 26.4079 49.3387 26.7919 49.872C27.1865 50.3947 27.7305 50.656 28.4239 50.656C29.1172 50.656 29.6559 50.3947 30.0399 49.872C30.4345 49.3387 30.6319 48.704 30.6319 47.968C30.6319 47.232 30.4345 46.6027 30.0399 46.08C29.6559 45.5467 29.1172 45.28 28.4239 45.28C27.7305 45.28 27.1865 45.5467 26.7919 46.08ZM33.7978 49.68C33.7978 48.8587 34.1178 48.2133 34.7578 47.744C35.3978 47.2747 36.2404 47.04 37.2858 47.04H38.6778V46.688C38.6778 46.208 38.5284 45.856 38.2298 45.632C37.9418 45.3973 37.5684 45.28 37.1098 45.28C36.3738 45.28 35.8724 45.6373 35.6058 46.352L34.0858 46.032C34.2564 45.3493 34.6138 44.8107 35.1578 44.416C35.7018 44.0107 36.3578 43.808 37.1258 43.808C39.2698 43.808 40.3418 44.8693 40.3418 46.992V52H38.9338L38.7738 50.944C38.2084 51.7333 37.3764 52.128 36.2778 52.128C35.5631 52.128 34.9711 51.92 34.5018 51.504C34.0324 51.088 33.7978 50.48 33.7978 49.68ZM35.5578 49.68C35.5578 49.968 35.6431 50.2027 35.8138 50.384C35.9844 50.5653 36.2351 50.656 36.5658 50.656C37.1311 50.656 37.6218 50.48 38.0378 50.128C38.4644 49.7653 38.6778 49.2587 38.6778 48.608V48.432H37.2218C36.7098 48.432 36.3044 48.544 36.0058 48.768C35.7071 48.992 35.5578 49.296 35.5578 49.68ZM42.2528 47.968C42.2528 46.688 42.5621 45.6747 43.1808 44.928C43.7994 44.1813 44.7008 43.808 45.8848 43.808C46.2794 43.808 46.6901 43.9147 47.1168 44.128C47.5434 44.3307 47.8528 44.5653 48.0448 44.832V40.672H49.7088V52H48.0448V51.072C47.8954 51.3387 47.6128 51.584 47.1968 51.808C46.7914 52.0213 46.3434 52.128 45.8528 52.128C44.6794 52.128 43.7834 51.7653 43.1648 51.04C42.5568 50.304 42.2528 49.28 42.2528 47.968ZM44.5888 46.016C44.2048 46.496 44.0128 47.1467 44.0128 47.968C44.0128 48.7893 44.2048 49.4453 44.5888 49.936C44.9728 50.416 45.4688 50.656 46.0768 50.656C46.6848 50.656 47.1808 50.416 47.5648 49.936C47.9488 49.4453 48.1408 48.7893 48.1408 47.968C48.1408 47.1467 47.9488 46.496 47.5648 46.016C47.1808 45.5253 46.6848 45.28 46.0768 45.28C45.4688 45.28 44.9728 45.5253 44.5888 46.016ZM55.5391 45.408V43.936H56.8831V41.712L58.5471 40.672V43.936H60.6431V45.408H58.5471V49.344C58.5471 50.2187 58.9045 50.656 59.6191 50.656C59.8858 50.656 60.1418 50.5813 60.3871 50.432L60.8191 51.84C60.4245 52.032 59.9925 52.128 59.5231 52.128C58.7231 52.128 58.0831 51.888 57.6031 51.408C57.1231 50.9173 56.8831 50.1973 56.8831 49.248V45.408H55.5391ZM62.4385 40.672H64.1025V45.312C64.7958 44.3093 65.7025 43.808 66.8225 43.808C67.5798 43.808 68.1665 44.016 68.5825 44.432C68.9985 44.848 69.2065 45.4773 69.2065 46.32V52H67.5425V46.752C67.5425 46.176 67.4358 45.7867 67.2225 45.584C67.0092 45.3813 66.6945 45.28 66.2785 45.28C65.7665 45.28 65.2758 45.584 64.8065 46.192C64.3372 46.8 64.1025 47.6 64.1025 48.592V52H62.4385V40.672ZM78.0134 52H76.3494V50.624C76.0614 51.104 75.688 51.4773 75.2294 51.744C74.7707 52 74.2747 52.128 73.7414 52.128C73.0267 52.128 72.4507 51.92 72.0134 51.504C71.5867 51.0773 71.3734 50.48 71.3734 49.712V43.936H73.0374V49.184C73.0374 50.1653 73.4534 50.656 74.2854 50.656C74.84 50.656 75.32 50.3467 75.7254 49.728C76.1414 49.0987 76.3494 48.256 76.3494 47.2V43.936H78.0134V52ZM80.376 43.936H82.04V45.312C82.6907 44.3093 83.5013 43.808 84.472 43.808C85.016 43.808 85.4907 43.9627 85.896 44.272C86.312 44.5707 86.5787 44.9707 86.696 45.472C86.9733 44.9387 87.3307 44.528 87.768 44.24C88.2053 43.952 88.6853 43.808 89.208 43.808C89.9333 43.808 90.4987 44.032 90.904 44.48C91.3093 44.9173 91.512 45.4987 91.512 46.224V52H89.848V46.592C89.848 46.1653 89.7413 45.84 89.528 45.616C89.3147 45.392 89.0267 45.28 88.664 45.28C88.1413 45.28 87.6933 45.5947 87.32 46.224C86.9573 46.8533 86.776 47.7013 86.776 48.768V52H85.112V46.592C85.112 46.1653 85.0053 45.84 84.792 45.616C84.5787 45.392 84.2907 45.28 83.928 45.28C83.3947 45.28 82.9467 45.6053 82.584 46.256C82.2213 46.896 82.04 47.792 82.04 48.944V52H80.376V43.936ZM101.238 47.968C101.238 49.28 100.929 50.304 100.31 51.04C99.7023 51.7653 98.8116 52.128 97.6383 52.128C97.1476 52.128 96.6943 52.0213 96.2783 51.808C95.8729 51.584 95.5956 51.3387 95.4463 51.072V52H93.7823V40.672H95.4463V44.832C95.6383 44.5653 95.9476 44.3307 96.3743 44.128C96.8009 43.9147 97.2116 43.808 97.6063 43.808C98.7903 43.808 99.6916 44.1813 100.31 44.928C100.929 45.6747 101.238 46.688 101.238 47.968ZM98.9023 49.936C99.2863 49.4453 99.4783 48.7893 99.4783 47.968C99.4783 47.1467 99.2863 46.496 98.9023 46.016C98.5183 45.5253 98.0223 45.28 97.4143 45.28C96.8063 45.28 96.3103 45.5253 95.9263 46.016C95.5423 46.496 95.3503 47.1467 95.3503 47.968C95.3503 48.7893 95.5423 49.4453 95.9263 49.936C96.3103 50.416 96.8063 50.656 97.4143 50.656C98.0223 50.656 98.5183 50.416 98.9023 49.936ZM103.079 43.936H104.743V45.312C105.031 44.832 105.404 44.464 105.863 44.208C106.322 43.9413 106.818 43.808 107.351 43.808C108.066 43.808 108.636 44.0213 109.063 44.448C109.5 44.864 109.719 45.456 109.719 46.224V52H108.055V46.752C108.055 45.7707 107.639 45.28 106.807 45.28C106.252 45.28 105.767 45.5947 105.351 46.224C104.946 46.8427 104.743 47.68 104.743 48.736V52H103.079V43.936ZM111.423 49.68C111.423 48.8587 111.743 48.2133 112.383 47.744C113.023 47.2747 113.865 47.04 114.911 47.04H116.303V46.688C116.303 46.208 116.153 45.856 115.855 45.632C115.567 45.3973 115.193 45.28 114.735 45.28C113.999 45.28 113.497 45.6373 113.231 46.352L111.711 46.032C111.881 45.3493 112.239 44.8107 112.783 44.416C113.327 44.0107 113.983 43.808 114.751 43.808C116.895 43.808 117.967 44.8693 117.967 46.992V52H116.559L116.399 50.944C115.833 51.7333 115.001 52.128 113.903 52.128C113.188 52.128 112.596 51.92 112.127 51.504C111.657 51.088 111.423 50.48 111.423 49.68ZM113.183 49.68C113.183 49.968 113.268 50.2027 113.439 50.384C113.609 50.5653 113.86 50.656 114.191 50.656C114.756 50.656 115.247 50.48 115.663 50.128C116.089 49.7653 116.303 49.2587 116.303 48.608V48.432H114.847C114.335 48.432 113.929 48.544 113.631 48.768C113.332 48.992 113.183 49.296 113.183 49.68ZM120.077 42.48C119.864 42.256 119.757 41.984 119.757 41.664C119.757 41.344 119.869 41.072 120.093 40.848C120.317 40.6133 120.589 40.496 120.909 40.496C121.229 40.496 121.501 40.6133 121.725 40.848C121.949 41.072 122.061 41.344 122.061 41.664C122.061 41.984 121.949 42.256 121.725 42.48C121.512 42.6933 121.24 42.8 120.909 42.8C120.579 42.8 120.301 42.6933 120.077 42.48ZM120.077 43.936H121.741V52H120.077V43.936ZM123.86 40.672H125.524V52H123.86V40.672Z" fill="#9A9AA3"/>
<defs>
<clipPath id="clip0_3899_16406">
<rect width="32" height="32" fill="white" transform="translate(47.5)"/>
</clipPath>
</defs>
</svg>
