<svg width="21" height="12" viewBox="0 0 21 12" fill="none" xmlns="http://www.w3.org/2000/svg">
<path fill-rule="evenodd" clip-rule="evenodd" d="M20.0413 0.812571C20.1796 0.344571 20.0413 0 19.3788 0H17.1913C16.6347 0 16.378 0.297429 16.2388 0.625714C16.2388 0.625714 15.1264 3.36514 13.5506 5.14457C13.0406 5.66057 12.8089 5.82429 12.5306 5.82429C12.3914 5.82429 12.1823 5.66057 12.1823 5.19171V0.812571C12.1823 0.250286 12.0289 0 11.5656 0H8.12567C7.77818 0 7.56902 0.260571 7.56902 0.508286C7.56902 1.04057 8.35734 1.164 8.43817 2.66229V5.91771C8.43817 6.63171 8.31067 6.76114 8.03234 6.76114C7.29069 6.76114 5.48656 4.00886 4.41575 0.859714C4.20826 0.246857 3.99826 0 3.43911 0H1.24998C0.624997 0 0.5 0.297429 0.5 0.625714C0.5 1.21029 1.24165 4.11429 3.95409 7.95514C5.76239 10.578 8.30817 12 10.6273 12C12.0181 12 12.1898 11.6846 12.1898 11.1403V9.15771C12.1898 8.526 12.3214 8.4 12.7622 8.4C13.0872 8.4 13.6431 8.56457 14.9414 9.82886C16.4247 11.328 16.6688 12 17.5038 12H19.6913C20.3163 12 20.6296 11.6846 20.4496 11.0606C20.2513 10.44 19.5429 9.53914 18.6038 8.47029C18.0938 7.86171 17.3288 7.206 17.0963 6.87771C16.7722 6.45686 16.8647 6.26914 17.0963 5.89457C17.0963 5.89457 19.7629 2.10086 20.0404 0.812571H20.0413Z" fill="#455FCE"/>
</svg>
